M48
; DRILL file {KiCad 9.0.0} date 2026-01-09T23:09:39+0100
; FORMAT={-:-/ absolute / inch / decimal}
; #@! TF.CreationDate,2026-01-09T23:09:39+01:00
; #@! TF.GenerationSoftware,Kicad,Pcbnew,9.0.0
; #@! TF.FileFunction,Plated,1,4,PTH
FMAT,2
INCH
; #@! TA.AperFunction,Plated,PTH,ViaDrill
T1C0.0079
; #@! TA.AperFunction,Plated,PTH,ViaDrill
T2C0.0118
; #@! TA.AperFunction,Plated,PTH,ViaDrill
T3C0.0157
; #@! TA.AperFunction,Plated,PTH,ComponentDrill
T4C0.0394
; #@! TA.AperFunction,Plated,PTH,ComponentDrill
T5C0.0512
; #@! TA.AperFunction,Plated,PTH,ComponentDrill
T6C0.1063
%
G90
G05
T1
X4.4557Y-3.5463
X4.5925Y-5.1201
X4.6422Y-2.8407
X4.6633Y-2.8718
X4.666Y-4.4014
X4.67Y-2.37
X4.67Y-2.5905
X4.67Y-5.0157
X4.67Y-5.4566
X4.67Y-5.6771
X4.67Y-5.8976
X4.67Y-6.118
X4.67Y-6.3385
X4.6779Y-2.9127
X4.6825Y-4.4419
X4.6953Y-4.4894
X4.7016Y-4.5455
X4.7023Y-3.0058
X4.7023Y-3.089
X4.7165Y-4.5969
X4.7185Y-3.8573
X4.7185Y-3.8799
X4.7185Y-3.9026
X4.7185Y-3.9252
X4.7185Y-3.9478
X4.7185Y-3.9675
X4.7286Y-4.6449
X4.7372Y-4.0787
X4.7382Y-4.1171
X4.7559Y-3.7598
X4.7569Y-3.7234
X4.7589Y-3.8091
X4.7705Y-4.954
X4.7719Y-5.7921
X4.7975Y-5.484
X4.8163Y-5.407
X4.8188Y-5.1625
X4.8259Y-2.9238
X4.83Y-3.95
X4.8308Y-2.9978
X4.8327Y-4.003
X4.8366Y-3.8676
X4.8481Y-3.2151
X4.8536Y-5.793
X4.867Y-3.8724
X4.8681Y-3.7995
X4.872Y-3.8386
X4.8848Y-3.7647
X4.8873Y-4.0834
X4.8905Y-2.37
X4.8905Y-6.118
X4.8905Y-6.3385
X4.8956Y-5.4508
X4.8986Y-3.1948
X4.9272Y-4.0935
X4.9379Y-5.4934
X4.9384Y-5.5704
X4.9386Y-5.7837
X4.9446Y-3.9092
X4.9449Y-3.179
X4.9537Y-3.314
X4.97Y-4.36
X4.9803Y-2.9859
X4.9803Y-3.0376
X4.9823Y-4.0059
X4.9833Y-3.9281
X4.9852Y-3.9478
X5.0086Y-5.4788
X5.02Y-4.44
X5.02Y-4.49
X5.05Y-4.61
X5.0827Y-5.7736
X5.0857Y-3.6279
X5.1Y-5.4566
X5.1024Y-3.4263
X5.1109Y-2.37
X5.1109Y-2.5905
X5.1109Y-6.118
X5.1959Y-4.7201
X5.33Y-5.47
X5.3314Y-2.37
X5.3314Y-2.5905
X5.3314Y-2.8109
X5.3314Y-3.0314
X5.3314Y-3.2519
X5.3314Y-3.4724
X5.3314Y-3.6928
X5.3314Y-3.9133
X5.3314Y-4.3543
X5.3314Y-4.5747
X5.3314Y-5.6771
X5.3314Y-5.8976
X5.3314Y-6.118
X5.3314Y-6.3385
X5.5133Y-4.0739
X5.5149Y-3.5387
X5.5154Y-4.1043
X5.5185Y-3.5592
X5.5185Y-3.5867
X5.5185Y-3.6143
X5.5185Y-3.6419
X5.5185Y-3.6694
X5.5185Y-3.697
X5.5185Y-3.7245
X5.5185Y-3.7521
X5.5185Y-3.7797
X5.5185Y-3.8072
X5.5185Y-3.8348
X5.5185Y-3.8623
X5.5185Y-3.8899
X5.5185Y-3.9175
X5.5185Y-3.945
X5.5185Y-3.9726
X5.5185Y-4.0001
X5.5185Y-4.0277
X5.5223Y-4.0582
X5.5238Y-4.1212
X5.5276Y-4.089
X5.53Y-3.5228
X5.5337Y-3.5457
X5.5337Y-3.5732
X5.5337Y-3.6008
X5.5337Y-3.6284
X5.5337Y-3.6559
X5.5337Y-3.6835
X5.5337Y-3.711
X5.5337Y-3.7386
X5.5337Y-3.7662
X5.5337Y-3.7937
X5.5337Y-3.8213
X5.5337Y-3.8488
X5.5337Y-3.8764
X5.5337Y-3.9039
X5.5337Y-3.9315
X5.5337Y-3.9591
X5.5337Y-3.9866
X5.5337Y-4.0142
X5.5337Y-4.0417
X5.5408Y-4.0739
X5.543Y-4.1043
X5.5446Y-3.5067
X5.5465Y-3.5323
X5.5476Y-3.56
X5.5476Y-3.5876
X5.5476Y-3.6152
X5.5476Y-3.6427
X5.5476Y-3.6703
X5.5476Y-3.6978
X5.5476Y-3.7254
X5.5476Y-3.753
X5.5476Y-3.7805
X5.5476Y-3.8081
X5.5476Y-3.8356
X5.5476Y-3.8632
X5.5476Y-3.8908
X5.5476Y-3.9183
X5.5476Y-3.9459
X5.5476Y-3.9734
X5.5476Y-4.001
X5.5476Y-4.0286
X5.5499Y-4.0582
X5.5514Y-4.1212
X5.5519Y-2.37
X5.5519Y-2.5905
X5.5519Y-2.8109
X5.5519Y-3.0314
X5.5519Y-3.2519
X5.5519Y-3.4724
X5.5519Y-4.5747
X5.5519Y-5.4566
X5.5519Y-5.6771
X5.5519Y-5.8976
X5.5519Y-6.118
X5.5519Y-6.3385
X5.5552Y-4.089
X5.5568Y-3.4924
X5.5602Y-3.52
X5.5615Y-3.5476
X5.5615Y-3.5751
X5.5615Y-3.6027
X5.5615Y-3.6302
X5.5615Y-3.6578
X5.5615Y-3.6854
X5.5615Y-3.7129
X5.5615Y-3.7405
X5.5615Y-3.768
X5.5615Y-3.7956
X5.5615Y-3.8231
X5.5615Y-3.8507
X5.5615Y-3.8783
X5.5615Y-3.9058
X5.5615Y-3.9334
X5.5615Y-3.9609
X5.5615Y-3.9885
X5.5615Y-4.0161
X5.5615Y-4.0436
X5.5684Y-4.0739
X5.57Y-4.3543
X5.57Y-4.7952
X5.57Y-5.0157
X5.57Y-5.24
X5.5705Y-4.1043
X5.5722Y-3.5067
X5.5737Y-3.6983
X5.5747Y-4.0289
X5.5748Y-3.5336
X5.5748Y-3.5611
X5.5748Y-3.5887
X5.5748Y-3.6163
X5.5748Y-3.6438
X5.5748Y-3.6714
X5.5748Y-3.7265
X5.5748Y-3.754
X5.5748Y-3.7816
X5.5748Y-3.8092
X5.5748Y-3.8367
X5.5748Y-3.8643
X5.5748Y-3.8918
X5.5748Y-3.9194
X5.5748Y-3.947
X5.5748Y-3.9745
X5.5748Y-4.0021
X5.5774Y-4.0582
X5.5789Y-4.1212
X5.5816Y-4.2108
X5.5827Y-4.089
X5.5844Y-3.4924
X5.5858Y-3.7118
X5.588Y-3.5206
X5.5891Y-3.5476
X5.5891Y-3.5751
X5.5891Y-3.6302
X5.5891Y-3.6578
X5.5891Y-3.6854
X5.5891Y-3.7405
X5.5891Y-3.768
X5.5891Y-3.7956
X5.5891Y-3.8231
X5.5891Y-3.8507
X5.5891Y-3.8783
X5.5891Y-3.9058
X5.5891Y-3.9334
X5.5891Y-4.0161
X5.5891Y-4.0436
X5.596Y-4.0739
X5.5981Y-4.1043
X5.5998Y-3.5067
X5.6031Y-3.5339
X5.605Y-4.0582
X5.6065Y-4.1212
X5.6076Y-3.5563
X5.6092Y-4.2108
X5.6103Y-4.089
X5.6119Y-3.4924
X5.6154Y-3.5206
X5.6161Y-3.5827
X5.6161Y-3.9488
X5.6162Y-4.0429
X5.6163Y-3.7116
X5.6172Y-3.6329
X5.6172Y-3.6722
X5.6172Y-3.751
X5.6172Y-3.7904
X5.6172Y-3.8297
X5.6172Y-3.8691
X5.6172Y-3.9094
X5.6172Y-3.9902
X5.6235Y-4.0739
X5.6239Y-3.5392
X5.6256Y-4.1043
X5.6273Y-3.5067
X5.6326Y-4.0582
X5.634Y-4.1212
X5.6368Y-4.2108
X5.6378Y-4.089
X5.6395Y-3.4924
X5.6409Y-3.5216
X5.6438Y-4.0429
X5.6511Y-4.0739
X5.6516Y-4.1021
X5.6549Y-3.5067
X5.655Y-4.1217
X5.6601Y-4.0582
X5.6643Y-4.2108
X5.6654Y-4.089
X5.6671Y-3.4924
X5.6692Y-3.5197
X5.6718Y-3.5621
X5.6775Y-4.0474
X5.6785Y-4.102
X5.6786Y-4.0739
X5.6824Y-3.5067
X5.6826Y-4.1217
X5.6919Y-4.2108
X5.6923Y-4.0606
X5.6929Y-4.089
X5.6946Y-3.4924
X5.6961Y-3.5199
X5.7019Y-3.5625
X5.7062Y-4.0739
X5.7063Y-4.0463
X5.7081Y-4.1028
X5.71Y-3.5067
X5.7101Y-4.1217
X5.7128Y-4.2112
X5.7196Y-4.0605
X5.7205Y-4.089
X5.7222Y-3.4924
X5.7247Y-3.5197
X5.7309Y-3.5622
X5.7335Y-4.0471
X5.7337Y-4.0739
X5.7343Y-4.1024
X5.7375Y-3.5067
X5.7377Y-4.1217
X5.7404Y-4.2112
X5.7481Y-4.089
X5.7497Y-3.4924
X5.75Y-4.06
X5.7516Y-3.5198
X5.7597Y-3.5624
X5.7613Y-4.0739
X5.7628Y-4.103
X5.7629Y-4.0459
X5.7651Y-3.5067
X5.7652Y-4.1217
X5.768Y-4.2112
X5.7724Y-2.37
X5.7724Y-2.5905
X5.7724Y-2.8109
X5.7724Y-3.0314
X5.7724Y-3.2519
X5.7724Y-3.4724
X5.7724Y-4.3543
X5.7724Y-4.7952
X5.7724Y-5.0157
X5.7724Y-5.2361
X5.7724Y-5.4566
X5.7724Y-5.6771
X5.7724Y-5.8976
X5.7724Y-6.118
X5.7724Y-6.3385
X5.7753Y-4.0608
X5.7756Y-4.089
X5.7773Y-3.4924
X5.779Y-3.519
X5.7816Y-4.0429
X5.7889Y-4.0739
X5.7898Y-3.5621
X5.79Y-4.1015
X5.79Y-4.5747
X5.7927Y-3.5067
X5.7928Y-4.1217
X5.7955Y-4.2112
X5.7977Y-4.033
X5.7979Y-4.0582
X5.8032Y-4.089
X5.8049Y-3.4924
X5.8063Y-3.5195
X5.8123Y-4.0452
X5.8164Y-4.0739
X5.8167Y-4.1015
X5.8202Y-3.5067
X5.8204Y-4.1217
X5.8231Y-4.2112
X5.8232Y-3.5655
X5.8255Y-4.0582
X5.8277Y-4.032
X5.8307Y-4.089
X5.8324Y-3.4924
X5.834Y-3.5201
X5.8392Y-4.0467
X5.8425Y-3.5737
X5.844Y-4.0739
X5.8442Y-4.1021
X5.8478Y-3.5067
X5.8479Y-4.1217
X5.8506Y-4.2112
X5.8511Y-4.032
X5.853Y-4.0582
X5.8583Y-4.089
X5.86Y-3.4924
X5.86Y-3.52
X5.8617Y-3.5739
X5.8698Y-3.6177
X5.87Y-4.0497
X5.8715Y-4.0739
X5.8719Y-4.032
X5.8725Y-4.1028
X5.8753Y-3.5067
X5.8755Y-4.1217
X5.8782Y-4.2112
X5.8802Y-3.5741
X5.8852Y-4.0608
X5.8859Y-4.089
X5.8875Y-3.4924
X5.8893Y-4.0409
X5.8898Y-3.6176
X5.89Y-3.52
X5.8987Y-3.5747
X5.8991Y-4.0739
X5.8995Y-4.1027
X5.9029Y-3.5067
X5.903Y-4.1217
X5.9049Y-4.0567
X5.9058Y-4.2112
X5.9101Y-3.6176
X5.9129Y-3.654
X5.914Y-4.0907
X5.9147Y-3.522
X5.9151Y-3.4924
X5.9171Y-3.5751
X5.92Y-4.0739
X5.9261Y-4.1044
X5.93Y-3.6177
X5.9305Y-3.5067
X5.9306Y-4.1217
X5.931Y-3.6551
X5.9333Y-4.2112
X5.9353Y-3.5752
X5.9371Y-4.0886
X5.9427Y-3.4924
X5.9441Y-3.522
X5.9493Y-3.6548
X5.95Y-4.1043
X5.9504Y-3.6913
X5.9512Y-3.6176
X5.9537Y-3.5757
X5.958Y-3.5067
X5.9582Y-4.1217
X5.96Y-3.0314
X5.96Y-3.45
X5.9609Y-4.2112
X5.9676Y-3.6543
X5.97Y-2.5905
X5.97Y-2.8109
X5.97Y-3.25
X5.9702Y-3.4924
X5.9704Y-3.6918
X5.9707Y-3.6177
X5.9719Y-3.5219
X5.972Y-3.5756
X5.9856Y-3.5067
X5.9857Y-4.1217
X5.9865Y-3.6543
X5.9884Y-4.2112
X5.9897Y-3.7308
X5.9901Y-3.5757
X5.9906Y-3.6174
X5.9914Y-4.0453
X5.9923Y-3.692
X5.9928Y-2.37
X5.9928Y-4.3543
X5.9928Y-4.5747
X5.9928Y-5.0157
X5.9928Y-5.2361
X5.9928Y-5.4566
X5.9928Y-5.6771
X5.9928Y-5.8976
X5.9928Y-6.118
X5.9928Y-6.3385
X5.9978Y-3.4924
X6.0024Y-3.52
X6.006Y-3.6542
X6.0074Y-3.7322
X6.0085Y-3.5757
X6.01Y-4.05
X6.01Y-4.79
X6.0103Y-3.6924
X6.0116Y-3.6174
X6.0133Y-4.1217
X6.014Y-3.504
X6.016Y-4.2112
X6.0251Y-3.654
X6.0267Y-3.5757
X6.0269Y-3.7328
X6.0283Y-3.6921
X6.03Y-3.52
X6.03Y-4.05
X6.0305Y-3.6177
X6.0394Y-3.7729
X6.0408Y-4.1217
X6.0435Y-4.2112
X6.044Y-3.6541
X6.045Y-3.5755
X6.046Y-3.7325
X6.0464Y-3.6926
X6.0498Y-3.6177
X6.05Y-4.05
X6.0603Y-3.7727
X6.0631Y-3.6545
X6.0635Y-3.5759
X6.0643Y-3.7325
X6.0647Y-3.6934
X6.0683Y-3.6176
X6.0684Y-4.1217
X6.07Y-4.05
X6.0711Y-4.2112
X6.0806Y-3.7729
X6.0821Y-3.655
X6.0823Y-3.732
X6.0827Y-3.5759
X6.0831Y-3.6939
X6.0873Y-3.6177
X6.09Y-4.05
X6.0912Y-3.8107
X6.0959Y-4.1217
X6.0967Y-3.2822
X6.0987Y-4.2112
X6.099Y-3.7729
X6.0998Y-3.1811
X6.1005Y-3.7313
X6.1009Y-3.6914
X6.1013Y-3.6551
X6.1235Y-4.1217
X6.1262Y-4.2112
X6.14Y-3.07
X6.1511Y-4.1217
X6.1538Y-4.2112
X6.1641Y-4.0301
X6.1663Y-3.6545
X6.1683Y-3.6122
X6.1683Y-3.7726
X6.1684Y-3.5635
X6.1693Y-3.8488
X6.1699Y-3.4883
X6.17Y-3.52
X6.17Y-3.8851
X6.17Y-3.9637
X6.1703Y-3.6919
X6.1703Y-3.7313
X6.1713Y-3.812
X6.1713Y-3.9214
X6.1786Y-4.1217
X6.1793Y-3.5046
X6.1813Y-4.2112
X6.1814Y-4.0102
X6.1897Y-3.5632
X6.1899Y-3.4883
X6.19Y-3.6545
X6.19Y-3.52
X6.1919Y-3.6122
X6.1919Y-3.7726
X6.1919Y-3.8851
X6.1926Y-3.9638
X6.1929Y-3.8488
X6.1939Y-3.6919
X6.1939Y-3.7313
X6.1949Y-3.812
X6.1949Y-3.9214
X6.2028Y-4.0974
X6.2037Y-3.5876
X6.2058Y-3.5046
X6.2089Y-4.2112
X6.2133Y-2.37
X6.2133Y-2.8109
X6.2133Y-4.3543
X6.2133Y-4.7952
X6.2133Y-5.2361
X6.2133Y-5.4566
X6.2133Y-5.6771
X6.2133Y-5.8976
X6.2133Y-6.3385
X6.2146Y-3.6545
X6.2164Y-3.4883
X6.2165Y-3.52
X6.2165Y-3.6122
X6.2165Y-3.7726
X6.2165Y-3.8851
X6.217Y-3.9637
X6.2175Y-3.8488
X6.2177Y-3.5621
X6.2185Y-3.6919
X6.2185Y-3.7313
X6.2195Y-3.812
X6.22Y-3.9214
X6.22Y-5.01
X6.2253Y-4.0746
X6.23Y-6.09
X6.2365Y-4.2112
X6.2598Y-4.1998
X6.2694Y-4.1811
X6.2871Y-3.4905
X6.289Y-3.7717
X6.2897Y-3.693
X6.2898Y-3.6541
X6.2899Y-3.7331
X6.29Y-3.61
X6.2905Y-3.8096
X6.2905Y-3.52
X6.2915Y-3.5671
X6.3013Y-3.5052
X6.3088Y-3.1957
X6.3102Y-3.922
X6.3133Y-3.693
X6.3136Y-3.7331
X6.3141Y-3.6541
X6.3141Y-3.5675
X6.3144Y-3.52
X6.3147Y-3.4905
X6.3165Y-3.7717
X6.3176Y-3.61
X6.3181Y-3.8096
X6.3196Y-6.1083
X6.3224Y-3.0726
X6.3279Y-3.5059
X6.3295Y-5.1291
X6.3326Y-5.5016
X6.3334Y-5.6776
X6.335Y-5.8466
X6.3369Y-3.693
X6.3372Y-3.7331
X6.3378Y-3.6543
X6.3386Y-6.0295
X6.3416Y-3.5675
X6.342Y-3.52
X6.3422Y-3.4905
X6.3441Y-3.7717
X6.3451Y-3.61
X6.3456Y-3.8096
X6.3555Y-3.5059
X6.3605Y-3.693
X6.3608Y-3.7331
X6.361Y-3.8489
X6.3611Y-3.6541
X6.3692Y-3.5675
X6.3695Y-3.52
X6.3698Y-3.4905
X6.3716Y-3.7717
X6.3727Y-3.61
X6.3732Y-3.8096
X6.3757Y-4.004
X6.3761Y-3.8851
X6.3768Y-3.9637
X6.3773Y-3.9214
X6.3783Y-6.1107
X6.3817Y-3.8488
X6.383Y-3.5059
X6.3841Y-3.693
X6.3843Y-3.6549
X6.3844Y-3.7331
X6.3873Y-2.6019
X6.3968Y-3.5675
X6.3971Y-3.52
X6.3973Y-3.4905
X6.3992Y-3.7717
X6.4002Y-3.61
X6.4007Y-3.8096
X6.4032Y-4.004
X6.4037Y-3.8851
X6.4041Y-3.8488
X6.4043Y-3.9637
X6.4049Y-3.9214
X6.4075Y-3.6541
X6.4078Y-3.693
X6.408Y-3.7331
X6.41Y-5.17
X6.41Y-5.53
X6.41Y-5.9
X6.4104Y-6.0305
X6.4106Y-3.5059
X6.4159Y-5.7059
X6.4243Y-3.5675
X6.4246Y-3.52
X6.4249Y-3.4905
X6.4268Y-3.7717
X6.4278Y-3.61
X6.4283Y-3.8096
X6.4308Y-4.004
X6.4312Y-3.8851
X6.4313Y-3.6551
X6.4314Y-3.693
X6.4316Y-3.8488
X6.4317Y-3.7331
X6.4319Y-3.9637
X6.4324Y-3.9214
X6.4338Y-2.37
X6.4338Y-3.4724
X6.4338Y-5.0157
X6.4338Y-6.3385
X6.4367Y-6.1093
X6.4381Y-3.5059
X6.4519Y-3.5675
X6.4522Y-3.52
X6.4525Y-3.4905
X6.4543Y-3.7717
X6.455Y-3.693
X6.4553Y-3.7331
X6.4554Y-3.61
X6.4554Y-3.6548
X6.4559Y-3.8096
X6.4584Y-4.004
X6.4588Y-3.8851
X6.4592Y-3.8488
X6.4595Y-3.9637
X6.46Y-3.9214
X6.4657Y-3.5059
X6.4786Y-3.693
X6.4788Y-3.6541
X6.4789Y-3.7331
X6.4794Y-3.5675
X6.4798Y-3.52
X6.48Y-3.4905
X6.4804Y-5.1786
X6.4819Y-3.7717
X6.4829Y-3.61
X6.4834Y-3.8096
X6.4852Y-6.0315
X6.4859Y-4.004
X6.4863Y-3.8851
X6.4867Y-3.8488
X6.487Y-3.9637
X6.4875Y-3.9214
X6.4898Y-5.6863
X6.4914Y-5.8513
X6.4933Y-3.5059
X6.4961Y-5.3963
X6.4972Y-6.1087
X6.5015Y-3.6551
X6.5023Y-3.693
X6.5025Y-3.7331
X6.507Y-3.5675
X6.5073Y-3.52
X6.5076Y-3.4905
X6.5094Y-3.7717
X6.5105Y-3.61
X6.511Y-3.8096
X6.5135Y-4.004
X6.5139Y-3.8851
X6.5143Y-3.8488
X6.5146Y-3.9637
X6.5151Y-3.9214
X6.5208Y-3.5059
X6.5253Y-3.6549
X6.5259Y-3.693
X6.5262Y-3.7331
X6.5346Y-3.5675
X6.5349Y-3.52
X6.5351Y-3.4905
X6.537Y-3.7717
X6.538Y-3.61
X6.5385Y-3.8096
X6.541Y-4.004
X6.5415Y-3.8851
X6.5419Y-3.8488
X6.5421Y-3.9637
X6.5427Y-3.9214
X6.5484Y-3.5059
X6.5495Y-3.693
X6.5498Y-3.7331
X6.5509Y-3.655
X6.5621Y-3.5675
X6.5624Y-3.52
X6.5627Y-3.4905
X6.5646Y-3.7717
X6.5656Y-3.61
X6.5661Y-3.8096
X6.5686Y-4.004
X6.569Y-3.8851
X6.5694Y-3.8488
X6.5697Y-3.9637
X6.5702Y-3.9214
X6.5722Y-3.6548
X6.5731Y-3.693
X6.5734Y-3.7331
X6.5759Y-3.5059
X6.5897Y-3.5675
X6.59Y-3.52
X6.5903Y-3.4905
X6.5921Y-3.7717
X6.5931Y-3.61
X6.5937Y-3.8096
X6.5955Y-3.6545
X6.5962Y-4.004
X6.5966Y-3.8851
X6.5967Y-3.693
X6.597Y-3.8488
X6.597Y-3.7331
X6.5973Y-3.9637
X6.5978Y-3.9214
X6.6035Y-3.5059
X6.6172Y-3.5675
X6.6176Y-3.52
X6.6178Y-3.4905
X6.6197Y-3.7717
X6.6204Y-3.693
X6.6206Y-3.6548
X6.6206Y-3.7331
X6.6207Y-3.61
X6.6212Y-3.8096
X6.6237Y-4.004
X6.6241Y-3.8851
X6.6245Y-3.8488
X6.6248Y-3.9637
X6.6253Y-3.9214
X6.6318Y-3.5059
X6.6437Y-3.6551
X6.644Y-3.693
X6.6443Y-3.7331
X6.6448Y-3.5675
X6.6451Y-3.52
X6.6461Y-3.4908
X6.6472Y-3.7717
X6.6483Y-3.61
X6.6488Y-3.8096
X6.6517Y-3.8851
X6.6521Y-3.8488
X6.6524Y-3.9637
X6.6529Y-3.9214
X6.6543Y-2.37
X6.6543Y-2.5905
X6.6543Y-2.8109
X6.6543Y-3.0314
X6.6543Y-3.2519
X6.6543Y-3.4724
X6.6543Y-5.0157
X6.6543Y-5.2361
X6.6543Y-5.4566
X6.6543Y-5.6771
X6.6543Y-5.8976
X6.6543Y-6.118
X6.6543Y-6.3385
X6.6594Y-3.5059
X6.6669Y-3.655
X6.6676Y-3.693
X6.6679Y-3.7331
X6.6682Y-3.5672
X6.6737Y-3.4908
X6.6737Y-3.5198
X6.6748Y-3.7717
X6.6758Y-3.61
X6.6763Y-3.8096
X6.6769Y-3.8488
X6.6792Y-3.8851
X6.6805Y-3.9214
X6.6869Y-3.5059
X6.6907Y-3.6548
X6.6912Y-3.693
X6.6915Y-3.7331
X6.6945Y-4.0345
X6.6958Y-3.5672
X6.6999Y-3.818
X6.7012Y-3.4908
X6.7013Y-3.5198
X6.7024Y-3.7717
X6.7034Y-3.61
X6.7146Y-3.655
X6.7148Y-3.693
X6.7151Y-3.7331
X6.716Y-3.834
X6.72Y-3.7868
X6.7274Y-3.5876
X6.73Y-3.6137
X6.731Y-3.849
X6.7329Y-3.7457
X6.735Y-3.8017
X6.7369Y-3.6543
X6.7415Y-3.7031
X6.7472Y-3.7603
X6.7475Y-3.5085
X6.7479Y-3.4739
X6.7489Y-3.867
X6.75Y-3.8164
X6.7509Y-3.5672
X6.7564Y-3.4908
X6.7578Y-3.6672
X6.758Y-4.0628
X6.7585Y-3.61
X6.7593Y-3.7207
X6.7612Y-3.522
X6.7637Y-3.8818
X6.7641Y-3.7769
X6.7684Y-3.8339
X6.7696Y-3.5059
X6.7721Y-3.654
X6.7775Y-3.739
X6.7777Y-4.0449
X6.7785Y-3.5672
X6.7786Y-3.688
X6.7793Y-4.0632
X6.7795Y-3.8976
X6.7806Y-3.7937
X6.7826Y-3.6695
X6.784Y-3.5198
X6.7851Y-3.8499
X6.7861Y-3.61
X6.7915Y-3.6541
X6.7923Y-3.7537
X6.7929Y-3.7004
X6.7961Y-3.9141
X6.7968Y-3.8097
X6.7972Y-3.5059
X6.7995Y-3.6832
X6.8001Y-3.8661
X6.8012Y-4.063
X6.8059Y-3.7158
X6.806Y-3.5672
X6.8067Y-3.6649
X6.8068Y-3.7682
X6.8115Y-3.5198
X6.8125Y-3.8257
X6.8136Y-3.9317
X6.8136Y-3.61
X6.8155Y-3.7008
X6.8159Y-3.8826
X6.821Y-3.654
X6.8216Y-3.6832
X6.8226Y-3.7317
X6.8227Y-3.7841
X6.8247Y-3.5059
X6.8279Y-3.841
X6.8312Y-3.9486
X6.8336Y-3.5672
X6.8341Y-3.897
X6.8365Y-3.6688
X6.8376Y-3.7008
X6.8379Y-3.7479
X6.8383Y-3.7996
X6.8391Y-3.5198
X6.845Y-3.8488
X6.8518Y-3.7318
X6.8523Y-3.5059
X6.8559Y-3.94
X6.8611Y-3.5672
X6.8666Y-3.5198
X6.8672Y-3.5855
X6.8746Y-5.6773
X6.8746Y-5.8978
X6.8746Y-6.1183
X6.8798Y-3.5059
X6.8887Y-3.5672
X6.8899Y-3.6068
X6.8942Y-3.5198
X6.8948Y-3.5855
X6.9074Y-3.5059
X6.9088Y-3.569
X6.9125Y-3.6024
X6.9218Y-3.5198
X6.9223Y-3.5855
X6.9268Y-3.6161
X6.935Y-3.5059
X6.9375Y-4.1304
X6.9389Y-3.8049
X6.9392Y-4.013
X6.9394Y-3.6016
X6.941Y-3.9048
X6.9493Y-3.5198
X6.9503Y-3.5432
X6.952Y-3.6224
X6.9625Y-3.5059
X6.9714Y-3.5672
X6.9769Y-3.5198
X6.9779Y-3.5432
X6.9813Y-3.5838
X6.9908Y-3.5062
X6.9989Y-3.5672
X7.0039Y-3.6061
X7.0044Y-3.5198
X7.005Y-3.5855
X7.0054Y-3.5432
X7.01Y-3.6256
X7.0184Y-3.5062
T2
X4.4787Y-4.128
X4.5572Y-4.136
X4.7747Y-5.749
X4.84Y-5.75
X4.9055Y-5.749
X4.9418Y-5.8239
X4.97Y-5.7488
X5.0365Y-5.749
T3
X5.3022Y-4.1476
X5.3531Y-4.1858
X5.3779Y-4.2606
X5.4045Y-4.2372
X6.1811Y-6.0856
X6.2844Y-2.7657
X6.4754Y-2.4577
X6.6554Y-4.0307
X6.7203Y-4.0583
X6.75Y-5.2018
T4
X4.4082Y-3.6788
X4.4082Y-3.7788
X4.4082Y-3.8788
X4.4082Y-3.9788
X4.4082Y-4.0788
X4.4082Y-4.1788
X4.4082Y-4.2788
X4.4082Y-4.3788
X4.4082Y-4.4788
X4.4082Y-4.5788
X4.4082Y-4.6788
X4.4082Y-4.7788
X4.4082Y-4.8788
X4.4082Y-4.9788
X4.4082Y-5.0788
X4.4082Y-5.1788
X4.4082Y-5.2788
X4.4082Y-5.3788
X4.4082Y-5.4788
X4.4082Y-5.5788
X4.5082Y-3.6788
X4.5082Y-3.7788
X4.5082Y-3.8788
X4.5082Y-3.9788
X4.5082Y-4.0788
X4.5082Y-4.1788
X4.5082Y-4.2788
X4.5082Y-4.3788
X4.5082Y-4.4788
X4.5082Y-4.5788
X4.5082Y-4.6788
X4.5082Y-4.7788
X4.5082Y-4.8788
X4.5082Y-4.9788
X4.5082Y-5.0788
X4.5082Y-5.1788
X4.5082Y-5.2788
X4.5082Y-5.3788
X4.5082Y-5.4788
X4.5082Y-5.5788
X6.8883Y-3.6789
X6.8883Y-3.7789
X6.8883Y-3.8789
X6.8883Y-3.9789
X6.8883Y-4.0789
X6.8883Y-4.1789
X6.8883Y-4.2789
X6.8883Y-4.3789
X6.8883Y-4.4789
X6.8883Y-4.5789
X6.8883Y-4.6789
X6.8883Y-4.7789
X6.8883Y-4.8789
X6.8883Y-4.9789
X6.8883Y-5.0789
X6.8883Y-5.1789
X6.8883Y-5.2789
X6.8883Y-5.3789
X6.8883Y-5.4789
X6.8883Y-5.5789
X6.9883Y-3.6789
X6.9883Y-3.7789
X6.9883Y-3.8789
X6.9883Y-3.9789
X6.9883Y-4.0789
X6.9883Y-4.1789
X6.9883Y-4.2789
X6.9883Y-4.3789
X6.9883Y-4.4789
X6.9883Y-4.5789
X6.9883Y-4.6789
X6.9883Y-4.7789
X6.9883Y-4.8789
X6.9883Y-4.9789
X6.9883Y-5.0789
X6.9883Y-5.1789
X6.9883Y-5.2789
X6.9883Y-5.3789
X6.9883Y-5.4789
X6.9883Y-5.5789
T5
X6.0204Y-6.3922
X6.044Y-6.1993
X6.6149Y-6.1993
X6.6385Y-6.3922
T6
X4.8735Y-2.6293
X4.8735Y-4.5191
X6.1727Y-2.6293
X6.1727Y-4.5191
M30
