%TF.GenerationSoftware,KiCad,Pcbnew,9.0.0*%
%TF.CreationDate,2026-01-09T23:09:40+01:00*%
%TF.ProjectId,DE10-Nano-CAM,44453130-2d4e-4616-9e6f-2d43414d2e6b,v1*%
%TF.SameCoordinates,Original*%
%TF.FileFunction,Copper,L4,Bot*%
%TF.FilePolarity,Positive*%
%FSLAX46Y46*%
G04 Gerber Fmt 4.6, Leading zero omitted, Abs format (unit mm)*
G04 Created by KiCad (PCBNEW 9.0.0) date 2026-01-09 23:09:40*
%MOMM*%
%LPD*%
G01*
G04 APERTURE LIST*
G04 Aperture macros list*
%AMRoundRect*
0 Rectangle with rounded corners*
0 $1 Rounding radius*
0 $2 $3 $4 $5 $6 $7 $8 $9 X,Y pos of 4 corners*
0 Add a 4 corners polygon primitive as box body*
4,1,4,$2,$3,$4,$5,$6,$7,$8,$9,$2,$3,0*
0 Add four circle primitives for the rounded corners*
1,1,$1+$1,$2,$3*
1,1,$1+$1,$4,$5*
1,1,$1+$1,$6,$7*
1,1,$1+$1,$8,$9*
0 Add four rect primitives between the rounded corners*
20,1,$1+$1,$2,$3,$4,$5,0*
20,1,$1+$1,$4,$5,$6,$7,0*
20,1,$1+$1,$6,$7,$8,$9,0*
20,1,$1+$1,$8,$9,$2,$3,0*%
G04 Aperture macros list end*
%TA.AperFunction,ComponentPad*%
%ADD10R,1.700000X1.700000*%
%TD*%
%TA.AperFunction,ComponentPad*%
%ADD11C,1.700000*%
%TD*%
%TA.AperFunction,ComponentPad*%
%ADD12C,4.700000*%
%TD*%
%TA.AperFunction,ComponentPad*%
%ADD13C,1.800000*%
%TD*%
%TA.AperFunction,SMDPad,CuDef*%
%ADD14RoundRect,0.200000X-0.275000X0.200000X-0.275000X-0.200000X0.275000X-0.200000X0.275000X0.200000X0*%
%TD*%
%TA.AperFunction,SMDPad,CuDef*%
%ADD15RoundRect,0.200000X0.275000X-0.200000X0.275000X0.200000X-0.275000X0.200000X-0.275000X-0.200000X0*%
%TD*%
%TA.AperFunction,ViaPad*%
%ADD16C,0.450000*%
%TD*%
%TA.AperFunction,ViaPad*%
%ADD17C,0.700000*%
%TD*%
%TA.AperFunction,ViaPad*%
%ADD18C,0.600000*%
%TD*%
%TA.AperFunction,ViaPad*%
%ADD19C,0.500000*%
%TD*%
%TA.AperFunction,Conductor*%
%ADD20C,0.300000*%
%TD*%
%TA.AperFunction,Conductor*%
%ADD21C,0.170000*%
%TD*%
%TA.AperFunction,Conductor*%
%ADD22C,0.500000*%
%TD*%
G04 APERTURE END LIST*
D10*
%TO.P,U1,1_1*%
%TO.N,unconnected-(U1-Pad1_1)*%
X114508273Y-141700607D03*
D11*
%TO.P,U1,1_2*%
%TO.N,unconnected-(U1-Pad1_2)*%
X111968273Y-141700607D03*
%TO.P,U1,1_3*%
%TO.N,unconnected-(U1-Pad1_3)*%
X114508273Y-139160607D03*
%TO.P,U1,1_4*%
%TO.N,unconnected-(U1-Pad1_4)*%
X111968273Y-139160607D03*
%TO.P,U1,1_5*%
%TO.N,/DATA_0*%
X114508273Y-136620607D03*
%TO.P,U1,1_6*%
%TO.N,unconnected-(U1-Pad1_6)*%
X111968273Y-136620607D03*
%TO.P,U1,1_7*%
%TO.N,/DATA_1*%
X114508273Y-134080607D03*
%TO.P,U1,1_8*%
%TO.N,/DATA_2*%
X111968273Y-134080607D03*
%TO.P,U1,1_9*%
%TO.N,unconnected-(U1-Pad1_9)*%
X114508273Y-131540607D03*
%TO.P,U1,1_10*%
%TO.N,unconnected-(U1-Pad1_10)*%
X111968273Y-131540607D03*
%TO.P,U1,1_11*%
%TO.N,/+5V_DE10*%
X114508273Y-129000607D03*
%TO.P,U1,1_12*%
%TO.N,GND*%
X111968273Y-129000607D03*
%TO.P,U1,1_13*%
%TO.N,/DATA_3*%
X114508273Y-126460607D03*
%TO.P,U1,1_14*%
%TO.N,/DATA_4*%
X111968273Y-126460607D03*
%TO.P,U1,1_15*%
%TO.N,/DATA_5*%
X114508273Y-123920607D03*
%TO.P,U1,1_16*%
%TO.N,/DATA_6*%
X111968273Y-123920607D03*
%TO.P,U1,1_17*%
%TO.N,/DATA_7*%
X114508273Y-121380607D03*
%TO.P,U1,1_18*%
%TO.N,/DATA_8*%
X111968273Y-121380607D03*
%TO.P,U1,1_19*%
%TO.N,/DATA_9*%
X114508273Y-118840607D03*
%TO.P,U1,1_20*%
%TO.N,/DATA_10*%
X111968273Y-118840607D03*
%TO.P,U1,1_21*%
%TO.N,/DATA_11*%
X114508273Y-116300607D03*
%TO.P,U1,1_22*%
%TO.N,/DATA_12*%
X111968273Y-116300607D03*
%TO.P,U1,1_23*%
%TO.N,/DATA_13*%
X114508273Y-113760607D03*
%TO.P,U1,1_24*%
%TO.N,/DATA_20*%
X111968273Y-113760607D03*
%TO.P,U1,1_25*%
%TO.N,/DATA_19*%
X114508273Y-111220607D03*
%TO.P,U1,1_26*%
%TO.N,/DATA_18*%
X111968273Y-111220607D03*
%TO.P,U1,1_27*%
%TO.N,/RESET_N*%
X114508273Y-108680607D03*
%TO.P,U1,1_28*%
%TO.N,GND*%
X111968273Y-108680607D03*
%TO.P,U1,1_29*%
%TO.N,/+3.3V_DE10*%
X114508273Y-106140607D03*
%TO.P,U1,1_30*%
%TO.N,GND*%
X111968273Y-106140607D03*
%TO.P,U1,1_31*%
%TO.N,/DE10_SCL0*%
X114508273Y-103600607D03*
%TO.P,U1,1_32*%
%TO.N,/DE10_SDA0*%
X111968273Y-103600607D03*
%TO.P,U1,1_33*%
%TO.N,/DATA_17*%
X114508273Y-101060607D03*
%TO.P,U1,1_34*%
%TO.N,/DATA_16*%
X111968273Y-101060607D03*
%TO.P,U1,1_35*%
%TO.N,/DATA_15*%
X114508273Y-98520607D03*
%TO.P,U1,1_36*%
%TO.N,/DATA_14*%
X111968273Y-98520607D03*
%TO.P,U1,1_37*%
%TO.N,/DATA_33*%
X114508273Y-95980607D03*
%TO.P,U1,1_38*%
%TO.N,/DATA_32*%
X111968273Y-95980607D03*
%TO.P,U1,1_39*%
%TO.N,/DATA_31*%
X114508273Y-93440607D03*
%TO.P,U1,1_40*%
%TO.N,/DATA_30*%
X111968273Y-93440607D03*
D10*
%TO.P,U1,7_1*%
%TO.N,/ENABLE*%
X174962191Y-93443665D03*
D11*
%TO.P,U1,7_2*%
%TO.N,/PIXEL_CLK*%
X177502191Y-93443665D03*
%TO.P,U1,7_4*%
%TO.N,/DATA_22*%
X177502191Y-95983665D03*
%TO.P,U1,7_9*%
%TO.N,/DATA_29*%
X174962191Y-103603665D03*
%TO.P,U1,7_11*%
%TO.N,/+5V_DE10*%
X174962191Y-106143665D03*
%TO.P,U1,7_12*%
%TO.N,GND*%
X177502191Y-106143665D03*
%TO.P,U1,7_13*%
%TO.N,unconnected-(U1-Pad7_13)*%
X174962191Y-108683665D03*
%TO.P,U1,7_14*%
%TO.N,unconnected-(U1-Pad7_14)*%
X177502191Y-108683665D03*
%TO.P,U1,7_15*%
%TO.N,/VSYNC*%
X174962191Y-111223665D03*
%TO.P,U1,7_16*%
%TO.N,/HSYNC*%
X177502191Y-111223665D03*
%TO.P,U1,7_17*%
%TO.N,unconnected-(U1-Pad7_17)*%
X174962191Y-113763665D03*
%TO.P,U1,7_18*%
%TO.N,unconnected-(U1-Pad7_18)*%
X177502191Y-113763665D03*
%TO.P,U1,7_19*%
%TO.N,unconnected-(U1-Pad7_19)*%
X174962191Y-116303665D03*
%TO.P,U1,7_20*%
%TO.N,unconnected-(U1-Pad7_20)*%
X177502191Y-116303665D03*
%TO.P,U1,7_21*%
%TO.N,unconnected-(U1-Pad7_21)*%
X174962191Y-118843665D03*
%TO.P,U1,7_22*%
%TO.N,unconnected-(U1-Pad7_22)*%
X177502191Y-118843665D03*
%TO.P,U1,7_23*%
%TO.N,unconnected-(U1-Pad7_23)*%
X174962191Y-121383665D03*
%TO.P,U1,7_24*%
%TO.N,unconnected-(U1-Pad7_24)*%
X177502191Y-121383665D03*
%TO.P,U1,7_25*%
%TO.N,unconnected-(U1-Pad7_25)*%
X174962191Y-123923665D03*
%TO.P,U1,7_26*%
%TO.N,unconnected-(U1-Pad7_26)*%
X177502191Y-123923665D03*
%TO.P,U1,7_27*%
%TO.N,unconnected-(U1-Pad7_27)*%
X174962191Y-126463665D03*
%TO.P,U1,7_28*%
%TO.N,unconnected-(U1-Pad7_28)*%
X177502191Y-126463665D03*
%TO.P,U1,7_29*%
%TO.N,/+3.3V_DE10*%
X174962191Y-129003665D03*
%TO.P,U1,7_30*%
%TO.N,GND*%
X177502191Y-129003665D03*
%TO.P,U1,7_31*%
%TO.N,unconnected-(U1-Pad7_31)*%
X174962191Y-131543665D03*
%TO.P,U1,7_32*%
%TO.N,unconnected-(U1-Pad7_32)*%
X177502191Y-131543665D03*
%TO.P,U1,7_33*%
%TO.N,unconnected-(U1-Pad7_33)*%
X174962191Y-134083665D03*
%TO.P,U1,7_34*%
%TO.N,unconnected-(U1-Pad7_34)*%
X177502191Y-134083665D03*
%TO.P,U1,7_35*%
%TO.N,unconnected-(U1-Pad7_35)*%
X174962191Y-136623665D03*
%TO.P,U1,7_36*%
%TO.N,unconnected-(U1-Pad7_36)*%
X177502191Y-136623665D03*
%TO.P,U1,7_37*%
%TO.N,unconnected-(U1-Pad7_37)*%
X174962191Y-139163665D03*
%TO.P,U1,7_38*%
%TO.N,unconnected-(U1-Pad7_38)*%
X177502191Y-139163665D03*
%TO.P,U1,7_39*%
%TO.N,unconnected-(U1-Pad7_39)*%
X174962191Y-141703665D03*
%TO.P,U1,7_40*%
%TO.N,unconnected-(U1-Pad7_40)*%
X177502191Y-141703665D03*
%TO.P,U1,7_10*%
%TO.N,/DATA_28*%
X177502191Y-103603665D03*
%TO.P,U1,7_6*%
%TO.N,/DATA_24*%
X177502191Y-98523665D03*
%TO.P,U1,7_3*%
%TO.N,/DATA_23*%
X174962191Y-95983665D03*
%TO.P,U1,7_7*%
%TO.N,/DATA_27*%
X174962191Y-101063665D03*
%TO.P,U1,7_8*%
%TO.N,/DATA_26*%
X177502191Y-101063665D03*
%TO.P,U1,7_5*%
%TO.N,/DATA_25*%
X174962191Y-98523665D03*
%TD*%
D12*
%TO.P,H1,1,1*%
%TO.N,GND*%
X123786731Y-114785477D03*
%TD*%
D13*
%TO.P,J4,SH,SH*%
%TO.N,GND*%
X168617819Y-162363124D03*
X168017819Y-157463124D03*
X153517819Y-157463124D03*
X152917819Y-162363124D03*
%TD*%
D12*
%TO.P,H3,1,1*%
%TO.N,GND*%
X156786731Y-114785477D03*
%TD*%
%TO.P,H4,1,1*%
%TO.N,GND*%
X156786731Y-66785477D03*
%TD*%
%TO.P,H2,1,1*%
%TO.N,GND*%
X123786731Y-66785477D03*
%TD*%
D14*
%TO.P,R6,2,2*%
%TO.N,+3.3V*%
X117775000Y-105227000D03*
%TO.P,R6,1,1*%
%TO.N,/DE10_SDA0*%
X117775000Y-103577000D03*
%TD*%
D15*
%TO.P,R5,2,2*%
%TO.N,+3.3V*%
X117775000Y-100275000D03*
%TO.P,R5,1,1*%
%TO.N,/DE10_SCL0*%
X117775000Y-101925000D03*
%TD*%
D16*
%TO.N,GND*%
X123281672Y-147142290D03*
X121205916Y-147118634D03*
X125440222Y-146905736D03*
X162237102Y-66087019D03*
X154855141Y-83366982D03*
X160244124Y-81171470D03*
X154934978Y-80798899D03*
X160590083Y-78044530D03*
X165027771Y-155160783D03*
X163492802Y-155176553D03*
X162007772Y-155210722D03*
X160517486Y-155150269D03*
X124346980Y-138451026D03*
X122398124Y-131126692D03*
X120107401Y-117980469D03*
X119799882Y-116762219D03*
X119421396Y-115455262D03*
X119261723Y-114030027D03*
X118936462Y-112823605D03*
X118516580Y-111794598D03*
X122577589Y-74263345D03*
X117911195Y-72154036D03*
X118447383Y-72942547D03*
X118818201Y-73981714D03*
X131976802Y-119891251D03*
X121170417Y-125831419D03*
X122334570Y-137337426D03*
X121855549Y-139293427D03*
X127217919Y-139160366D03*
X125421591Y-139532938D03*
X125434898Y-141488939D03*
X162964653Y-144930169D03*
X160868938Y-144211638D03*
X160908856Y-148502865D03*
X164880735Y-148622620D03*
X164840817Y-144431189D03*
X165000491Y-137066247D03*
X164601307Y-131537551D03*
X160848978Y-139740779D03*
X160769142Y-130280121D03*
X122702419Y-76144097D03*
X126499101Y-77155363D03*
X126499101Y-75842492D03*
X119437982Y-78459364D03*
X119437982Y-76348125D03*
X129599728Y-87027673D03*
X129175608Y-92148708D03*
X128270000Y-117094000D03*
X127508000Y-114046000D03*
X127508000Y-112776000D03*
X174615981Y-155403913D03*
X174615981Y-149803913D03*
X174615981Y-144203913D03*
X169018000Y-160998000D03*
X169018000Y-155398000D03*
X169018000Y-149798000D03*
X169018000Y-144198000D03*
X169018000Y-138598000D03*
X169018000Y-132998000D03*
X169018000Y-127398000D03*
X169018000Y-88198000D03*
X169018000Y-82598000D03*
X169018000Y-76998000D03*
X169018000Y-71398000D03*
X169018000Y-65798000D03*
X163418000Y-160998000D03*
X162814000Y-149860000D03*
X162814000Y-140462000D03*
X162814000Y-131318000D03*
X163418000Y-127398000D03*
X163418000Y-88198000D03*
X157818000Y-160998000D03*
X158242000Y-154686000D03*
X157818000Y-149798000D03*
X157818000Y-144198000D03*
X157818000Y-138598000D03*
X157818000Y-132998000D03*
X157988000Y-127254000D03*
X157818000Y-121798000D03*
X157818000Y-110598000D03*
X155956000Y-77978000D03*
X157818000Y-71398000D03*
X152218000Y-160998000D03*
X152218000Y-155398000D03*
X152218000Y-149798000D03*
X152218000Y-144198000D03*
X152218000Y-138598000D03*
X152218000Y-132998000D03*
X152218000Y-127398000D03*
X152654000Y-121666000D03*
X152218000Y-116198000D03*
X152218000Y-110598000D03*
X151384000Y-87630000D03*
X151638000Y-82550000D03*
X151384000Y-76998000D03*
X151638000Y-71398000D03*
X151638000Y-65798000D03*
X146618000Y-160998000D03*
X146618000Y-155398000D03*
X146618000Y-149798000D03*
X146618000Y-144198000D03*
X146618000Y-138598000D03*
X146618000Y-132998000D03*
X146618000Y-127398000D03*
X146618000Y-121798000D03*
X147066000Y-116198000D03*
X146618000Y-110598000D03*
X146618000Y-88198000D03*
X146618000Y-82598000D03*
X146618000Y-76998000D03*
X146618000Y-71398000D03*
X146618000Y-65798000D03*
X141018000Y-160998000D03*
X141018000Y-155398000D03*
X141018000Y-149798000D03*
X141018000Y-144198000D03*
X141018000Y-138598000D03*
X141478000Y-133096000D03*
X141478000Y-127398000D03*
X141478000Y-121798000D03*
X141018000Y-116198000D03*
X141478000Y-110598000D03*
X141018000Y-88198000D03*
X141018000Y-82598000D03*
X141018000Y-76998000D03*
X141018000Y-71398000D03*
X141018000Y-65798000D03*
X135418000Y-160998000D03*
X135418000Y-155398000D03*
X135418000Y-149798000D03*
X135418000Y-144198000D03*
X135382000Y-138938000D03*
X135418000Y-116198000D03*
X135418000Y-110598000D03*
X135418000Y-99398000D03*
X135418000Y-93798000D03*
X135418000Y-88198000D03*
X135418000Y-82598000D03*
X135418000Y-76998000D03*
X135418000Y-71398000D03*
X135418000Y-65798000D03*
X129818000Y-155398000D03*
X129540000Y-138598000D03*
X129818000Y-65798000D03*
X124218000Y-160998000D03*
X124218000Y-155398000D03*
X126238000Y-110744000D03*
X118618000Y-160998000D03*
X118618000Y-155398000D03*
X118618000Y-149798000D03*
X118618000Y-144198000D03*
X118618000Y-138598000D03*
X118618000Y-127398000D03*
X118618000Y-65798000D03*
X169018000Y-60198000D03*
X163418000Y-60198000D03*
X157818000Y-60198000D03*
X152218000Y-60198000D03*
X146618000Y-60198000D03*
X141018000Y-60198000D03*
X135418000Y-60198000D03*
X129818000Y-60198000D03*
X118618000Y-60198000D03*
X124136516Y-103719225D03*
X123650984Y-96508172D03*
X122849263Y-98236999D03*
X123622004Y-98359218D03*
X122682000Y-100330000D03*
X157008797Y-101858304D03*
X176247905Y-96643903D03*
X176301129Y-99180938D03*
X176256776Y-101930871D03*
X176212422Y-104911444D03*
X159241530Y-106199883D03*
X158998086Y-106674086D03*
X144573561Y-106953936D03*
X141773561Y-106953936D03*
X142473561Y-106953936D03*
X143873561Y-106953936D03*
X143173561Y-106953936D03*
X145106085Y-106964449D03*
X150006085Y-106964449D03*
X154906085Y-106964449D03*
X157706085Y-106964449D03*
X146506085Y-106964449D03*
X151406085Y-106964449D03*
X153506085Y-106964449D03*
X149306085Y-106964449D03*
X154206085Y-106964449D03*
X156306085Y-106964449D03*
X147206085Y-106964449D03*
X157006085Y-106964449D03*
X152806085Y-106964449D03*
X148606085Y-106964449D03*
X152106085Y-106964449D03*
X147906085Y-106964449D03*
X150706085Y-106964449D03*
X145806085Y-106964449D03*
X155606085Y-106964449D03*
X158406085Y-106964449D03*
X142318168Y-89762240D03*
X142432502Y-90329968D03*
X142846470Y-89896287D03*
X140304506Y-104679540D03*
X141704506Y-104679540D03*
X142404506Y-104679540D03*
X143104506Y-104679540D03*
X141004506Y-104679540D03*
X148024456Y-102412739D03*
X149147062Y-102412739D03*
X147262812Y-102437270D03*
X141596925Y-102333888D03*
X148617884Y-102412739D03*
X148314854Y-102785892D03*
X146377086Y-102766693D03*
X149587146Y-102639200D03*
X144939682Y-102777130D03*
X142652290Y-102688448D03*
X147631900Y-102747494D03*
X143352290Y-102688448D03*
X144208994Y-102803414D03*
X149096831Y-102861314D03*
X145630067Y-102796405D03*
X146852290Y-102688448D03*
X148667033Y-103078761D03*
X140267033Y-103078761D03*
X147267033Y-103078761D03*
X149484662Y-103145178D03*
X146691990Y-103143265D03*
X141667033Y-103078761D03*
X149984030Y-103041340D03*
X143767033Y-103078761D03*
X144583975Y-103138093D03*
X140967033Y-103078761D03*
X142367033Y-103078761D03*
X146050000Y-103124000D03*
X143067033Y-103078761D03*
X147967033Y-103078761D03*
X145277865Y-103136341D03*
X149137183Y-103477945D03*
X140737183Y-103477945D03*
X147737183Y-103477945D03*
X149837183Y-103477945D03*
X147037183Y-103477945D03*
X142137183Y-103477945D03*
X150368000Y-103477945D03*
X144237183Y-103477945D03*
X140037183Y-103477945D03*
X144937183Y-103477945D03*
X141437183Y-103477945D03*
X142837183Y-103477945D03*
X146337183Y-103477945D03*
X143537183Y-103477945D03*
X148437183Y-103477945D03*
X145637183Y-103477945D03*
X150216798Y-103904182D03*
X149500884Y-103859387D03*
X148800884Y-103859387D03*
X147400884Y-103859387D03*
X146700884Y-103859387D03*
X145300884Y-103859387D03*
X141800884Y-103859387D03*
X140400884Y-103859387D03*
X143900884Y-103859387D03*
X141100884Y-103859387D03*
X144600884Y-103859387D03*
X142500884Y-103859387D03*
X150801453Y-103850879D03*
X143200884Y-103859387D03*
X148100884Y-103859387D03*
X146000884Y-103859387D03*
X150523798Y-104252067D03*
X149847430Y-104208261D03*
X149162302Y-104210014D03*
X147744733Y-104178473D03*
X147064861Y-104178473D03*
X145650798Y-104201252D03*
X142191197Y-104249700D03*
X140791197Y-104249700D03*
X144233230Y-104190739D03*
X141491197Y-104249700D03*
X144984944Y-104210014D03*
X142891197Y-104249700D03*
X140091197Y-104249700D03*
X151130000Y-104249700D03*
X143551605Y-104192491D03*
X148442128Y-104192491D03*
X146376228Y-104217023D03*
X140169071Y-102303305D03*
X140169071Y-101603305D03*
X140169071Y-100903305D03*
X140169071Y-99503305D03*
X140169071Y-98803305D03*
X140169071Y-97403305D03*
X140169071Y-93903305D03*
X140169071Y-92503305D03*
X140169071Y-96003305D03*
X140169071Y-90403305D03*
X140169071Y-93203305D03*
X140169071Y-96703305D03*
X140169071Y-91103305D03*
X140169071Y-94603305D03*
X140169071Y-91803305D03*
X140169071Y-95303305D03*
X140169071Y-100203305D03*
X140169071Y-98103305D03*
X140555441Y-101960302D03*
X140555441Y-101260302D03*
X140555441Y-100560302D03*
X140555441Y-99160302D03*
X140555441Y-98460302D03*
X140555441Y-97060302D03*
X140555441Y-93560302D03*
X140555441Y-92160302D03*
X140555441Y-95660302D03*
X140555441Y-90060302D03*
X140555441Y-92860302D03*
X140555441Y-96360302D03*
X140555441Y-90760302D03*
X140555441Y-94260302D03*
X140555441Y-91460302D03*
X140555441Y-102660302D03*
X140555441Y-94960302D03*
X140555441Y-99860302D03*
X140555441Y-97760302D03*
X140910271Y-101625185D03*
X140910271Y-100925185D03*
X140910271Y-100225185D03*
X140910271Y-98825185D03*
X140910271Y-98125185D03*
X140910271Y-96725185D03*
X140910271Y-93225185D03*
X140910271Y-91825185D03*
X140910271Y-95325185D03*
X140880440Y-89720408D03*
X140910271Y-92525185D03*
X140910271Y-96025185D03*
X140910271Y-90425185D03*
X140910271Y-93925185D03*
X140910271Y-91125185D03*
X140910271Y-102325185D03*
X140910271Y-94625185D03*
X140910271Y-99525185D03*
X140910271Y-97425185D03*
X141600219Y-101652783D03*
X141600219Y-100952783D03*
X141600219Y-100252783D03*
X141600219Y-98852783D03*
X141600219Y-98152783D03*
X141600219Y-96752783D03*
X141600219Y-93252783D03*
X141600219Y-91852783D03*
X141600219Y-95352783D03*
X141600219Y-89752783D03*
X141600219Y-92552783D03*
X141600219Y-96052783D03*
X141600219Y-90452783D03*
X141572621Y-93936777D03*
X141600219Y-91152783D03*
X141600219Y-94652783D03*
X141600219Y-99552783D03*
X141600219Y-97452783D03*
X141262000Y-90108000D03*
X141843401Y-88707210D03*
X143943401Y-88707210D03*
X143243401Y-88707210D03*
X141143401Y-88707210D03*
X140078982Y-89882193D03*
X142543401Y-88707210D03*
X145343401Y-88707210D03*
X146043401Y-88707210D03*
X146743401Y-88707210D03*
X148143401Y-88707210D03*
X148843401Y-88707210D03*
X149543401Y-88707210D03*
X150243401Y-88707210D03*
X150943401Y-88707210D03*
X151643401Y-88707210D03*
X144643401Y-88707210D03*
X147443401Y-88707210D03*
X152343401Y-88707210D03*
X142233714Y-89070911D03*
X140833714Y-89070911D03*
X144333714Y-89070911D03*
X143633714Y-89070911D03*
X141533714Y-89070911D03*
X142933714Y-89070911D03*
X145733714Y-89070911D03*
X146433714Y-89070911D03*
X147133714Y-89070911D03*
X148533714Y-89070911D03*
X149233714Y-89070911D03*
X149933714Y-89070911D03*
X150633714Y-89070911D03*
X151333714Y-89070911D03*
X152033714Y-89070911D03*
X145033714Y-89070911D03*
X147833714Y-89070911D03*
X152755857Y-89001478D03*
X156677622Y-90513364D03*
X157219066Y-90504603D03*
X157930479Y-90478319D03*
X156714554Y-88602042D03*
X157222554Y-88602042D03*
X157896554Y-88602042D03*
X156954460Y-89016010D03*
X157628460Y-89016010D03*
X141262000Y-102708000D03*
X141262000Y-102008000D03*
X141262000Y-101308000D03*
X141262000Y-100608000D03*
X141262000Y-99908000D03*
X141262000Y-99208000D03*
X141262000Y-98508000D03*
X141262000Y-97808000D03*
X141262000Y-97108000D03*
X141262000Y-96408000D03*
X141262000Y-95708000D03*
X141262000Y-95008000D03*
X141262000Y-94308000D03*
X141262000Y-93608000D03*
X141262000Y-92908000D03*
X141262000Y-92208000D03*
X141262000Y-91508000D03*
X141262000Y-90808000D03*
X141962000Y-102708000D03*
X141962000Y-102008000D03*
X141962000Y-99908000D03*
X141962000Y-99208000D03*
X141962000Y-98508000D03*
X141962000Y-97808000D03*
X141962000Y-97108000D03*
X141962000Y-96408000D03*
X141962000Y-95708000D03*
X141962000Y-95008000D03*
X141878528Y-94279558D03*
X141962000Y-93608000D03*
X141962000Y-92908000D03*
X141962000Y-92208000D03*
X141962000Y-90808000D03*
X141962000Y-90108000D03*
X140462090Y-89479842D03*
X141227822Y-89408000D03*
X141933977Y-89422017D03*
X142631372Y-89422017D03*
X143277951Y-89448301D03*
X143998125Y-89400991D03*
X144681501Y-89406247D03*
X145406932Y-89400991D03*
X146090308Y-89402743D03*
X146787703Y-89383468D03*
X147479841Y-89395734D03*
X148182492Y-89411504D03*
X148844000Y-89408000D03*
X149606000Y-89408000D03*
X150234373Y-89457615D03*
X150980831Y-89457615D03*
X151686987Y-89455310D03*
X152462000Y-89408000D03*
X178267164Y-89057604D03*
X177567164Y-89057604D03*
X177938157Y-89997904D03*
X177238157Y-89997904D03*
X176538157Y-89997904D03*
X178054000Y-92091401D03*
X176580966Y-92009176D03*
X175939644Y-91847970D03*
X175578681Y-91501025D03*
X175003517Y-91612381D03*
X177898353Y-91594273D03*
X177926918Y-91071265D03*
X175826918Y-91071265D03*
X175126918Y-91071265D03*
X174426918Y-91071265D03*
X177325368Y-91028297D03*
X177912521Y-89403563D03*
X177212521Y-89403563D03*
X176512521Y-89403563D03*
X175812521Y-89403563D03*
X175112521Y-89403563D03*
X174412521Y-89403563D03*
X173012521Y-89403563D03*
X171735692Y-89457615D03*
X170212521Y-89403563D03*
X169512521Y-89403563D03*
X173712521Y-89403563D03*
X172312521Y-89403563D03*
X171395756Y-88237919D03*
X170211732Y-88667291D03*
X169511732Y-88667291D03*
X168811732Y-88667291D03*
X171611732Y-88667291D03*
X176848031Y-89048733D03*
X176148031Y-89048733D03*
X175448031Y-89048733D03*
X174748031Y-89048733D03*
X174048031Y-89048733D03*
X173348031Y-89048733D03*
X171948031Y-89048733D03*
X169848031Y-89048733D03*
X169148031Y-89048733D03*
X168448031Y-89048733D03*
X172648031Y-89048733D03*
X171386994Y-89115450D03*
X168092598Y-88658420D03*
X167392598Y-88658420D03*
X166692598Y-88658420D03*
X165992598Y-88658420D03*
X165292598Y-88658420D03*
X164592598Y-88658420D03*
X163192598Y-88658420D03*
X161792598Y-88658420D03*
X161092598Y-88658420D03*
X160392598Y-88658420D03*
X159692598Y-88658420D03*
X163892598Y-88658420D03*
X162492598Y-88658420D03*
X167728898Y-89048734D03*
X167028898Y-89048734D03*
X166328898Y-89048734D03*
X165628898Y-89048734D03*
X164928898Y-89048734D03*
X164228898Y-89048734D03*
X162828898Y-89048734D03*
X161428898Y-89048734D03*
X160728898Y-89048734D03*
X160053876Y-89031342D03*
X163528898Y-89048734D03*
X162128898Y-89048734D03*
X168786000Y-89408000D03*
X168086000Y-89408000D03*
X167386000Y-89408000D03*
X166686000Y-89408000D03*
X165986000Y-89408000D03*
X165286000Y-89408000D03*
X163886000Y-89408000D03*
X162486000Y-89408000D03*
X161786000Y-89408000D03*
X161086000Y-89408000D03*
X160386000Y-89408000D03*
X164586000Y-89408000D03*
X163186000Y-89408000D03*
X177772646Y-90606149D03*
X177072646Y-90606149D03*
X175482383Y-90651716D03*
X174972646Y-90606149D03*
X174272646Y-90606149D03*
X172872646Y-90606149D03*
X171472646Y-90606149D03*
X170072646Y-90606149D03*
X169372646Y-90606149D03*
X173572646Y-90606149D03*
X172172646Y-90606149D03*
X168777703Y-90615020D03*
X168077703Y-90615020D03*
X167377703Y-90615020D03*
X166677703Y-90615020D03*
X165977703Y-90615020D03*
X165277703Y-90615020D03*
X163877703Y-90615020D03*
X162477703Y-90615020D03*
X161777703Y-90615020D03*
X161077703Y-90615020D03*
X160377703Y-90615020D03*
X164577703Y-90615020D03*
X163177703Y-90615020D03*
X172176879Y-93675336D03*
X144063383Y-90477614D03*
X144827310Y-90488032D03*
X145565882Y-90480147D03*
X146297563Y-90485404D03*
X147059791Y-90477519D03*
X147908686Y-90564028D03*
X148399315Y-90772545D03*
X148886440Y-90776049D03*
X149357795Y-90781306D03*
X149827397Y-90797076D03*
X150295247Y-90807590D03*
X150757840Y-90811094D03*
X151223938Y-90821608D03*
X151688284Y-90819856D03*
X152147372Y-90821608D03*
X152615222Y-90821608D03*
X153077816Y-90823360D03*
X153542161Y-90818103D03*
X154014088Y-90827817D03*
X150188762Y-92811630D03*
X152057780Y-92818563D03*
X170688000Y-96184520D03*
X161568834Y-97761087D03*
X160278304Y-99619346D03*
X149092743Y-91890175D03*
X149601281Y-91886671D03*
X150116442Y-91886671D03*
X150621089Y-91888423D03*
X151160781Y-91886671D03*
X151656667Y-91890175D03*
X152161314Y-91881414D03*
X152693998Y-91883166D03*
X153175866Y-91890175D03*
X153664743Y-91888423D03*
X154134345Y-91886671D03*
X154617965Y-91890175D03*
X150646683Y-92840000D03*
X151111612Y-92832657D03*
X151575912Y-92820315D03*
X152553666Y-92816811D03*
X153037286Y-92811554D03*
X153517402Y-92813306D03*
X154002775Y-92823820D03*
X154486395Y-92836085D03*
X154973216Y-92839666D03*
X151139375Y-93759806D03*
X151647965Y-93771634D03*
X152203865Y-93775576D03*
X152661202Y-93787404D03*
X153118388Y-93778956D03*
X153579424Y-93792196D03*
X154044353Y-93812444D03*
X154511435Y-93825802D03*
X154963363Y-93761823D03*
X154952460Y-94774708D03*
X154490256Y-94793907D03*
X154913581Y-95831232D03*
X154448360Y-95831232D03*
X153931885Y-95827289D03*
X152138021Y-94762799D03*
X152587473Y-94798282D03*
X153084235Y-94814052D03*
X153569169Y-94806167D03*
X154033504Y-94805589D03*
X153399639Y-95831232D03*
X152180396Y-102751723D03*
X152654000Y-102870000D03*
X153162000Y-102870000D03*
X154686000Y-102870000D03*
X154178000Y-102870000D03*
X153670000Y-102870000D03*
X143637030Y-104690053D03*
X144337030Y-104690053D03*
X145037030Y-104690053D03*
X145737030Y-104690053D03*
X146437030Y-104690053D03*
X147137030Y-104690053D03*
X147837030Y-104690053D03*
X148537030Y-104690053D03*
X149237030Y-104690053D03*
X149937030Y-104690053D03*
X150637030Y-104690053D03*
X151337030Y-104690053D03*
X152037030Y-104690053D03*
X152737030Y-104690053D03*
X153437030Y-104690053D03*
X154137030Y-104690053D03*
X154837030Y-104690053D03*
X155537030Y-104690053D03*
X156237030Y-104690053D03*
X156937030Y-104690053D03*
X158123132Y-103494540D03*
X172153451Y-102740257D03*
X172750588Y-103200222D03*
X172195137Y-103205000D03*
X171654060Y-103194966D03*
X174140406Y-100076000D03*
X173254291Y-92811817D03*
X174034572Y-94788037D03*
X173647014Y-93188363D03*
X172504914Y-92813382D03*
X173674486Y-93999526D03*
X173269447Y-93553519D03*
X172890043Y-93088485D03*
X172010415Y-92811817D03*
X173112672Y-93999526D03*
X172707633Y-93553519D03*
X172278077Y-93204998D03*
X173294686Y-94785128D03*
X171648829Y-93147156D03*
X173683685Y-95197782D03*
X172868890Y-94380359D03*
X172539594Y-93990741D03*
X172892035Y-95712715D03*
X171234245Y-94058758D03*
X173296203Y-96116772D03*
X173692800Y-96510093D03*
X172523461Y-95344031D03*
X171685660Y-94506340D03*
X172149225Y-94969906D03*
X172638975Y-96765618D03*
X171015139Y-95140105D03*
X173038488Y-97173015D03*
X173429660Y-97562056D03*
X172226321Y-96360848D03*
X171379985Y-95511885D03*
X171807992Y-95933339D03*
X172342559Y-97786352D03*
X173585779Y-98984889D03*
X172722628Y-98198121D03*
X173124769Y-98618661D03*
X171916763Y-97381583D03*
X171068658Y-96562281D03*
X171450000Y-96935576D03*
X173064817Y-99864277D03*
X172619743Y-99419203D03*
X172199203Y-98998663D03*
X171797063Y-98596523D03*
X171421205Y-98220665D03*
X170585270Y-97384730D03*
X170177986Y-96977446D03*
X169593224Y-97760211D03*
X166932767Y-92830905D03*
X170551158Y-92836161D03*
X163354678Y-92839666D03*
X162750153Y-92815134D03*
X168749848Y-92839666D03*
X160980383Y-92820391D03*
X167526779Y-92823896D03*
X160377610Y-92815134D03*
X163967965Y-92832657D03*
X165138466Y-92839666D03*
X168162845Y-92830905D03*
X165742991Y-92834409D03*
X161572642Y-92813382D03*
X166393075Y-92836161D03*
X164561977Y-92813382D03*
X169944881Y-92832657D03*
X162161398Y-92834409D03*
X169338603Y-92836161D03*
X171117134Y-92818639D03*
X165157162Y-93801270D03*
X168157162Y-93801270D03*
X162757162Y-93801270D03*
X163957162Y-93801270D03*
X170557162Y-93801270D03*
X161557162Y-93801270D03*
X164557162Y-93801270D03*
X167557162Y-93801270D03*
X166357162Y-93801270D03*
X169957162Y-93801270D03*
X166957162Y-93801270D03*
X168757162Y-93801270D03*
X165757162Y-93801270D03*
X169357162Y-93801270D03*
X162157162Y-93801270D03*
X163357162Y-93801270D03*
X160357162Y-93801270D03*
X160957162Y-93801270D03*
%TO.N,/DATA_26*%
X142678070Y-96275000D03*
%TO.N,/DATA_24*%
X142653070Y-94275000D03*
D17*
%TO.N,+5V*%
X169048000Y-102379000D03*
X134675000Y-105350000D03*
D16*
X119850000Y-100775000D03*
X119850000Y-100275000D03*
D17*
X136599356Y-108219567D03*
D16*
X119850000Y-99699997D03*
X119850000Y-99124994D03*
X119850000Y-98549991D03*
D17*
X157000000Y-154575000D03*
D16*
X119850000Y-97974988D03*
%TO.N,GND*%
X170040334Y-102476923D03*
X168242332Y-101701153D03*
X167542332Y-101701153D03*
X166842332Y-101701153D03*
X166142332Y-101701153D03*
X165442332Y-101701153D03*
X164742332Y-101701153D03*
X164042332Y-101701153D03*
X163342332Y-101701153D03*
X162642332Y-101701153D03*
X173512774Y-100295065D03*
X168970166Y-100678944D03*
X168270166Y-100678944D03*
X167570166Y-100678944D03*
X166870166Y-100678944D03*
X166170166Y-100678944D03*
X165470166Y-100678944D03*
X164770166Y-100678944D03*
X164070166Y-100678944D03*
X163370166Y-100678944D03*
X162670166Y-100678944D03*
X169683662Y-99603611D03*
X168983662Y-99603611D03*
X168283662Y-99603611D03*
X167583662Y-99603611D03*
X166883662Y-99603611D03*
X166183662Y-99603611D03*
X165483662Y-99603611D03*
X164783662Y-99603611D03*
X164083662Y-99603611D03*
X163383662Y-99603611D03*
X162683662Y-99603611D03*
X169652846Y-98681052D03*
X168952846Y-98681052D03*
X168252846Y-98681052D03*
X167552846Y-98681052D03*
X166852846Y-98681052D03*
X166152846Y-98681052D03*
X165452846Y-98681052D03*
X164752846Y-98681052D03*
X164052846Y-98681052D03*
X163352846Y-98681052D03*
X162652846Y-98681052D03*
X170966270Y-97765730D03*
X168963359Y-97760000D03*
X168263359Y-97760000D03*
X167563359Y-97760000D03*
X166863359Y-97760000D03*
X166163359Y-97760000D03*
X165463359Y-97760000D03*
X164763359Y-97760000D03*
X164063359Y-97760000D03*
X163363359Y-97760000D03*
X162663359Y-97760000D03*
X169578849Y-96763486D03*
X168878849Y-96763486D03*
X168178849Y-96763486D03*
X167478849Y-96763486D03*
X166778849Y-96763486D03*
X166078849Y-96763486D03*
X165378849Y-96763486D03*
X164678849Y-96763486D03*
X163978849Y-96763486D03*
X163278849Y-96763486D03*
X162578849Y-96763486D03*
X161878849Y-96763486D03*
X161178849Y-96763486D03*
X160478849Y-96763486D03*
X170239716Y-95801005D03*
X169539716Y-95801005D03*
X168839716Y-95801005D03*
X168139716Y-95801005D03*
X167439716Y-95801005D03*
X166739716Y-95801005D03*
X166039716Y-95801005D03*
X165339716Y-95801005D03*
X164639716Y-95801005D03*
X163939716Y-95801005D03*
X163239716Y-95801005D03*
X162539716Y-95801005D03*
X161839716Y-95801005D03*
X161139716Y-95801005D03*
X160439716Y-95801005D03*
X170564323Y-94820261D03*
X169964323Y-94820261D03*
X169364323Y-94820261D03*
X168764323Y-94820261D03*
X168164323Y-94820261D03*
X167564323Y-94820261D03*
X166964323Y-94820261D03*
X166364323Y-94820261D03*
X165764323Y-94820261D03*
X165164323Y-94820261D03*
X164564323Y-94820261D03*
X163964323Y-94820261D03*
X163364323Y-94820261D03*
X162764323Y-94820261D03*
X162164323Y-94820261D03*
X161564323Y-94820261D03*
X160964323Y-94820261D03*
X160364323Y-94820261D03*
X156718000Y-89408000D03*
X153162000Y-89408000D03*
X159778914Y-89408000D03*
X154500337Y-90826865D03*
X154717458Y-96791407D03*
X161942332Y-101701153D03*
X161970166Y-100678944D03*
X161983662Y-99603611D03*
X161952846Y-98681052D03*
X162095882Y-97760000D03*
X159778849Y-96763486D03*
X159739716Y-95801005D03*
X159764323Y-94820261D03*
X159757162Y-93801270D03*
X159760819Y-92813382D03*
X159804835Y-90604767D03*
X173066000Y-91694000D03*
X172366000Y-91694000D03*
X171666000Y-91694000D03*
X170941048Y-91787669D03*
X170266000Y-91694000D03*
X169566000Y-91694000D03*
X168866000Y-91694000D03*
X168166000Y-91694000D03*
X167466000Y-91694000D03*
X166766000Y-91694000D03*
X166066000Y-91694000D03*
X165366000Y-91694000D03*
X164666000Y-91694000D03*
X163966000Y-91694000D03*
X163266000Y-91694000D03*
X162566000Y-91694000D03*
X161866000Y-91694000D03*
X161166000Y-91694000D03*
X160466000Y-91694000D03*
D18*
%TO.N,+3.3V*%
X121278148Y-146023649D03*
D16*
X126575000Y-99775000D03*
D17*
X164475000Y-62425000D03*
D16*
X126625000Y-100275000D03*
D18*
X125522373Y-147927073D03*
D17*
X159625000Y-70250000D03*
D19*
X115753303Y-105053303D03*
D18*
X124599109Y-146025403D03*
X122936000Y-146050000D03*
X126238000Y-146018722D03*
X127927434Y-146024348D03*
D17*
X171450000Y-132125000D03*
D16*
%TO.N,GND*%
X116650000Y-130050000D03*
X157925000Y-97760000D03*
X162825000Y-153175000D03*
X156567230Y-102365580D03*
X157225000Y-92825000D03*
X156675000Y-95825000D03*
X157350000Y-99603611D03*
X156700000Y-97760000D03*
X157900000Y-98681052D03*
X157850000Y-92825000D03*
X156725000Y-94775000D03*
X157900000Y-95825000D03*
X120825000Y-94575000D03*
X157325000Y-94775000D03*
X157275000Y-91750000D03*
X157911280Y-100678621D03*
X157275000Y-95825000D03*
X157550000Y-104075000D03*
X125593753Y-99293051D03*
X157975000Y-96825000D03*
X157950000Y-93775000D03*
X125825000Y-84175000D03*
X157275000Y-98681052D03*
X126550000Y-101750000D03*
X157300000Y-97760000D03*
X161000000Y-153150000D03*
X156718000Y-100678944D03*
X125150000Y-103975000D03*
X156718000Y-98681052D03*
X157900000Y-91750000D03*
X157350000Y-96825000D03*
X122750000Y-101675000D03*
X156750000Y-99603611D03*
X157900000Y-89408000D03*
X113175000Y-90075000D03*
X157292737Y-100680373D03*
X129100000Y-146650000D03*
X157950000Y-94775000D03*
X156675000Y-91750000D03*
X157988000Y-99603611D03*
X156625000Y-92825000D03*
X164725000Y-153200000D03*
X156725000Y-93775000D03*
X157226000Y-89408000D03*
X156750000Y-96825000D03*
X157325000Y-93775000D03*
%TO.N,/RESET_N*%
X123750000Y-97500000D03*
%TO.N,/HSYNC*%
X142650000Y-100300000D03*
%TO.N,/PIXEL_CLK*%
X142650000Y-91000000D03*
%TO.N,/VSYNC*%
X142678070Y-101350000D03*
%TO.N,/SD_DAT3*%
X120800000Y-95500000D03*
X123140875Y-81662875D03*
%TO.N,/SD_CMD*%
X125600000Y-80746000D03*
X124073125Y-95623125D03*
%TO.N,/SD_DAT2*%
X120875000Y-96750000D03*
X124425000Y-81147000D03*
%TO.N,/ENABLE*%
X157575000Y-91125000D03*
X170875000Y-91125000D03*
%TO.N,/DATA_23*%
X142678070Y-93275000D03*
%TO.N,/DATA_27*%
X142678070Y-97275000D03*
%TO.N,/DATA_22*%
X142678070Y-92275000D03*
%TO.N,/DATA_25*%
X142678070Y-95275000D03*
%TO.N,/DATA_29*%
X142678070Y-99300000D03*
%TO.N,/DATA_28*%
X142678070Y-98275000D03*
D17*
%TO.N,/+5V_DE10*%
X170696000Y-103080000D03*
%TO.N,/+3.3V_DE10*%
X135969020Y-106319019D03*
X137275000Y-107625000D03*
D18*
%TO.N,/DE10_SDA0*%
X113760000Y-104850000D03*
D16*
X120350000Y-104575003D03*
%TO.N,/DE10_SCL0*%
X120325000Y-103600000D03*
%TO.N,GND*%
X159766000Y-91694000D03*
X173863359Y-97760000D03*
X124218000Y-60198000D03*
X176260305Y-91481750D03*
%TD*%
D20*
%TO.N,+3.3V*%
X115753303Y-105053303D02*
X115921887Y-105221887D01*
X115921887Y-105221887D02*
X116567887Y-105221887D01*
X116567887Y-105221887D02*
X116573000Y-105227000D01*
X116573000Y-105227000D02*
X117775000Y-105227000D01*
D21*
%TO.N,/DATA_22*%
X176174252Y-92307665D02*
X176299294Y-92432706D01*
X173736000Y-92351817D02*
X173780152Y-92307665D01*
X173780152Y-92307665D02*
X176174252Y-92307665D01*
X142754887Y-92351817D02*
X142678070Y-92275000D01*
X173736000Y-92351817D02*
X142754887Y-92351817D01*
X176366191Y-92499604D02*
X176299294Y-92432706D01*
X177502191Y-95983665D02*
X176366191Y-94847665D01*
X176366191Y-94847665D02*
X176366191Y-92499604D01*
D22*
%TO.N,/+3.3V_DE10*%
X114683965Y-106316299D02*
X114508273Y-106140607D01*
X135518356Y-106316299D02*
X114683965Y-106316299D01*
X135521076Y-106319019D02*
X135518356Y-106316299D01*
X135969020Y-106319019D02*
X135521076Y-106319019D01*
%TO.N,/+5V_DE10*%
X114673833Y-129000607D02*
X114508273Y-129000607D01*
X137502440Y-106172000D02*
X114673833Y-129000607D01*
X158178000Y-106172000D02*
X137502440Y-106172000D01*
X161718926Y-103179000D02*
X161718245Y-103178319D01*
X161171681Y-103178319D02*
X158178000Y-106172000D01*
X170335000Y-103179000D02*
X161718926Y-103179000D01*
X170434000Y-103080000D02*
X170335000Y-103179000D01*
X161718245Y-103178319D02*
X161171681Y-103178319D01*
X170696000Y-103080000D02*
X170434000Y-103080000D01*
D21*
%TO.N,/PIXEL_CLK*%
X177502191Y-91927191D02*
X177502191Y-93443665D01*
X175542615Y-89967615D02*
X177502191Y-91927191D01*
X143682385Y-89967615D02*
X175542615Y-89967615D01*
X142650000Y-91000000D02*
X143682385Y-89967615D01*
D22*
%TO.N,+5V*%
X160646681Y-102477319D02*
X157714000Y-105410000D01*
X164195576Y-102478000D02*
X164194895Y-102477319D01*
X134735000Y-105410000D02*
X134675000Y-105350000D01*
X168949000Y-102478000D02*
X164195576Y-102478000D01*
X169048000Y-102379000D02*
X168949000Y-102478000D01*
X164194895Y-102477319D02*
X160646681Y-102477319D01*
X157714000Y-105410000D02*
X134735000Y-105410000D01*
D21*
%TO.N,/DATA_24*%
X142678070Y-94300000D02*
X142653070Y-94275000D01*
X170825193Y-94300000D02*
X142678070Y-94300000D01*
X176228526Y-97250000D02*
X173775193Y-97250000D01*
X173775193Y-97250000D02*
X170825193Y-94300000D01*
X177502191Y-98523665D02*
X176228526Y-97250000D01*
%TO.N,/DATA_25*%
X170515540Y-95300000D02*
X142703070Y-95300000D01*
X142703070Y-95300000D02*
X142678070Y-95275000D01*
X173739205Y-98523665D02*
X170515540Y-95300000D01*
X174962191Y-98523665D02*
X173739205Y-98523665D01*
%TO.N,/DATA_26*%
X170365461Y-96516446D02*
X170149015Y-96300000D01*
X170638986Y-96786493D02*
X170368939Y-96516446D01*
X170638986Y-96789971D02*
X170638986Y-96786493D01*
X171046270Y-97197255D02*
X171046270Y-97193777D01*
X171153745Y-97304730D02*
X171046270Y-97197255D01*
X171608680Y-97759665D02*
X171427270Y-97578255D01*
X171612158Y-97759665D02*
X171608680Y-97759665D01*
X171882205Y-98033190D02*
X171882205Y-98029712D01*
X170776223Y-96923730D02*
X170772745Y-96923730D01*
X171984538Y-98135523D02*
X171882205Y-98033190D01*
X171988016Y-98135523D02*
X171984538Y-98135523D01*
X171046270Y-97193777D02*
X170776223Y-96923730D01*
X172258063Y-98409048D02*
X172258063Y-98405570D01*
X171882205Y-98029712D02*
X171612158Y-97759665D01*
X172386678Y-98537663D02*
X172258063Y-98409048D01*
X171157223Y-97304730D02*
X171153745Y-97304730D01*
X172390156Y-98537663D02*
X172386678Y-98537663D01*
X172660203Y-98807710D02*
X172390156Y-98537663D01*
X170772745Y-96923730D02*
X170638986Y-96789971D01*
X172660203Y-98811188D02*
X172660203Y-98807710D01*
X142703070Y-96300000D02*
X142678070Y-96275000D01*
X172807218Y-98958203D02*
X172660203Y-98811188D01*
X171427270Y-97578255D02*
X171427270Y-97574777D01*
X173080743Y-99228250D02*
X172810696Y-98958203D01*
X173080743Y-99231728D02*
X173080743Y-99228250D01*
X171427270Y-97574777D02*
X171157223Y-97304730D01*
X173252292Y-99403277D02*
X173080743Y-99231728D01*
X170368939Y-96516446D02*
X170365461Y-96516446D01*
X172810696Y-98958203D02*
X172807218Y-98958203D01*
X173255770Y-99403277D02*
X173252292Y-99403277D01*
X173462158Y-99609665D02*
X173255770Y-99403277D01*
X172258063Y-98405570D02*
X171988016Y-98135523D01*
X176048191Y-99609665D02*
X173462158Y-99609665D01*
X170149015Y-96300000D02*
X142703070Y-96300000D01*
X177502191Y-101063665D02*
X176048191Y-99609665D01*
%TO.N,/DATA_23*%
X171129859Y-93300000D02*
X142703070Y-93300000D01*
X173813524Y-95983665D02*
X171129859Y-93300000D01*
X174962191Y-95983665D02*
X173813524Y-95983665D01*
X142703070Y-93300000D02*
X142678070Y-93275000D01*
%TO.N,/DATA_27*%
X173613665Y-101063665D02*
X169850000Y-97300000D01*
X174962191Y-101063665D02*
X173613665Y-101063665D01*
X169850000Y-97300000D02*
X142703070Y-97300000D01*
X142703070Y-97300000D02*
X142678070Y-97275000D01*
D22*
%TO.N,+5V*%
X134675000Y-105350000D02*
X124475000Y-105350000D01*
X124475000Y-105350000D02*
X119900000Y-100775000D01*
X119900000Y-100775000D02*
X119850000Y-100775000D01*
X119850000Y-100275000D02*
X119850000Y-100775000D01*
X119850000Y-99699997D02*
X119850000Y-100275000D01*
X119850000Y-99699997D02*
X119850000Y-99124994D01*
D20*
X157000000Y-128620211D02*
X136599356Y-108219567D01*
D22*
X119850000Y-99124994D02*
X119850000Y-98549991D01*
D20*
X157000000Y-154575000D02*
X157000000Y-128620211D01*
D22*
X119850000Y-98549991D02*
X119850000Y-97974988D01*
D21*
%TO.N,/HSYNC*%
X171169269Y-100168944D02*
X142781056Y-100168944D01*
X173825000Y-109500000D02*
X173825000Y-102824675D01*
X173825000Y-102824675D02*
X171169269Y-100168944D01*
X176228526Y-109950000D02*
X174275000Y-109950000D01*
X142781056Y-100168944D02*
X142650000Y-100300000D01*
X177502191Y-111223665D02*
X176228526Y-109950000D01*
X174275000Y-109950000D02*
X173825000Y-109500000D01*
%TO.N,/DATA_29*%
X170668611Y-99143611D02*
X142834459Y-99143611D01*
X142834459Y-99143611D02*
X142678070Y-99300000D01*
X174962191Y-103437191D02*
X170668611Y-99143611D01*
X174962191Y-103603665D02*
X174962191Y-103437191D01*
%TO.N,/VSYNC*%
X142836917Y-101191153D02*
X142678070Y-101350000D01*
X171666805Y-101191153D02*
X142836917Y-101191153D01*
X173454000Y-102978348D02*
X171666805Y-101191153D01*
X173454000Y-109715474D02*
X173454000Y-102978348D01*
X174962191Y-111223665D02*
X173454000Y-109715474D01*
D20*
%TO.N,+3.3V*%
X118439588Y-100275000D02*
X121300000Y-103135412D01*
X120523000Y-105227000D02*
X117775000Y-105227000D01*
X117775000Y-100275000D02*
X118439588Y-100275000D01*
X121300000Y-104450000D02*
X120523000Y-105227000D01*
X121300000Y-103135412D02*
X121300000Y-104450000D01*
D21*
%TO.N,/RESET_N*%
X114508273Y-108680607D02*
X113175000Y-107347334D01*
X113825000Y-97350000D02*
X123600000Y-97350000D01*
X123600000Y-97350000D02*
X123750000Y-97500000D01*
X113175000Y-98000000D02*
X113825000Y-97350000D01*
X113175000Y-107347334D02*
X113175000Y-98000000D01*
%TO.N,/SD_DAT3*%
X123140875Y-81662875D02*
X122254000Y-82549749D01*
X122254000Y-82549749D02*
X122254000Y-94046000D01*
X122254000Y-94046000D02*
X120800000Y-95500000D01*
%TO.N,/SD_CMD*%
X125325000Y-81025000D02*
X122996000Y-83354000D01*
X125325000Y-81021000D02*
X125325000Y-81025000D01*
X123998125Y-95623125D02*
X124073125Y-95623125D01*
X122996000Y-94621000D02*
X123998125Y-95623125D01*
X122996000Y-83354000D02*
X122996000Y-94621000D01*
X125600000Y-80746000D02*
X125325000Y-81021000D01*
%TO.N,/SD_DAT2*%
X124378000Y-81147000D02*
X124425000Y-81147000D01*
X121100000Y-96750000D02*
X122625000Y-95225000D01*
X122625000Y-95225000D02*
X122625000Y-82900000D01*
X122625000Y-82900000D02*
X124378000Y-81147000D01*
X120875000Y-96750000D02*
X121100000Y-96750000D01*
%TO.N,/ENABLE*%
X157575000Y-91125000D02*
X170875000Y-91125000D01*
%TO.N,/DATA_29*%
X174940856Y-103582330D02*
X174940856Y-103625000D01*
X174940856Y-103625000D02*
X174962191Y-103603665D01*
D22*
%TO.N,/+3.3V_DE10*%
X158653665Y-129003665D02*
X174962191Y-129003665D01*
X137275000Y-107625000D02*
X158653665Y-129003665D01*
D21*
%TO.N,/DE10_SDA0*%
X113760000Y-104850000D02*
X113785000Y-104875000D01*
X119875003Y-104575003D02*
X118877000Y-103577000D01*
X118877000Y-103577000D02*
X117775000Y-103577000D01*
X120350000Y-104575003D02*
X119875003Y-104575003D01*
X116473000Y-103577000D02*
X117775000Y-103577000D01*
X113785000Y-104875000D02*
X115175000Y-104875000D01*
X115175000Y-104875000D02*
X116473000Y-103577000D01*
%TO.N,/DE10_SCL0*%
X119950000Y-103600000D02*
X118275000Y-101925000D01*
X117775000Y-101925000D02*
X116183880Y-101925000D01*
X116183880Y-101925000D02*
X114508273Y-103600607D01*
X118275000Y-101925000D02*
X117775000Y-101925000D01*
X120325000Y-103600000D02*
X119950000Y-103600000D01*
%TO.N,/DATA_28*%
X170317090Y-98221052D02*
X142732018Y-98221052D01*
X174617665Y-102517665D02*
X173484665Y-101384665D01*
X173484665Y-101384665D02*
X173480703Y-101384665D01*
X176416191Y-102517665D02*
X174617665Y-102517665D01*
X173480703Y-101384665D02*
X170317090Y-98221052D01*
X142732018Y-98221052D02*
X142678070Y-98275000D01*
X177502191Y-103603665D02*
X176416191Y-102517665D01*
%TD*%
%TA.AperFunction,Conductor*%
%TO.N,GND*%
G36*
X161456194Y-103704132D02*
G01*
X161512127Y-103746004D01*
X161536544Y-103811468D01*
X161532635Y-103852404D01*
X161529500Y-103864108D01*
X161529500Y-125995892D01*
X161546554Y-126059539D01*
X161563608Y-126123187D01*
X161596554Y-126180250D01*
X161629500Y-126237314D01*
X161722686Y-126330500D01*
X161836814Y-126396392D01*
X161964108Y-126430500D01*
X161964110Y-126430500D01*
X172915890Y-126430500D01*
X172915892Y-126430500D01*
X173043186Y-126396392D01*
X173076680Y-126377054D01*
X173861691Y-126377054D01*
X173861691Y-126550275D01*
X173888304Y-126718308D01*
X173888789Y-126721366D01*
X173942318Y-126886110D01*
X174020959Y-127040453D01*
X174122777Y-127180593D01*
X174245263Y-127303079D01*
X174385403Y-127404897D01*
X174539746Y-127483538D01*
X174704490Y-127537067D01*
X174875580Y-127564165D01*
X174875581Y-127564165D01*
X175048801Y-127564165D01*
X175048802Y-127564165D01*
X175219892Y-127537067D01*
X175384636Y-127483538D01*
X175538979Y-127404897D01*
X175679119Y-127303079D01*
X175801605Y-127180593D01*
X175903423Y-127040453D01*
X175982064Y-126886110D01*
X176035593Y-126721366D01*
X176062691Y-126550276D01*
X176062691Y-126377054D01*
X176035593Y-126205964D01*
X175982064Y-126041220D01*
X175903423Y-125886877D01*
X175801605Y-125746737D01*
X175679119Y-125624251D01*
X175538979Y-125522433D01*
X175384636Y-125443792D01*
X175219892Y-125390263D01*
X175219890Y-125390262D01*
X175219889Y-125390262D01*
X175088462Y-125369446D01*
X175048802Y-125363165D01*
X174875580Y-125363165D01*
X174835919Y-125369446D01*
X174704493Y-125390262D01*
X174704490Y-125390263D01*
X174549158Y-125440734D01*
X174539743Y-125443793D01*
X174385402Y-125522433D01*
X174305447Y-125580524D01*
X174245263Y-125624251D01*
X174245261Y-125624253D01*
X174245260Y-125624253D01*
X174122779Y-125746734D01*
X174122779Y-125746735D01*
X174122777Y-125746737D01*
X174079050Y-125806921D01*
X174020959Y-125886876D01*
X173942319Y-126041217D01*
X173888788Y-126205967D01*
X173861691Y-126377054D01*
X173076680Y-126377054D01*
X173157314Y-126330500D01*
X173250500Y-126237314D01*
X173316392Y-126123186D01*
X173350500Y-125995892D01*
X173350500Y-123837054D01*
X173861691Y-123837054D01*
X173861691Y-124010275D01*
X173888304Y-124178308D01*
X173888789Y-124181366D01*
X173942318Y-124346110D01*
X174020959Y-124500453D01*
X174122777Y-124640593D01*
X174245263Y-124763079D01*
X174385403Y-124864897D01*
X174539746Y-124943538D01*
X174704490Y-124997067D01*
X174875580Y-125024165D01*
X174875581Y-125024165D01*
X175048801Y-125024165D01*
X175048802Y-125024165D01*
X175219892Y-124997067D01*
X175384636Y-124943538D01*
X175538979Y-124864897D01*
X175679119Y-124763079D01*
X175801605Y-124640593D01*
X175903423Y-124500453D01*
X175982064Y-124346110D01*
X176035593Y-124181366D01*
X176062691Y-124010276D01*
X176062691Y-123837054D01*
X176035593Y-123665964D01*
X175982064Y-123501220D01*
X175903423Y-123346877D01*
X175801605Y-123206737D01*
X175679119Y-123084251D01*
X175538979Y-122982433D01*
X175384636Y-122903792D01*
X175219892Y-122850263D01*
X175219890Y-122850262D01*
X175219889Y-122850262D01*
X175088462Y-122829446D01*
X175048802Y-122823165D01*
X174875580Y-122823165D01*
X174835919Y-122829446D01*
X174704493Y-122850262D01*
X174704490Y-122850263D01*
X174549158Y-122900734D01*
X174539743Y-122903793D01*
X174385402Y-122982433D01*
X174305447Y-123040524D01*
X174245263Y-123084251D01*
X174245261Y-123084253D01*
X174245260Y-123084253D01*
X174122779Y-123206734D01*
X174122779Y-123206735D01*
X174122777Y-123206737D01*
X174079050Y-123266921D01*
X174020959Y-123346876D01*
X173942319Y-123501217D01*
X173888788Y-123665967D01*
X173861691Y-123837054D01*
X173350500Y-123837054D01*
X173350500Y-121297054D01*
X173861691Y-121297054D01*
X173861691Y-121470275D01*
X173888304Y-121638308D01*
X173888789Y-121641366D01*
X173942318Y-121806110D01*
X174020959Y-121960453D01*
X174122777Y-122100593D01*
X174245263Y-122223079D01*
X174385403Y-122324897D01*
X174539746Y-122403538D01*
X174704490Y-122457067D01*
X174875580Y-122484165D01*
X174875581Y-122484165D01*
X175048801Y-122484165D01*
X175048802Y-122484165D01*
X175219892Y-122457067D01*
X175384636Y-122403538D01*
X175538979Y-122324897D01*
X175679119Y-122223079D01*
X175801605Y-122100593D01*
X175903423Y-121960453D01*
X175982064Y-121806110D01*
X176035593Y-121641366D01*
X176062691Y-121470276D01*
X176062691Y-121297054D01*
X176035593Y-121125964D01*
X175982064Y-120961220D01*
X175903423Y-120806877D01*
X175801605Y-120666737D01*
X175679119Y-120544251D01*
X175538979Y-120442433D01*
X175384636Y-120363792D01*
X175219892Y-120310263D01*
X175219890Y-120310262D01*
X175219889Y-120310262D01*
X175088462Y-120289446D01*
X175048802Y-120283165D01*
X174875580Y-120283165D01*
X174835919Y-120289446D01*
X174704493Y-120310262D01*
X174704490Y-120310263D01*
X174549158Y-120360734D01*
X174539743Y-120363793D01*
X174385402Y-120442433D01*
X174305447Y-120500524D01*
X174245263Y-120544251D01*
X174245261Y-120544253D01*
X174245260Y-120544253D01*
X174122779Y-120666734D01*
X174122779Y-120666735D01*
X174122777Y-120666737D01*
X174102540Y-120694591D01*
X174020959Y-120806876D01*
X173942319Y-120961217D01*
X173888788Y-121125967D01*
X173861691Y-121297054D01*
X173350500Y-121297054D01*
X173350500Y-118757054D01*
X173861691Y-118757054D01*
X173861691Y-118930275D01*
X173888304Y-119098308D01*
X173888789Y-119101366D01*
X173942318Y-119266110D01*
X174020959Y-119420453D01*
X174122777Y-119560593D01*
X174245263Y-119683079D01*
X174385403Y-119784897D01*
X174539746Y-119863538D01*
X174704490Y-119917067D01*
X174875580Y-119944165D01*
X174875581Y-119944165D01*
X175048801Y-119944165D01*
X175048802Y-119944165D01*
X175219892Y-119917067D01*
X175384636Y-119863538D01*
X175538979Y-119784897D01*
X175679119Y-119683079D01*
X175801605Y-119560593D01*
X175903423Y-119420453D01*
X175982064Y-119266110D01*
X176035593Y-119101366D01*
X176062691Y-118930276D01*
X176062691Y-118757054D01*
X176035593Y-118585964D01*
X175982064Y-118421220D01*
X175903423Y-118266877D01*
X175801605Y-118126737D01*
X175679119Y-118004251D01*
X175538979Y-117902433D01*
X175384636Y-117823792D01*
X175219892Y-117770263D01*
X175219890Y-117770262D01*
X175219889Y-117770262D01*
X175088462Y-117749446D01*
X175048802Y-117743165D01*
X174875580Y-117743165D01*
X174835919Y-117749446D01*
X174704493Y-117770262D01*
X174704490Y-117770263D01*
X174549158Y-117820734D01*
X174539743Y-117823793D01*
X174385402Y-117902433D01*
X174305447Y-117960524D01*
X174245263Y-118004251D01*
X174245261Y-118004253D01*
X174245260Y-118004253D01*
X174122779Y-118126734D01*
X174122779Y-118126735D01*
X174122777Y-118126737D01*
X174079050Y-118186921D01*
X174020959Y-118266876D01*
X173942319Y-118421217D01*
X173888788Y-118585967D01*
X173861691Y-118757054D01*
X173350500Y-118757054D01*
X173350500Y-116217054D01*
X173861691Y-116217054D01*
X173861691Y-116390275D01*
X173888304Y-116558308D01*
X173888789Y-116561366D01*
X173942318Y-116726110D01*
X174020959Y-116880453D01*
X174122777Y-117020593D01*
X174245263Y-117143079D01*
X174385403Y-117244897D01*
X174539746Y-117323538D01*
X174704490Y-117377067D01*
X174875580Y-117404165D01*
X174875581Y-117404165D01*
X175048801Y-117404165D01*
X175048802Y-117404165D01*
X175219892Y-117377067D01*
X175384636Y-117323538D01*
X175538979Y-117244897D01*
X175679119Y-117143079D01*
X175801605Y-117020593D01*
X175903423Y-116880453D01*
X175982064Y-116726110D01*
X176035593Y-116561366D01*
X176062691Y-116390276D01*
X176062691Y-116217054D01*
X176035593Y-116045964D01*
X175982064Y-115881220D01*
X175903423Y-115726877D01*
X175801605Y-115586737D01*
X175679119Y-115464251D01*
X175538979Y-115362433D01*
X175384636Y-115283792D01*
X175219892Y-115230263D01*
X175219890Y-115230262D01*
X175219889Y-115230262D01*
X175088462Y-115209446D01*
X175048802Y-115203165D01*
X174875580Y-115203165D01*
X174835919Y-115209446D01*
X174704493Y-115230262D01*
X174704490Y-115230263D01*
X174549158Y-115280734D01*
X174539743Y-115283793D01*
X174385402Y-115362433D01*
X174305447Y-115420524D01*
X174245263Y-115464251D01*
X174245261Y-115464253D01*
X174245260Y-115464253D01*
X174122779Y-115586734D01*
X174122779Y-115586735D01*
X174122777Y-115586737D01*
X174079050Y-115646921D01*
X174020959Y-115726876D01*
X173942319Y-115881217D01*
X173888788Y-116045967D01*
X173861691Y-116217054D01*
X173350500Y-116217054D01*
X173350500Y-113677054D01*
X173861691Y-113677054D01*
X173861691Y-113850275D01*
X173888304Y-114018308D01*
X173888789Y-114021366D01*
X173942318Y-114186110D01*
X174020959Y-114340453D01*
X174122777Y-114480593D01*
X174245263Y-114603079D01*
X174385403Y-114704897D01*
X174539746Y-114783538D01*
X174704490Y-114837067D01*
X174875580Y-114864165D01*
X174875581Y-114864165D01*
X175048801Y-114864165D01*
X175048802Y-114864165D01*
X175219892Y-114837067D01*
X175384636Y-114783538D01*
X175538979Y-114704897D01*
X175679119Y-114603079D01*
X175801605Y-114480593D01*
X175903423Y-114340453D01*
X175982064Y-114186110D01*
X176035593Y-114021366D01*
X176062691Y-113850276D01*
X176062691Y-113677054D01*
X176035593Y-113505964D01*
X175982064Y-113341220D01*
X175903423Y-113186877D01*
X175801605Y-113046737D01*
X175679119Y-112924251D01*
X175538979Y-112822433D01*
X175384636Y-112743792D01*
X175219892Y-112690263D01*
X175219890Y-112690262D01*
X175219889Y-112690262D01*
X175088462Y-112669446D01*
X175048802Y-112663165D01*
X174875580Y-112663165D01*
X174835919Y-112669446D01*
X174704493Y-112690262D01*
X174704490Y-112690263D01*
X174549158Y-112740734D01*
X174539743Y-112743793D01*
X174385402Y-112822433D01*
X174305447Y-112880524D01*
X174245263Y-112924251D01*
X174245261Y-112924253D01*
X174245260Y-112924253D01*
X174122779Y-113046734D01*
X174122779Y-113046735D01*
X174122777Y-113046737D01*
X174079050Y-113106921D01*
X174020959Y-113186876D01*
X173942319Y-113341217D01*
X173888788Y-113505967D01*
X173861691Y-113677054D01*
X173350500Y-113677054D01*
X173350500Y-110385804D01*
X173370185Y-110318765D01*
X173422989Y-110273010D01*
X173492147Y-110263066D01*
X173555703Y-110292091D01*
X173562176Y-110298118D01*
X173741801Y-110477744D01*
X173920117Y-110656060D01*
X173953602Y-110717383D01*
X173948618Y-110787075D01*
X173942926Y-110800026D01*
X173942321Y-110801211D01*
X173942317Y-110801222D01*
X173888788Y-110965967D01*
X173861691Y-111137054D01*
X173861691Y-111310275D01*
X173888304Y-111478308D01*
X173888789Y-111481366D01*
X173942318Y-111646110D01*
X174020959Y-111800453D01*
X174122777Y-111940593D01*
X174245263Y-112063079D01*
X174385403Y-112164897D01*
X174539746Y-112243538D01*
X174704490Y-112297067D01*
X174875580Y-112324165D01*
X174875581Y-112324165D01*
X175048801Y-112324165D01*
X175048802Y-112324165D01*
X175219892Y-112297067D01*
X175384636Y-112243538D01*
X175538979Y-112164897D01*
X175679119Y-112063079D01*
X175801605Y-111940593D01*
X175903423Y-111800453D01*
X175982064Y-111646110D01*
X176035593Y-111481366D01*
X176062691Y-111310276D01*
X176062691Y-111137054D01*
X176035593Y-110965964D01*
X175982064Y-110801220D01*
X175903423Y-110646877D01*
X175801605Y-110506737D01*
X175792049Y-110497181D01*
X175781436Y-110477744D01*
X175766936Y-110461011D01*
X175765019Y-110447679D01*
X175758564Y-110435858D01*
X175760143Y-110413771D01*
X175756992Y-110391853D01*
X175762587Y-110379601D01*
X175763548Y-110366166D01*
X175776818Y-110348439D01*
X175786017Y-110328297D01*
X175797348Y-110321014D01*
X175805420Y-110310233D01*
X175826165Y-110302495D01*
X175844795Y-110290523D01*
X175866713Y-110287371D01*
X175870884Y-110285816D01*
X175879730Y-110285500D01*
X176038195Y-110285500D01*
X176105234Y-110305185D01*
X176125876Y-110321819D01*
X176460117Y-110656060D01*
X176493602Y-110717383D01*
X176488618Y-110787075D01*
X176482926Y-110800026D01*
X176482321Y-110801211D01*
X176482317Y-110801222D01*
X176428788Y-110965967D01*
X176401691Y-111137054D01*
X176401691Y-111310275D01*
X176428304Y-111478308D01*
X176428789Y-111481366D01*
X176482318Y-111646110D01*
X176560959Y-111800453D01*
X176662777Y-111940593D01*
X176785263Y-112063079D01*
X176925403Y-112164897D01*
X177079746Y-112243538D01*
X177244490Y-112297067D01*
X177415580Y-112324165D01*
X177415581Y-112324165D01*
X177588801Y-112324165D01*
X177588802Y-112324165D01*
X177759892Y-112297067D01*
X177924636Y-112243538D01*
X178078979Y-112164897D01*
X178219119Y-112063079D01*
X178317819Y-111964379D01*
X178379142Y-111930894D01*
X178448834Y-111935878D01*
X178504767Y-111977750D01*
X178529184Y-112043214D01*
X178529500Y-112052060D01*
X178529500Y-112935270D01*
X178509815Y-113002309D01*
X178457011Y-113048064D01*
X178387853Y-113058008D01*
X178324297Y-113028983D01*
X178317819Y-113022951D01*
X178219121Y-112924253D01*
X178219119Y-112924251D01*
X178078979Y-112822433D01*
X177924636Y-112743792D01*
X177759892Y-112690263D01*
X177759890Y-112690262D01*
X177759889Y-112690262D01*
X177628462Y-112669446D01*
X177588802Y-112663165D01*
X177415580Y-112663165D01*
X177375919Y-112669446D01*
X177244493Y-112690262D01*
X177244490Y-112690263D01*
X177089158Y-112740734D01*
X177079743Y-112743793D01*
X176925402Y-112822433D01*
X176845447Y-112880524D01*
X176785263Y-112924251D01*
X176785261Y-112924253D01*
X176785260Y-112924253D01*
X176662779Y-113046734D01*
X176662779Y-113046735D01*
X176662777Y-113046737D01*
X176619050Y-113106921D01*
X176560959Y-113186876D01*
X176482319Y-113341217D01*
X176428788Y-113505967D01*
X176401691Y-113677054D01*
X176401691Y-113850275D01*
X176428304Y-114018308D01*
X176428789Y-114021366D01*
X176482318Y-114186110D01*
X176560959Y-114340453D01*
X176662777Y-114480593D01*
X176785263Y-114603079D01*
X176925403Y-114704897D01*
X177079746Y-114783538D01*
X177244490Y-114837067D01*
X177415580Y-114864165D01*
X177415581Y-114864165D01*
X177588801Y-114864165D01*
X177588802Y-114864165D01*
X177759892Y-114837067D01*
X177924636Y-114783538D01*
X178078979Y-114704897D01*
X178219119Y-114603079D01*
X178317819Y-114504379D01*
X178379142Y-114470894D01*
X178448834Y-114475878D01*
X178504767Y-114517750D01*
X178529184Y-114583214D01*
X178529500Y-114592060D01*
X178529500Y-115475270D01*
X178509815Y-115542309D01*
X178457011Y-115588064D01*
X178387853Y-115598008D01*
X178324297Y-115568983D01*
X178317819Y-115562951D01*
X178219121Y-115464253D01*
X178219119Y-115464251D01*
X178078979Y-115362433D01*
X177924636Y-115283792D01*
X177759892Y-115230263D01*
X177759890Y-115230262D01*
X177759889Y-115230262D01*
X177628462Y-115209446D01*
X177588802Y-115203165D01*
X177415580Y-115203165D01*
X177375919Y-115209446D01*
X177244493Y-115230262D01*
X177244490Y-115230263D01*
X177089158Y-115280734D01*
X177079743Y-115283793D01*
X176925402Y-115362433D01*
X176845447Y-115420524D01*
X176785263Y-115464251D01*
X176785261Y-115464253D01*
X176785260Y-115464253D01*
X176662779Y-115586734D01*
X176662779Y-115586735D01*
X176662777Y-115586737D01*
X176619050Y-115646921D01*
X176560959Y-115726876D01*
X176482319Y-115881217D01*
X176428788Y-116045967D01*
X176401691Y-116217054D01*
X176401691Y-116390275D01*
X176428304Y-116558308D01*
X176428789Y-116561366D01*
X176482318Y-116726110D01*
X176560959Y-116880453D01*
X176662777Y-117020593D01*
X176785263Y-117143079D01*
X176925403Y-117244897D01*
X177079746Y-117323538D01*
X177244490Y-117377067D01*
X177415580Y-117404165D01*
X177415581Y-117404165D01*
X177588801Y-117404165D01*
X177588802Y-117404165D01*
X177759892Y-117377067D01*
X177924636Y-117323538D01*
X178078979Y-117244897D01*
X178219119Y-117143079D01*
X178317819Y-117044379D01*
X178379142Y-117010894D01*
X178448834Y-117015878D01*
X178504767Y-117057750D01*
X178529184Y-117123214D01*
X178529500Y-117132060D01*
X178529500Y-118015270D01*
X178509815Y-118082309D01*
X178457011Y-118128064D01*
X178387853Y-118138008D01*
X178324297Y-118108983D01*
X178317819Y-118102951D01*
X178219121Y-118004253D01*
X178219119Y-118004251D01*
X178078979Y-117902433D01*
X177924636Y-117823792D01*
X177759892Y-117770263D01*
X177759890Y-117770262D01*
X177759889Y-117770262D01*
X177628462Y-117749446D01*
X177588802Y-117743165D01*
X177415580Y-117743165D01*
X177375919Y-117749446D01*
X177244493Y-117770262D01*
X177244490Y-117770263D01*
X177089158Y-117820734D01*
X177079743Y-117823793D01*
X176925402Y-117902433D01*
X176845447Y-117960524D01*
X176785263Y-118004251D01*
X176785261Y-118004253D01*
X176785260Y-118004253D01*
X176662779Y-118126734D01*
X176662779Y-118126735D01*
X176662777Y-118126737D01*
X176619050Y-118186921D01*
X176560959Y-118266876D01*
X176482319Y-118421217D01*
X176428788Y-118585967D01*
X176401691Y-118757054D01*
X176401691Y-118930275D01*
X176428304Y-119098308D01*
X176428789Y-119101366D01*
X176482318Y-119266110D01*
X176560959Y-119420453D01*
X176662777Y-119560593D01*
X176785263Y-119683079D01*
X176925403Y-119784897D01*
X177079746Y-119863538D01*
X177244490Y-119917067D01*
X177415580Y-119944165D01*
X177415581Y-119944165D01*
X177588801Y-119944165D01*
X177588802Y-119944165D01*
X177759892Y-119917067D01*
X177924636Y-119863538D01*
X178078979Y-119784897D01*
X178219119Y-119683079D01*
X178317819Y-119584379D01*
X178379142Y-119550894D01*
X178448834Y-119555878D01*
X178504767Y-119597750D01*
X178529184Y-119663214D01*
X178529500Y-119672060D01*
X178529500Y-120555270D01*
X178509815Y-120622309D01*
X178457011Y-120668064D01*
X178387853Y-120678008D01*
X178324297Y-120648983D01*
X178317819Y-120642951D01*
X178219121Y-120544253D01*
X178219119Y-120544251D01*
X178078979Y-120442433D01*
X177924636Y-120363792D01*
X177759892Y-120310263D01*
X177759890Y-120310262D01*
X177759889Y-120310262D01*
X177628462Y-120289446D01*
X177588802Y-120283165D01*
X177415580Y-120283165D01*
X177375919Y-120289446D01*
X177244493Y-120310262D01*
X177244490Y-120310263D01*
X177089158Y-120360734D01*
X177079743Y-120363793D01*
X176925402Y-120442433D01*
X176845447Y-120500524D01*
X176785263Y-120544251D01*
X176785261Y-120544253D01*
X176785260Y-120544253D01*
X176662779Y-120666734D01*
X176662779Y-120666735D01*
X176662777Y-120666737D01*
X176642540Y-120694591D01*
X176560959Y-120806876D01*
X176482319Y-120961217D01*
X176428788Y-121125967D01*
X176401691Y-121297054D01*
X176401691Y-121470275D01*
X176428304Y-121638308D01*
X176428789Y-121641366D01*
X176482318Y-121806110D01*
X176560959Y-121960453D01*
X176662777Y-122100593D01*
X176785263Y-122223079D01*
X176925403Y-122324897D01*
X177079746Y-122403538D01*
X177244490Y-122457067D01*
X177415580Y-122484165D01*
X177415581Y-122484165D01*
X177588801Y-122484165D01*
X177588802Y-122484165D01*
X177759892Y-122457067D01*
X177924636Y-122403538D01*
X178078979Y-122324897D01*
X178219119Y-122223079D01*
X178317819Y-122124379D01*
X178379142Y-122090894D01*
X178448834Y-122095878D01*
X178504767Y-122137750D01*
X178529184Y-122203214D01*
X178529500Y-122212060D01*
X178529500Y-123095270D01*
X178509815Y-123162309D01*
X178457011Y-123208064D01*
X178387853Y-123218008D01*
X178324297Y-123188983D01*
X178317819Y-123182951D01*
X178219121Y-123084253D01*
X178219119Y-123084251D01*
X178078979Y-122982433D01*
X177924636Y-122903792D01*
X177759892Y-122850263D01*
X177759890Y-122850262D01*
X177759889Y-122850262D01*
X177628462Y-122829446D01*
X177588802Y-122823165D01*
X177415580Y-122823165D01*
X177375919Y-122829446D01*
X177244493Y-122850262D01*
X177244490Y-122850263D01*
X177089158Y-122900734D01*
X177079743Y-122903793D01*
X176925402Y-122982433D01*
X176845447Y-123040524D01*
X176785263Y-123084251D01*
X176785261Y-123084253D01*
X176785260Y-123084253D01*
X176662779Y-123206734D01*
X176662779Y-123206735D01*
X176662777Y-123206737D01*
X176619050Y-123266921D01*
X176560959Y-123346876D01*
X176482319Y-123501217D01*
X176428788Y-123665967D01*
X176401691Y-123837054D01*
X176401691Y-124010275D01*
X176428304Y-124178308D01*
X176428789Y-124181366D01*
X176482318Y-124346110D01*
X176560959Y-124500453D01*
X176662777Y-124640593D01*
X176785263Y-124763079D01*
X176925403Y-124864897D01*
X177079746Y-124943538D01*
X177244490Y-124997067D01*
X177415580Y-125024165D01*
X177415581Y-125024165D01*
X177588801Y-125024165D01*
X177588802Y-125024165D01*
X177759892Y-124997067D01*
X177924636Y-124943538D01*
X178078979Y-124864897D01*
X178219119Y-124763079D01*
X178317819Y-124664379D01*
X178379142Y-124630894D01*
X178448834Y-124635878D01*
X178504767Y-124677750D01*
X178529184Y-124743214D01*
X178529500Y-124752060D01*
X178529500Y-125635270D01*
X178509815Y-125702309D01*
X178457011Y-125748064D01*
X178387853Y-125758008D01*
X178324297Y-125728983D01*
X178317819Y-125722951D01*
X178219121Y-125624253D01*
X178219119Y-125624251D01*
X178078979Y-125522433D01*
X177924636Y-125443792D01*
X177759892Y-125390263D01*
X177759890Y-125390262D01*
X177759889Y-125390262D01*
X177628462Y-125369446D01*
X177588802Y-125363165D01*
X177415580Y-125363165D01*
X177375919Y-125369446D01*
X177244493Y-125390262D01*
X177244490Y-125390263D01*
X177089158Y-125440734D01*
X177079743Y-125443793D01*
X176925402Y-125522433D01*
X176845447Y-125580524D01*
X176785263Y-125624251D01*
X176785261Y-125624253D01*
X176785260Y-125624253D01*
X176662779Y-125746734D01*
X176662779Y-125746735D01*
X176662777Y-125746737D01*
X176619050Y-125806921D01*
X176560959Y-125886876D01*
X176482319Y-126041217D01*
X176428788Y-126205967D01*
X176401691Y-126377054D01*
X176401691Y-126550275D01*
X176428304Y-126718308D01*
X176428789Y-126721366D01*
X176482318Y-126886110D01*
X176560959Y-127040453D01*
X176662777Y-127180593D01*
X176785263Y-127303079D01*
X176925403Y-127404897D01*
X177079746Y-127483538D01*
X177244490Y-127537067D01*
X177415580Y-127564165D01*
X177415581Y-127564165D01*
X177588801Y-127564165D01*
X177588802Y-127564165D01*
X177759892Y-127537067D01*
X177924636Y-127483538D01*
X178078979Y-127404897D01*
X178219119Y-127303079D01*
X178317819Y-127204379D01*
X178379142Y-127170894D01*
X178448834Y-127175878D01*
X178504767Y-127217750D01*
X178529184Y-127283214D01*
X178529500Y-127292060D01*
X178529500Y-130715270D01*
X178509815Y-130782309D01*
X178457011Y-130828064D01*
X178387853Y-130838008D01*
X178324297Y-130808983D01*
X178317819Y-130802951D01*
X178219121Y-130704253D01*
X178219119Y-130704251D01*
X178078979Y-130602433D01*
X177924636Y-130523792D01*
X177759892Y-130470263D01*
X177759890Y-130470262D01*
X177759889Y-130470262D01*
X177628462Y-130449446D01*
X177588802Y-130443165D01*
X177415580Y-130443165D01*
X177375919Y-130449446D01*
X177244493Y-130470262D01*
X177244490Y-130470263D01*
X177089158Y-130520734D01*
X177079743Y-130523793D01*
X176925402Y-130602433D01*
X176845447Y-130660524D01*
X176785263Y-130704251D01*
X176785261Y-130704253D01*
X176785260Y-130704253D01*
X176662779Y-130826734D01*
X176662779Y-130826735D01*
X176662777Y-130826737D01*
X176619050Y-130886921D01*
X176560959Y-130966876D01*
X176482319Y-131121217D01*
X176428788Y-131285967D01*
X176401691Y-131457054D01*
X176401691Y-131630275D01*
X176428304Y-131798308D01*
X176428789Y-131801366D01*
X176482318Y-131966110D01*
X176560959Y-132120453D01*
X176662777Y-132260593D01*
X176785263Y-132383079D01*
X176925403Y-132484897D01*
X177079746Y-132563538D01*
X177244490Y-132617067D01*
X177415580Y-132644165D01*
X177415581Y-132644165D01*
X177588801Y-132644165D01*
X177588802Y-132644165D01*
X177759892Y-132617067D01*
X177924636Y-132563538D01*
X178078979Y-132484897D01*
X178219119Y-132383079D01*
X178317819Y-132284379D01*
X178379142Y-132250894D01*
X178448834Y-132255878D01*
X178504767Y-132297750D01*
X178529184Y-132363214D01*
X178529500Y-132372060D01*
X178529500Y-133255270D01*
X178509815Y-133322309D01*
X178457011Y-133368064D01*
X178387853Y-133378008D01*
X178324297Y-133348983D01*
X178317819Y-133342951D01*
X178219121Y-133244253D01*
X178219119Y-133244251D01*
X178078979Y-133142433D01*
X177924636Y-133063792D01*
X177759892Y-133010263D01*
X177759890Y-133010262D01*
X177759889Y-133010262D01*
X177628462Y-132989446D01*
X177588802Y-132983165D01*
X177415580Y-132983165D01*
X177375919Y-132989446D01*
X177244493Y-133010262D01*
X177244490Y-133010263D01*
X177089158Y-133060734D01*
X177079743Y-133063793D01*
X176925402Y-133142433D01*
X176845447Y-133200524D01*
X176785263Y-133244251D01*
X176785261Y-133244253D01*
X176785260Y-133244253D01*
X176662779Y-133366734D01*
X176662779Y-133366735D01*
X176662777Y-133366737D01*
X176619050Y-133426921D01*
X176560959Y-133506876D01*
X176482319Y-133661217D01*
X176428788Y-133825967D01*
X176401691Y-133997054D01*
X176401691Y-134170275D01*
X176428304Y-134338308D01*
X176428789Y-134341366D01*
X176482318Y-134506110D01*
X176560959Y-134660453D01*
X176662777Y-134800593D01*
X176785263Y-134923079D01*
X176925403Y-135024897D01*
X177079746Y-135103538D01*
X177244490Y-135157067D01*
X177415580Y-135184165D01*
X177415581Y-135184165D01*
X177588801Y-135184165D01*
X177588802Y-135184165D01*
X177759892Y-135157067D01*
X177924636Y-135103538D01*
X178078979Y-135024897D01*
X178219119Y-134923079D01*
X178317819Y-134824379D01*
X178379142Y-134790894D01*
X178448834Y-134795878D01*
X178504767Y-134837750D01*
X178529184Y-134903214D01*
X178529500Y-134912060D01*
X178529500Y-135795270D01*
X178509815Y-135862309D01*
X178457011Y-135908064D01*
X178387853Y-135918008D01*
X178324297Y-135888983D01*
X178317819Y-135882951D01*
X178219121Y-135784253D01*
X178219119Y-135784251D01*
X178078979Y-135682433D01*
X177924636Y-135603792D01*
X177759892Y-135550263D01*
X177759890Y-135550262D01*
X177759889Y-135550262D01*
X177628462Y-135529446D01*
X177588802Y-135523165D01*
X177415580Y-135523165D01*
X177375919Y-135529446D01*
X177244493Y-135550262D01*
X177244490Y-135550263D01*
X177089158Y-135600734D01*
X177079743Y-135603793D01*
X176925402Y-135682433D01*
X176845447Y-135740524D01*
X176785263Y-135784251D01*
X176785261Y-135784253D01*
X176785260Y-135784253D01*
X176662779Y-135906734D01*
X176662779Y-135906735D01*
X176662777Y-135906737D01*
X176619050Y-135966921D01*
X176560959Y-136046876D01*
X176482319Y-136201217D01*
X176428788Y-136365967D01*
X176401691Y-136537054D01*
X176401691Y-136710275D01*
X176428304Y-136878308D01*
X176428789Y-136881366D01*
X176482318Y-137046110D01*
X176560959Y-137200453D01*
X176662777Y-137340593D01*
X176785263Y-137463079D01*
X176925403Y-137564897D01*
X177079746Y-137643538D01*
X177244490Y-137697067D01*
X177415580Y-137724165D01*
X177415581Y-137724165D01*
X177588801Y-137724165D01*
X177588802Y-137724165D01*
X177759892Y-137697067D01*
X177924636Y-137643538D01*
X178078979Y-137564897D01*
X178219119Y-137463079D01*
X178317819Y-137364379D01*
X178379142Y-137330894D01*
X178448834Y-137335878D01*
X178504767Y-137377750D01*
X178529184Y-137443214D01*
X178529500Y-137452060D01*
X178529500Y-138335270D01*
X178509815Y-138402309D01*
X178457011Y-138448064D01*
X178387853Y-138458008D01*
X178324297Y-138428983D01*
X178317819Y-138422951D01*
X178219121Y-138324253D01*
X178219119Y-138324251D01*
X178078979Y-138222433D01*
X177924636Y-138143792D01*
X177759892Y-138090263D01*
X177759890Y-138090262D01*
X177759889Y-138090262D01*
X177628462Y-138069446D01*
X177588802Y-138063165D01*
X177415580Y-138063165D01*
X177375919Y-138069446D01*
X177244493Y-138090262D01*
X177244490Y-138090263D01*
X177089158Y-138140734D01*
X177079743Y-138143793D01*
X176925402Y-138222433D01*
X176845447Y-138280524D01*
X176785263Y-138324251D01*
X176785261Y-138324253D01*
X176785260Y-138324253D01*
X176662779Y-138446734D01*
X176662779Y-138446735D01*
X176662777Y-138446737D01*
X176619050Y-138506921D01*
X176560959Y-138586876D01*
X176482319Y-138741217D01*
X176428788Y-138905967D01*
X176401691Y-139077054D01*
X176401691Y-139250275D01*
X176428304Y-139418308D01*
X176428789Y-139421366D01*
X176482318Y-139586110D01*
X176560959Y-139740453D01*
X176662777Y-139880593D01*
X176785263Y-140003079D01*
X176925403Y-140104897D01*
X177079746Y-140183538D01*
X177244490Y-140237067D01*
X177415580Y-140264165D01*
X177415581Y-140264165D01*
X177588801Y-140264165D01*
X177588802Y-140264165D01*
X177759892Y-140237067D01*
X177924636Y-140183538D01*
X178078979Y-140104897D01*
X178219119Y-140003079D01*
X178317819Y-139904379D01*
X178379142Y-139870894D01*
X178448834Y-139875878D01*
X178504767Y-139917750D01*
X178529184Y-139983214D01*
X178529500Y-139992060D01*
X178529500Y-140875270D01*
X178509815Y-140942309D01*
X178457011Y-140988064D01*
X178387853Y-140998008D01*
X178324297Y-140968983D01*
X178317819Y-140962951D01*
X178219121Y-140864253D01*
X178219119Y-140864251D01*
X178078979Y-140762433D01*
X177924636Y-140683792D01*
X177759892Y-140630263D01*
X177759890Y-140630262D01*
X177759889Y-140630262D01*
X177628462Y-140609446D01*
X177588802Y-140603165D01*
X177415580Y-140603165D01*
X177375919Y-140609446D01*
X177244493Y-140630262D01*
X177244490Y-140630263D01*
X177089158Y-140680734D01*
X177079743Y-140683793D01*
X176925402Y-140762433D01*
X176845447Y-140820524D01*
X176785263Y-140864251D01*
X176785261Y-140864253D01*
X176785260Y-140864253D01*
X176662779Y-140986734D01*
X176662779Y-140986735D01*
X176662777Y-140986737D01*
X176619050Y-141046921D01*
X176560959Y-141126876D01*
X176482319Y-141281217D01*
X176428788Y-141445967D01*
X176401691Y-141617054D01*
X176401691Y-141790275D01*
X176428304Y-141958308D01*
X176428789Y-141961366D01*
X176482318Y-142126110D01*
X176560959Y-142280453D01*
X176662777Y-142420593D01*
X176785263Y-142543079D01*
X176925403Y-142644897D01*
X177079746Y-142723538D01*
X177244490Y-142777067D01*
X177415580Y-142804165D01*
X177415581Y-142804165D01*
X177588801Y-142804165D01*
X177588802Y-142804165D01*
X177759892Y-142777067D01*
X177924636Y-142723538D01*
X178078979Y-142644897D01*
X178219119Y-142543079D01*
X178317819Y-142444379D01*
X178379142Y-142410894D01*
X178448834Y-142415878D01*
X178504767Y-142457750D01*
X178529184Y-142523214D01*
X178529500Y-142532060D01*
X178529500Y-164305500D01*
X178509815Y-164372539D01*
X178457011Y-164418294D01*
X178405500Y-164429500D01*
X111064500Y-164429500D01*
X110997461Y-164409815D01*
X110951706Y-164357011D01*
X110940500Y-164305500D01*
X110940500Y-161612332D01*
X111519500Y-161612332D01*
X111519500Y-161887667D01*
X111519501Y-161887684D01*
X111555438Y-162160655D01*
X111555439Y-162160660D01*
X111555440Y-162160666D01*
X111555441Y-162160668D01*
X111626704Y-162426630D01*
X111732075Y-162681017D01*
X111732080Y-162681028D01*
X111811809Y-162819121D01*
X111869751Y-162919479D01*
X111869753Y-162919482D01*
X111869754Y-162919483D01*
X112037370Y-163137926D01*
X112037376Y-163137933D01*
X112232066Y-163332623D01*
X112232072Y-163332628D01*
X112450521Y-163500249D01*
X112603778Y-163588732D01*
X112688971Y-163637919D01*
X112688976Y-163637921D01*
X112688979Y-163637923D01*
X112943368Y-163743295D01*
X113209334Y-163814560D01*
X113482326Y-163850500D01*
X113482333Y-163850500D01*
X113757667Y-163850500D01*
X113757674Y-163850500D01*
X114030666Y-163814560D01*
X114296632Y-163743295D01*
X114551021Y-163637923D01*
X114789479Y-163500249D01*
X115007928Y-163332628D01*
X115202628Y-163137928D01*
X115370249Y-162919479D01*
X115507923Y-162681021D01*
X115613295Y-162426632D01*
X115684560Y-162160666D01*
X115720500Y-161887674D01*
X115720500Y-161612332D01*
X173749500Y-161612332D01*
X173749500Y-161887667D01*
X173749501Y-161887684D01*
X173785438Y-162160655D01*
X173785439Y-162160660D01*
X173785440Y-162160666D01*
X173785441Y-162160668D01*
X173856704Y-162426630D01*
X173962075Y-162681017D01*
X173962080Y-162681028D01*
X174041809Y-162819121D01*
X174099751Y-162919479D01*
X174099753Y-162919482D01*
X174099754Y-162919483D01*
X174267370Y-163137926D01*
X174267376Y-163137933D01*
X174462066Y-163332623D01*
X174462072Y-163332628D01*
X174680521Y-163500249D01*
X174833778Y-163588732D01*
X174918971Y-163637919D01*
X174918976Y-163637921D01*
X174918979Y-163637923D01*
X175173368Y-163743295D01*
X175439334Y-163814560D01*
X175712326Y-163850500D01*
X175712333Y-163850500D01*
X175987667Y-163850500D01*
X175987674Y-163850500D01*
X176260666Y-163814560D01*
X176526632Y-163743295D01*
X176781021Y-163637923D01*
X177019479Y-163500249D01*
X177237928Y-163332628D01*
X177432628Y-163137928D01*
X177600249Y-162919479D01*
X177737923Y-162681021D01*
X177843295Y-162426632D01*
X177914560Y-162160666D01*
X177950500Y-161887674D01*
X177950500Y-161612326D01*
X177914560Y-161339334D01*
X177843295Y-161073368D01*
X177737923Y-160818979D01*
X177737921Y-160818976D01*
X177737919Y-160818971D01*
X177664347Y-160691542D01*
X177600249Y-160580521D01*
X177476578Y-160419349D01*
X177432629Y-160362073D01*
X177432623Y-160362066D01*
X177237933Y-160167376D01*
X177237926Y-160167370D01*
X177019483Y-159999754D01*
X177019482Y-159999753D01*
X177019479Y-159999751D01*
X176924407Y-159944861D01*
X176781028Y-159862080D01*
X176781017Y-159862075D01*
X176526630Y-159756704D01*
X176393649Y-159721072D01*
X176260666Y-159685440D01*
X176260660Y-159685439D01*
X176260655Y-159685438D01*
X175987684Y-159649501D01*
X175987679Y-159649500D01*
X175987674Y-159649500D01*
X175712326Y-159649500D01*
X175712320Y-159649500D01*
X175712315Y-159649501D01*
X175439344Y-159685438D01*
X175439337Y-159685439D01*
X175439334Y-159685440D01*
X175383125Y-159700500D01*
X175173369Y-159756704D01*
X174918982Y-159862075D01*
X174918971Y-159862080D01*
X174680516Y-159999754D01*
X174462073Y-160167370D01*
X174462066Y-160167376D01*
X174267376Y-160362066D01*
X174267370Y-160362073D01*
X174099754Y-160580516D01*
X173962080Y-160818971D01*
X173962075Y-160818982D01*
X173856704Y-161073369D01*
X173785441Y-161339331D01*
X173785438Y-161339344D01*
X173749501Y-161612315D01*
X173749500Y-161612332D01*
X115720500Y-161612332D01*
X115720500Y-161612326D01*
X115684560Y-161339334D01*
X115613295Y-161073368D01*
X115514334Y-160834457D01*
X122145499Y-160834457D01*
X122173379Y-160974614D01*
X122173381Y-160974620D01*
X122228069Y-161106650D01*
X122228074Y-161106659D01*
X122307467Y-161225478D01*
X122307470Y-161225482D01*
X122408517Y-161326529D01*
X122408521Y-161326532D01*
X122527340Y-161405925D01*
X122527346Y-161405928D01*
X122527347Y-161405929D01*
X122659380Y-161460619D01*
X122659384Y-161460619D01*
X122659385Y-161460620D01*
X122799542Y-161488500D01*
X122799545Y-161488500D01*
X122942457Y-161488500D01*
X123036751Y-161469742D01*
X123082620Y-161460619D01*
X123214653Y-161405929D01*
X123333479Y-161326532D01*
X123434532Y-161225479D01*
X123513929Y-161106653D01*
X123568619Y-160974620D01*
X123596500Y-160834457D01*
X128945499Y-160834457D01*
X128973379Y-160974614D01*
X128973381Y-160974620D01*
X129028069Y-161106650D01*
X129028074Y-161106659D01*
X129107467Y-161225478D01*
X129107470Y-161225482D01*
X129208517Y-161326529D01*
X129208521Y-161326532D01*
X129327340Y-161405925D01*
X129327346Y-161405928D01*
X129327347Y-161405929D01*
X129459380Y-161460619D01*
X129459384Y-161460619D01*
X129459385Y-161460620D01*
X129599542Y-161488500D01*
X129599545Y-161488500D01*
X129742457Y-161488500D01*
X129742458Y-161488499D01*
X129745092Y-161487975D01*
X129751753Y-161486651D01*
X129751758Y-161486650D01*
X129846698Y-161467764D01*
X129882620Y-161460619D01*
X130014653Y-161405929D01*
X130133479Y-161326532D01*
X130234532Y-161225479D01*
X130313929Y-161106653D01*
X130368619Y-160974620D01*
X130396500Y-160834455D01*
X130396500Y-160691545D01*
X130396500Y-160691542D01*
X130368620Y-160551385D01*
X130368619Y-160551384D01*
X130368619Y-160551380D01*
X130313929Y-160419347D01*
X130313928Y-160419346D01*
X130313925Y-160419340D01*
X130234532Y-160300521D01*
X130234529Y-160300517D01*
X130133482Y-160199470D01*
X130133478Y-160199467D01*
X130014659Y-160120074D01*
X130014650Y-160120069D01*
X129882620Y-160065381D01*
X129882614Y-160065379D01*
X129742457Y-160037500D01*
X129742455Y-160037500D01*
X129599545Y-160037500D01*
X129599543Y-160037500D01*
X129459385Y-160065379D01*
X129459379Y-160065381D01*
X129327349Y-160120069D01*
X129327340Y-160120074D01*
X129208521Y-160199467D01*
X129208517Y-160199470D01*
X129107470Y-160300517D01*
X129107467Y-160300521D01*
X129028074Y-160419340D01*
X129028069Y-160419349D01*
X128973381Y-160551379D01*
X128973379Y-160551385D01*
X128945500Y-160691542D01*
X128945500Y-160691545D01*
X128945500Y-160834455D01*
X128945500Y-160834457D01*
X128945499Y-160834457D01*
X123596500Y-160834457D01*
X123596500Y-160834455D01*
X123596500Y-160691545D01*
X123596500Y-160691542D01*
X123568620Y-160551385D01*
X123568619Y-160551384D01*
X123568619Y-160551380D01*
X123513929Y-160419347D01*
X123513928Y-160419346D01*
X123513925Y-160419340D01*
X123434532Y-160300521D01*
X123434529Y-160300517D01*
X123333482Y-160199470D01*
X123333478Y-160199467D01*
X123214659Y-160120074D01*
X123214650Y-160120069D01*
X123082620Y-160065381D01*
X123082614Y-160065379D01*
X122942457Y-160037500D01*
X122942455Y-160037500D01*
X122799545Y-160037500D01*
X122799543Y-160037500D01*
X122659385Y-160065379D01*
X122659379Y-160065381D01*
X122527349Y-160120069D01*
X122527340Y-160120074D01*
X122408521Y-160199467D01*
X122408517Y-160199470D01*
X122307470Y-160300517D01*
X122307467Y-160300521D01*
X122228074Y-160419340D01*
X122228069Y-160419349D01*
X122173381Y-160551379D01*
X122173379Y-160551385D01*
X122145500Y-160691542D01*
X122145500Y-160691545D01*
X122145500Y-160834455D01*
X122145500Y-160834457D01*
X122145499Y-160834457D01*
X115514334Y-160834457D01*
X115507923Y-160818979D01*
X115507921Y-160818976D01*
X115507919Y-160818971D01*
X115466629Y-160747455D01*
X115466628Y-160747454D01*
X115458972Y-160734194D01*
X115370249Y-160580521D01*
X115347892Y-160551385D01*
X115202629Y-160362073D01*
X115202623Y-160362066D01*
X115007933Y-160167376D01*
X115007926Y-160167370D01*
X114789483Y-159999754D01*
X114789482Y-159999753D01*
X114789479Y-159999751D01*
X114694407Y-159944861D01*
X114551028Y-159862080D01*
X114551017Y-159862075D01*
X114296630Y-159756704D01*
X114163649Y-159721072D01*
X114030666Y-159685440D01*
X114030660Y-159685439D01*
X114030655Y-159685438D01*
X113757684Y-159649501D01*
X113757679Y-159649500D01*
X113757674Y-159649500D01*
X113482326Y-159649500D01*
X113482320Y-159649500D01*
X113482315Y-159649501D01*
X113209344Y-159685438D01*
X113209337Y-159685439D01*
X113209334Y-159685440D01*
X113153125Y-159700500D01*
X112943369Y-159756704D01*
X112688982Y-159862075D01*
X112688971Y-159862080D01*
X112450516Y-159999754D01*
X112232073Y-160167370D01*
X112232066Y-160167376D01*
X112037376Y-160362066D01*
X112037370Y-160362073D01*
X111869754Y-160580516D01*
X111732080Y-160818971D01*
X111732075Y-160818982D01*
X111626704Y-161073369D01*
X111555441Y-161339331D01*
X111555438Y-161339344D01*
X111519501Y-161612315D01*
X111519500Y-161612332D01*
X110940500Y-161612332D01*
X110940500Y-147854598D01*
X124971873Y-147854598D01*
X124971873Y-147999548D01*
X125009389Y-148139558D01*
X125009390Y-148139561D01*
X125081861Y-148265084D01*
X125081863Y-148265086D01*
X125081864Y-148265088D01*
X125184358Y-148367582D01*
X125184359Y-148367583D01*
X125184361Y-148367584D01*
X125309884Y-148440055D01*
X125309885Y-148440055D01*
X125309888Y-148440057D01*
X125449898Y-148477573D01*
X125449901Y-148477573D01*
X125594845Y-148477573D01*
X125594848Y-148477573D01*
X125734858Y-148440057D01*
X125860388Y-148367582D01*
X125962882Y-148265088D01*
X126035357Y-148139558D01*
X126072873Y-147999548D01*
X126072873Y-147854598D01*
X126035357Y-147714588D01*
X125962882Y-147589058D01*
X125860388Y-147486564D01*
X125860386Y-147486563D01*
X125860384Y-147486561D01*
X125734861Y-147414090D01*
X125734862Y-147414090D01*
X125723379Y-147411013D01*
X125594848Y-147376573D01*
X125449898Y-147376573D01*
X125321366Y-147411013D01*
X125309884Y-147414090D01*
X125184361Y-147486561D01*
X125184355Y-147486566D01*
X125081866Y-147589055D01*
X125081861Y-147589061D01*
X125009390Y-147714584D01*
X125009389Y-147714588D01*
X124971873Y-147854598D01*
X110940500Y-147854598D01*
X110940500Y-145951174D01*
X120727648Y-145951174D01*
X120727648Y-146096124D01*
X120763844Y-146231207D01*
X120765165Y-146236137D01*
X120837636Y-146361660D01*
X120837638Y-146361662D01*
X120837639Y-146361664D01*
X120940133Y-146464158D01*
X120940134Y-146464159D01*
X120940136Y-146464160D01*
X121065659Y-146536631D01*
X121065660Y-146536631D01*
X121065663Y-146536633D01*
X121205673Y-146574149D01*
X121205676Y-146574149D01*
X121350620Y-146574149D01*
X121350623Y-146574149D01*
X121490633Y-146536633D01*
X121616163Y-146464158D01*
X121718657Y-146361664D01*
X121791132Y-146236134D01*
X121828648Y-146096124D01*
X121828648Y-145977525D01*
X122385500Y-145977525D01*
X122385500Y-146122475D01*
X122416425Y-146237888D01*
X122423017Y-146262488D01*
X122495488Y-146388011D01*
X122495490Y-146388013D01*
X122495491Y-146388015D01*
X122597985Y-146490509D01*
X122597986Y-146490510D01*
X122597988Y-146490511D01*
X122723511Y-146562982D01*
X122723512Y-146562982D01*
X122723515Y-146562984D01*
X122863525Y-146600500D01*
X122863528Y-146600500D01*
X123008472Y-146600500D01*
X123008475Y-146600500D01*
X123148485Y-146562984D01*
X123274015Y-146490509D01*
X123376509Y-146388015D01*
X123448984Y-146262485D01*
X123486500Y-146122475D01*
X123486500Y-145977525D01*
X123479909Y-145952928D01*
X124048609Y-145952928D01*
X124048609Y-146097878D01*
X124085843Y-146236836D01*
X124086126Y-146237891D01*
X124158597Y-146363414D01*
X124158599Y-146363416D01*
X124158600Y-146363418D01*
X124261094Y-146465912D01*
X124261095Y-146465913D01*
X124261097Y-146465914D01*
X124386620Y-146538385D01*
X124386621Y-146538385D01*
X124386624Y-146538387D01*
X124526634Y-146575903D01*
X124526637Y-146575903D01*
X124671581Y-146575903D01*
X124671584Y-146575903D01*
X124811594Y-146538387D01*
X124937124Y-146465912D01*
X125039618Y-146363418D01*
X125112093Y-146237888D01*
X125149609Y-146097878D01*
X125149609Y-145952928D01*
X125147819Y-145946247D01*
X125687500Y-145946247D01*
X125687500Y-146091197D01*
X125725016Y-146231207D01*
X125725017Y-146231210D01*
X125797488Y-146356733D01*
X125797490Y-146356735D01*
X125797491Y-146356737D01*
X125899985Y-146459231D01*
X125899986Y-146459232D01*
X125899988Y-146459233D01*
X126025511Y-146531704D01*
X126025512Y-146531704D01*
X126025515Y-146531706D01*
X126165525Y-146569222D01*
X126165528Y-146569222D01*
X126310472Y-146569222D01*
X126310475Y-146569222D01*
X126450485Y-146531706D01*
X126576015Y-146459231D01*
X126678509Y-146356737D01*
X126750984Y-146231207D01*
X126788500Y-146091197D01*
X126788500Y-145951873D01*
X127376934Y-145951873D01*
X127376934Y-146096823D01*
X127414263Y-146236134D01*
X127414451Y-146236836D01*
X127486922Y-146362359D01*
X127486924Y-146362361D01*
X127486925Y-146362363D01*
X127589419Y-146464857D01*
X127589420Y-146464858D01*
X127589422Y-146464859D01*
X127714945Y-146537330D01*
X127714946Y-146537330D01*
X127714949Y-146537332D01*
X127854959Y-146574848D01*
X127854962Y-146574848D01*
X127999906Y-146574848D01*
X127999909Y-146574848D01*
X128139919Y-146537332D01*
X128265449Y-146464857D01*
X128367943Y-146362363D01*
X128440418Y-146236833D01*
X128477934Y-146096823D01*
X128477934Y-145951873D01*
X128440418Y-145811863D01*
X128440014Y-145811164D01*
X128367945Y-145686336D01*
X128367940Y-145686330D01*
X128265451Y-145583841D01*
X128265445Y-145583836D01*
X128139922Y-145511365D01*
X128139923Y-145511365D01*
X128095642Y-145499500D01*
X127999909Y-145473848D01*
X127854959Y-145473848D01*
X127759226Y-145499500D01*
X127714945Y-145511365D01*
X127589422Y-145583836D01*
X127589416Y-145583841D01*
X127486927Y-145686330D01*
X127486922Y-145686336D01*
X127414451Y-145811859D01*
X127414450Y-145811863D01*
X127376934Y-145951873D01*
X126788500Y-145951873D01*
X126788500Y-145946247D01*
X126750984Y-145806237D01*
X126696567Y-145711985D01*
X126678511Y-145680710D01*
X126678506Y-145680704D01*
X126576017Y-145578215D01*
X126576011Y-145578210D01*
X126450488Y-145505739D01*
X126450489Y-145505739D01*
X126439006Y-145502662D01*
X126310475Y-145468222D01*
X126165525Y-145468222D01*
X126036993Y-145502662D01*
X126025511Y-145505739D01*
X125899988Y-145578210D01*
X125899982Y-145578215D01*
X125797493Y-145680704D01*
X125797488Y-145680710D01*
X125725017Y-145806233D01*
X125723227Y-145812914D01*
X125687500Y-145946247D01*
X125147819Y-145946247D01*
X125112093Y-145812918D01*
X125111080Y-145811164D01*
X125039620Y-145687391D01*
X125039615Y-145687385D01*
X124937126Y-145584896D01*
X124937120Y-145584891D01*
X124811597Y-145512420D01*
X124811598Y-145512420D01*
X124786660Y-145505738D01*
X124671584Y-145474903D01*
X124526634Y-145474903D01*
X124411558Y-145505738D01*
X124386620Y-145512420D01*
X124261097Y-145584891D01*
X124261091Y-145584896D01*
X124158602Y-145687385D01*
X124158597Y-145687391D01*
X124086126Y-145812914D01*
X124086125Y-145812918D01*
X124048609Y-145952928D01*
X123479909Y-145952928D01*
X123448984Y-145837515D01*
X123434171Y-145811859D01*
X123376511Y-145711988D01*
X123376506Y-145711982D01*
X123274017Y-145609493D01*
X123274011Y-145609488D01*
X123148488Y-145537017D01*
X123148489Y-145537017D01*
X123137006Y-145533940D01*
X123008475Y-145499500D01*
X122863525Y-145499500D01*
X122734993Y-145533940D01*
X122723511Y-145537017D01*
X122597988Y-145609488D01*
X122597982Y-145609493D01*
X122495493Y-145711982D01*
X122495488Y-145711988D01*
X122423017Y-145837511D01*
X122423016Y-145837515D01*
X122385500Y-145977525D01*
X121828648Y-145977525D01*
X121828648Y-145951174D01*
X121791132Y-145811164D01*
X121788287Y-145806237D01*
X121718659Y-145685637D01*
X121718654Y-145685631D01*
X121616165Y-145583142D01*
X121616159Y-145583137D01*
X121490636Y-145510666D01*
X121490637Y-145510666D01*
X121472245Y-145505738D01*
X121350623Y-145473149D01*
X121205673Y-145473149D01*
X121084051Y-145505738D01*
X121065659Y-145510666D01*
X120940136Y-145583137D01*
X120940130Y-145583142D01*
X120837641Y-145685631D01*
X120837636Y-145685637D01*
X120765165Y-145811160D01*
X120765164Y-145811164D01*
X120727648Y-145951174D01*
X110940500Y-145951174D01*
X110940500Y-142528538D01*
X110960185Y-142461499D01*
X111012989Y-142415744D01*
X111082147Y-142405800D01*
X111145703Y-142434825D01*
X111152181Y-142440857D01*
X111251345Y-142540021D01*
X111391485Y-142641839D01*
X111545828Y-142720480D01*
X111710572Y-142774009D01*
X111881662Y-142801107D01*
X111881663Y-142801107D01*
X112054883Y-142801107D01*
X112054884Y-142801107D01*
X112225974Y-142774009D01*
X112390718Y-142720480D01*
X112545061Y-142641839D01*
X112685201Y-142540021D01*
X112807687Y-142417535D01*
X112909505Y-142277395D01*
X112988146Y-142123052D01*
X113041675Y-141958308D01*
X113068773Y-141787218D01*
X113068773Y-141613996D01*
X113041675Y-141442906D01*
X112988146Y-141278162D01*
X112909505Y-141123819D01*
X112807687Y-140983679D01*
X112685201Y-140861193D01*
X112636663Y-140825928D01*
X113407773Y-140825928D01*
X113407773Y-142575285D01*
X113422305Y-142648342D01*
X113422306Y-142648346D01*
X113422307Y-142648347D01*
X113477672Y-142731208D01*
X113546306Y-142777067D01*
X113560533Y-142786573D01*
X113560537Y-142786574D01*
X113633594Y-142801106D01*
X113633597Y-142801107D01*
X113633599Y-142801107D01*
X115382949Y-142801107D01*
X115382950Y-142801106D01*
X115456013Y-142786573D01*
X115538874Y-142731208D01*
X115594239Y-142648347D01*
X115608773Y-142575281D01*
X115608773Y-140825933D01*
X115608773Y-140825930D01*
X115608772Y-140825928D01*
X115594240Y-140752871D01*
X115594239Y-140752867D01*
X115538874Y-140670006D01*
X115456013Y-140614641D01*
X115456012Y-140614640D01*
X115456008Y-140614639D01*
X115382950Y-140600107D01*
X115382947Y-140600107D01*
X113633599Y-140600107D01*
X113633596Y-140600107D01*
X113560537Y-140614639D01*
X113560533Y-140614640D01*
X113477672Y-140670006D01*
X113422306Y-140752867D01*
X113422305Y-140752871D01*
X113407773Y-140825928D01*
X112636663Y-140825928D01*
X112545061Y-140759375D01*
X112390718Y-140680734D01*
X112225974Y-140627205D01*
X112225972Y-140627204D01*
X112225971Y-140627204D01*
X112074191Y-140603165D01*
X112054884Y-140600107D01*
X111881662Y-140600107D01*
X111862355Y-140603165D01*
X111710575Y-140627204D01*
X111545825Y-140680735D01*
X111391484Y-140759375D01*
X111311529Y-140817466D01*
X111251345Y-140861193D01*
X111251343Y-140861195D01*
X111251342Y-140861195D01*
X111152181Y-140960357D01*
X111090858Y-140993842D01*
X111021166Y-140988858D01*
X110965233Y-140946986D01*
X110940816Y-140881522D01*
X110940500Y-140872676D01*
X110940500Y-139988538D01*
X110960185Y-139921499D01*
X111012989Y-139875744D01*
X111082147Y-139865800D01*
X111145703Y-139894825D01*
X111152181Y-139900857D01*
X111251345Y-140000021D01*
X111391485Y-140101839D01*
X111545828Y-140180480D01*
X111710572Y-140234009D01*
X111881662Y-140261107D01*
X111881663Y-140261107D01*
X112054883Y-140261107D01*
X112054884Y-140261107D01*
X112225974Y-140234009D01*
X112390718Y-140180480D01*
X112545061Y-140101839D01*
X112685201Y-140000021D01*
X112807687Y-139877535D01*
X112909505Y-139737395D01*
X112988146Y-139583052D01*
X113041675Y-139418308D01*
X113068773Y-139247218D01*
X113068773Y-139073996D01*
X113407773Y-139073996D01*
X113407773Y-139247218D01*
X113434871Y-139418308D01*
X113488400Y-139583052D01*
X113567041Y-139737395D01*
X113668859Y-139877535D01*
X113791345Y-140000021D01*
X113931485Y-140101839D01*
X114085828Y-140180480D01*
X114250572Y-140234009D01*
X114421662Y-140261107D01*
X114421663Y-140261107D01*
X114594883Y-140261107D01*
X114594884Y-140261107D01*
X114765974Y-140234009D01*
X114930718Y-140180480D01*
X115085061Y-140101839D01*
X115225201Y-140000021D01*
X115347687Y-139877535D01*
X115449505Y-139737395D01*
X115528146Y-139583052D01*
X115581675Y-139418308D01*
X115608773Y-139247218D01*
X115608773Y-139073996D01*
X115581675Y-138902906D01*
X115528146Y-138738162D01*
X115449505Y-138583819D01*
X115347687Y-138443679D01*
X115225201Y-138321193D01*
X115085061Y-138219375D01*
X114930718Y-138140734D01*
X114765974Y-138087205D01*
X114765972Y-138087204D01*
X114765971Y-138087204D01*
X114614191Y-138063165D01*
X114594884Y-138060107D01*
X114421662Y-138060107D01*
X114402355Y-138063165D01*
X114250575Y-138087204D01*
X114085825Y-138140735D01*
X113931484Y-138219375D01*
X113851529Y-138277466D01*
X113791345Y-138321193D01*
X113791343Y-138321195D01*
X113791342Y-138321195D01*
X113668861Y-138443676D01*
X113668861Y-138443677D01*
X113668859Y-138443679D01*
X113625132Y-138503863D01*
X113567041Y-138583818D01*
X113488401Y-138738159D01*
X113434870Y-138902909D01*
X113434386Y-138905967D01*
X113407773Y-139073996D01*
X113068773Y-139073996D01*
X113041675Y-138902906D01*
X112988146Y-138738162D01*
X112909505Y-138583819D01*
X112807687Y-138443679D01*
X112685201Y-138321193D01*
X112545061Y-138219375D01*
X112390718Y-138140734D01*
X112225974Y-138087205D01*
X112225972Y-138087204D01*
X112225971Y-138087204D01*
X112074191Y-138063165D01*
X112054884Y-138060107D01*
X111881662Y-138060107D01*
X111862355Y-138063165D01*
X111710575Y-138087204D01*
X111545825Y-138140735D01*
X111391484Y-138219375D01*
X111311529Y-138277466D01*
X111251345Y-138321193D01*
X111251343Y-138321195D01*
X111251342Y-138321195D01*
X111152181Y-138420357D01*
X111090858Y-138453842D01*
X111021166Y-138448858D01*
X110965233Y-138406986D01*
X110940816Y-138341522D01*
X110940500Y-138332676D01*
X110940500Y-137448538D01*
X110960185Y-137381499D01*
X111012989Y-137335744D01*
X111082147Y-137325800D01*
X111145703Y-137354825D01*
X111152181Y-137360857D01*
X111251345Y-137460021D01*
X111391485Y-137561839D01*
X111545828Y-137640480D01*
X111710572Y-137694009D01*
X111881662Y-137721107D01*
X111881663Y-137721107D01*
X112054883Y-137721107D01*
X112054884Y-137721107D01*
X112225974Y-137694009D01*
X112390718Y-137640480D01*
X112545061Y-137561839D01*
X112685201Y-137460021D01*
X112807687Y-137337535D01*
X112909505Y-137197395D01*
X112988146Y-137043052D01*
X113041675Y-136878308D01*
X113068773Y-136707218D01*
X113068773Y-136533996D01*
X113407773Y-136533996D01*
X113407773Y-136707218D01*
X113434871Y-136878308D01*
X113488400Y-137043052D01*
X113567041Y-137197395D01*
X113668859Y-137337535D01*
X113791345Y-137460021D01*
X113931485Y-137561839D01*
X114085828Y-137640480D01*
X114250572Y-137694009D01*
X114421662Y-137721107D01*
X114421663Y-137721107D01*
X114594883Y-137721107D01*
X114594884Y-137721107D01*
X114765974Y-137694009D01*
X114930718Y-137640480D01*
X115085061Y-137561839D01*
X115225201Y-137460021D01*
X115347687Y-137337535D01*
X115449505Y-137197395D01*
X115528146Y-137043052D01*
X115581675Y-136878308D01*
X115608773Y-136707218D01*
X115608773Y-136533996D01*
X115581675Y-136362906D01*
X115528146Y-136198162D01*
X115449505Y-136043819D01*
X115347687Y-135903679D01*
X115225201Y-135781193D01*
X115085061Y-135679375D01*
X114930718Y-135600734D01*
X114765974Y-135547205D01*
X114765972Y-135547204D01*
X114765971Y-135547204D01*
X114614191Y-135523165D01*
X114594884Y-135520107D01*
X114421662Y-135520107D01*
X114402355Y-135523165D01*
X114250575Y-135547204D01*
X114085825Y-135600735D01*
X113931484Y-135679375D01*
X113851529Y-135737466D01*
X113791345Y-135781193D01*
X113791343Y-135781195D01*
X113791342Y-135781195D01*
X113668861Y-135903676D01*
X113668861Y-135903677D01*
X113668859Y-135903679D01*
X113625132Y-135963863D01*
X113567041Y-136043818D01*
X113488401Y-136198159D01*
X113434870Y-136362909D01*
X113434386Y-136365967D01*
X113407773Y-136533996D01*
X113068773Y-136533996D01*
X113041675Y-136362906D01*
X112988146Y-136198162D01*
X112909505Y-136043819D01*
X112807687Y-135903679D01*
X112685201Y-135781193D01*
X112545061Y-135679375D01*
X112390718Y-135600734D01*
X112225974Y-135547205D01*
X112225972Y-135547204D01*
X112225971Y-135547204D01*
X112074191Y-135523165D01*
X112054884Y-135520107D01*
X111881662Y-135520107D01*
X111862355Y-135523165D01*
X111710575Y-135547204D01*
X111545825Y-135600735D01*
X111391484Y-135679375D01*
X111311529Y-135737466D01*
X111251345Y-135781193D01*
X111251343Y-135781195D01*
X111251342Y-135781195D01*
X111152181Y-135880357D01*
X111090858Y-135913842D01*
X111021166Y-135908858D01*
X110965233Y-135866986D01*
X110940816Y-135801522D01*
X110940500Y-135792676D01*
X110940500Y-134908538D01*
X110960185Y-134841499D01*
X111012989Y-134795744D01*
X111082147Y-134785800D01*
X111145703Y-134814825D01*
X111152181Y-134820857D01*
X111251345Y-134920021D01*
X111391485Y-135021839D01*
X111545828Y-135100480D01*
X111710572Y-135154009D01*
X111881662Y-135181107D01*
X111881663Y-135181107D01*
X112054883Y-135181107D01*
X112054884Y-135181107D01*
X112225974Y-135154009D01*
X112390718Y-135100480D01*
X112545061Y-135021839D01*
X112685201Y-134920021D01*
X112807687Y-134797535D01*
X112909505Y-134657395D01*
X112988146Y-134503052D01*
X113041675Y-134338308D01*
X113068773Y-134167218D01*
X113068773Y-133993996D01*
X113407773Y-133993996D01*
X113407773Y-134167218D01*
X113434871Y-134338308D01*
X113488400Y-134503052D01*
X113567041Y-134657395D01*
X113668859Y-134797535D01*
X113791345Y-134920021D01*
X113931485Y-135021839D01*
X114085828Y-135100480D01*
X114250572Y-135154009D01*
X114421662Y-135181107D01*
X114421663Y-135181107D01*
X114594883Y-135181107D01*
X114594884Y-135181107D01*
X114765974Y-135154009D01*
X114930718Y-135100480D01*
X115085061Y-135021839D01*
X115225201Y-134920021D01*
X115347687Y-134797535D01*
X115449505Y-134657395D01*
X115528146Y-134503052D01*
X115581675Y-134338308D01*
X115608773Y-134167218D01*
X115608773Y-133993996D01*
X115581675Y-133822906D01*
X115528146Y-133658162D01*
X115449505Y-133503819D01*
X115347687Y-133363679D01*
X115225201Y-133241193D01*
X115085061Y-133139375D01*
X114930718Y-133060734D01*
X114765974Y-133007205D01*
X114765972Y-133007204D01*
X114765971Y-133007204D01*
X114614191Y-132983165D01*
X114594884Y-132980107D01*
X114421662Y-132980107D01*
X114402355Y-132983165D01*
X114250575Y-133007204D01*
X114085825Y-133060735D01*
X113931484Y-133139375D01*
X113851529Y-133197466D01*
X113791345Y-133241193D01*
X113791343Y-133241195D01*
X113791342Y-133241195D01*
X113668861Y-133363676D01*
X113668861Y-133363677D01*
X113668859Y-133363679D01*
X113625132Y-133423863D01*
X113567041Y-133503818D01*
X113488401Y-133658159D01*
X113434870Y-133822909D01*
X113434386Y-133825967D01*
X113407773Y-133993996D01*
X113068773Y-133993996D01*
X113041675Y-133822906D01*
X112988146Y-133658162D01*
X112909505Y-133503819D01*
X112807687Y-133363679D01*
X112685201Y-133241193D01*
X112545061Y-133139375D01*
X112390718Y-133060734D01*
X112225974Y-133007205D01*
X112225972Y-133007204D01*
X112225971Y-133007204D01*
X112074191Y-132983165D01*
X112054884Y-132980107D01*
X111881662Y-132980107D01*
X111862355Y-132983165D01*
X111710575Y-133007204D01*
X111545825Y-133060735D01*
X111391484Y-133139375D01*
X111311529Y-133197466D01*
X111251345Y-133241193D01*
X111251343Y-133241195D01*
X111251342Y-133241195D01*
X111152181Y-133340357D01*
X111090858Y-133373842D01*
X111021166Y-133368858D01*
X110965233Y-133326986D01*
X110940816Y-133261522D01*
X110940500Y-133252676D01*
X110940500Y-132368538D01*
X110960185Y-132301499D01*
X111012989Y-132255744D01*
X111082147Y-132245800D01*
X111145703Y-132274825D01*
X111152181Y-132280857D01*
X111251345Y-132380021D01*
X111391485Y-132481839D01*
X111545828Y-132560480D01*
X111710572Y-132614009D01*
X111881662Y-132641107D01*
X111881663Y-132641107D01*
X112054883Y-132641107D01*
X112054884Y-132641107D01*
X112225974Y-132614009D01*
X112390718Y-132560480D01*
X112545061Y-132481839D01*
X112685201Y-132380021D01*
X112807687Y-132257535D01*
X112909505Y-132117395D01*
X112988146Y-131963052D01*
X113041675Y-131798308D01*
X113068773Y-131627218D01*
X113068773Y-131453996D01*
X113407773Y-131453996D01*
X113407773Y-131627217D01*
X113428214Y-131756282D01*
X113434871Y-131798308D01*
X113488400Y-131963052D01*
X113567041Y-132117395D01*
X113668859Y-132257535D01*
X113791345Y-132380021D01*
X113931485Y-132481839D01*
X114085828Y-132560480D01*
X114250572Y-132614009D01*
X114421662Y-132641107D01*
X114421663Y-132641107D01*
X114594883Y-132641107D01*
X114594884Y-132641107D01*
X114765974Y-132614009D01*
X114930718Y-132560480D01*
X115085061Y-132481839D01*
X115225201Y-132380021D01*
X115347687Y-132257535D01*
X115449505Y-132117395D01*
X115528146Y-131963052D01*
X115581675Y-131798308D01*
X115608773Y-131627218D01*
X115608773Y-131453996D01*
X115581675Y-131282906D01*
X115528146Y-131118162D01*
X115449505Y-130963819D01*
X115347687Y-130823679D01*
X115225201Y-130701193D01*
X115085061Y-130599375D01*
X114930718Y-130520734D01*
X114765974Y-130467205D01*
X114765972Y-130467204D01*
X114765971Y-130467204D01*
X114614191Y-130443165D01*
X114594884Y-130440107D01*
X114421662Y-130440107D01*
X114402355Y-130443165D01*
X114250575Y-130467204D01*
X114085825Y-130520735D01*
X113931484Y-130599375D01*
X113851529Y-130657466D01*
X113791345Y-130701193D01*
X113791343Y-130701195D01*
X113791342Y-130701195D01*
X113668861Y-130823676D01*
X113668861Y-130823677D01*
X113668859Y-130823679D01*
X113625132Y-130883863D01*
X113567041Y-130963818D01*
X113488401Y-131118159D01*
X113434870Y-131282909D01*
X113407773Y-131453996D01*
X113068773Y-131453996D01*
X113041675Y-131282906D01*
X112988146Y-131118162D01*
X112909505Y-130963819D01*
X112807687Y-130823679D01*
X112685201Y-130701193D01*
X112545061Y-130599375D01*
X112390718Y-130520734D01*
X112225974Y-130467205D01*
X112225972Y-130467204D01*
X112225971Y-130467204D01*
X112074191Y-130443165D01*
X112054884Y-130440107D01*
X111881662Y-130440107D01*
X111862355Y-130443165D01*
X111710575Y-130467204D01*
X111545825Y-130520735D01*
X111391484Y-130599375D01*
X111311529Y-130657466D01*
X111251345Y-130701193D01*
X111251343Y-130701195D01*
X111251342Y-130701195D01*
X111152181Y-130800357D01*
X111090858Y-130833842D01*
X111021166Y-130828858D01*
X110965233Y-130786986D01*
X110940816Y-130721522D01*
X110940500Y-130712676D01*
X110940500Y-127288538D01*
X110960185Y-127221499D01*
X111012989Y-127175744D01*
X111082147Y-127165800D01*
X111145703Y-127194825D01*
X111152181Y-127200857D01*
X111251345Y-127300021D01*
X111391485Y-127401839D01*
X111545828Y-127480480D01*
X111710572Y-127534009D01*
X111881662Y-127561107D01*
X111881663Y-127561107D01*
X112054883Y-127561107D01*
X112054884Y-127561107D01*
X112225974Y-127534009D01*
X112390718Y-127480480D01*
X112545061Y-127401839D01*
X112685201Y-127300021D01*
X112807687Y-127177535D01*
X112909505Y-127037395D01*
X112988146Y-126883052D01*
X113041675Y-126718308D01*
X113068773Y-126547218D01*
X113068773Y-126373996D01*
X113407773Y-126373996D01*
X113407773Y-126547218D01*
X113434871Y-126718308D01*
X113488400Y-126883052D01*
X113567041Y-127037395D01*
X113668859Y-127177535D01*
X113791345Y-127300021D01*
X113931485Y-127401839D01*
X114085828Y-127480480D01*
X114250572Y-127534009D01*
X114421662Y-127561107D01*
X114421663Y-127561107D01*
X114594883Y-127561107D01*
X114594884Y-127561107D01*
X114765974Y-127534009D01*
X114930718Y-127480480D01*
X115085061Y-127401839D01*
X115225201Y-127300021D01*
X115347687Y-127177535D01*
X115449505Y-127037395D01*
X115528146Y-126883052D01*
X115581675Y-126718308D01*
X115608773Y-126547218D01*
X115608773Y-126373996D01*
X115581675Y-126202906D01*
X115528146Y-126038162D01*
X115449505Y-125883819D01*
X115347687Y-125743679D01*
X115225201Y-125621193D01*
X115085061Y-125519375D01*
X114930718Y-125440734D01*
X114765974Y-125387205D01*
X114765972Y-125387204D01*
X114765971Y-125387204D01*
X114614191Y-125363165D01*
X114594884Y-125360107D01*
X114421662Y-125360107D01*
X114402355Y-125363165D01*
X114250575Y-125387204D01*
X114085825Y-125440735D01*
X113931484Y-125519375D01*
X113851529Y-125577466D01*
X113791345Y-125621193D01*
X113791343Y-125621195D01*
X113791342Y-125621195D01*
X113668861Y-125743676D01*
X113668861Y-125743677D01*
X113668859Y-125743679D01*
X113625132Y-125803863D01*
X113567041Y-125883818D01*
X113488401Y-126038159D01*
X113434870Y-126202909D01*
X113414662Y-126330499D01*
X113407773Y-126373996D01*
X113068773Y-126373996D01*
X113041675Y-126202906D01*
X112988146Y-126038162D01*
X112909505Y-125883819D01*
X112807687Y-125743679D01*
X112685201Y-125621193D01*
X112545061Y-125519375D01*
X112390718Y-125440734D01*
X112225974Y-125387205D01*
X112225972Y-125387204D01*
X112225971Y-125387204D01*
X112074191Y-125363165D01*
X112054884Y-125360107D01*
X111881662Y-125360107D01*
X111862355Y-125363165D01*
X111710575Y-125387204D01*
X111545825Y-125440735D01*
X111391484Y-125519375D01*
X111311529Y-125577466D01*
X111251345Y-125621193D01*
X111251343Y-125621195D01*
X111251342Y-125621195D01*
X111152181Y-125720357D01*
X111090858Y-125753842D01*
X111021166Y-125748858D01*
X110965233Y-125706986D01*
X110940816Y-125641522D01*
X110940500Y-125632676D01*
X110940500Y-124748538D01*
X110960185Y-124681499D01*
X111012989Y-124635744D01*
X111082147Y-124625800D01*
X111145703Y-124654825D01*
X111152181Y-124660857D01*
X111251345Y-124760021D01*
X111391485Y-124861839D01*
X111545828Y-124940480D01*
X111710572Y-124994009D01*
X111881662Y-125021107D01*
X111881663Y-125021107D01*
X112054883Y-125021107D01*
X112054884Y-125021107D01*
X112225974Y-124994009D01*
X112390718Y-124940480D01*
X112545061Y-124861839D01*
X112685201Y-124760021D01*
X112807687Y-124637535D01*
X112909505Y-124497395D01*
X112988146Y-124343052D01*
X113041675Y-124178308D01*
X113068773Y-124007218D01*
X113068773Y-123833996D01*
X113407773Y-123833996D01*
X113407773Y-124007218D01*
X113434871Y-124178308D01*
X113488400Y-124343052D01*
X113567041Y-124497395D01*
X113668859Y-124637535D01*
X113791345Y-124760021D01*
X113931485Y-124861839D01*
X114085828Y-124940480D01*
X114250572Y-124994009D01*
X114421662Y-125021107D01*
X114421663Y-125021107D01*
X114594883Y-125021107D01*
X114594884Y-125021107D01*
X114765974Y-124994009D01*
X114930718Y-124940480D01*
X115085061Y-124861839D01*
X115225201Y-124760021D01*
X115347687Y-124637535D01*
X115449505Y-124497395D01*
X115528146Y-124343052D01*
X115581675Y-124178308D01*
X115608773Y-124007218D01*
X115608773Y-123833996D01*
X115581675Y-123662906D01*
X115528146Y-123498162D01*
X115449505Y-123343819D01*
X115347687Y-123203679D01*
X115225201Y-123081193D01*
X115085061Y-122979375D01*
X114930718Y-122900734D01*
X114765974Y-122847205D01*
X114765972Y-122847204D01*
X114765971Y-122847204D01*
X114614191Y-122823165D01*
X114594884Y-122820107D01*
X114421662Y-122820107D01*
X114402355Y-122823165D01*
X114250575Y-122847204D01*
X114085825Y-122900735D01*
X113931484Y-122979375D01*
X113851529Y-123037466D01*
X113791345Y-123081193D01*
X113791343Y-123081195D01*
X113791342Y-123081195D01*
X113668861Y-123203676D01*
X113668861Y-123203677D01*
X113668859Y-123203679D01*
X113625132Y-123263863D01*
X113567041Y-123343818D01*
X113488401Y-123498159D01*
X113434870Y-123662909D01*
X113434386Y-123665967D01*
X113407773Y-123833996D01*
X113068773Y-123833996D01*
X113041675Y-123662906D01*
X112988146Y-123498162D01*
X112909505Y-123343819D01*
X112807687Y-123203679D01*
X112685201Y-123081193D01*
X112545061Y-122979375D01*
X112390718Y-122900734D01*
X112225974Y-122847205D01*
X112225972Y-122847204D01*
X112225971Y-122847204D01*
X112074191Y-122823165D01*
X112054884Y-122820107D01*
X111881662Y-122820107D01*
X111862355Y-122823165D01*
X111710575Y-122847204D01*
X111545825Y-122900735D01*
X111391484Y-122979375D01*
X111311529Y-123037466D01*
X111251345Y-123081193D01*
X111251343Y-123081195D01*
X111251342Y-123081195D01*
X111152181Y-123180357D01*
X111090858Y-123213842D01*
X111021166Y-123208858D01*
X110965233Y-123166986D01*
X110940816Y-123101522D01*
X110940500Y-123092676D01*
X110940500Y-122208538D01*
X110960185Y-122141499D01*
X111012989Y-122095744D01*
X111082147Y-122085800D01*
X111145703Y-122114825D01*
X111152181Y-122120857D01*
X111251345Y-122220021D01*
X111391485Y-122321839D01*
X111545828Y-122400480D01*
X111710572Y-122454009D01*
X111881662Y-122481107D01*
X111881663Y-122481107D01*
X112054883Y-122481107D01*
X112054884Y-122481107D01*
X112225974Y-122454009D01*
X112390718Y-122400480D01*
X112545061Y-122321839D01*
X112685201Y-122220021D01*
X112807687Y-122097535D01*
X112909505Y-121957395D01*
X112988146Y-121803052D01*
X113041675Y-121638308D01*
X113068773Y-121467218D01*
X113068773Y-121293996D01*
X113407773Y-121293996D01*
X113407773Y-121467218D01*
X113434871Y-121638308D01*
X113488400Y-121803052D01*
X113567041Y-121957395D01*
X113668859Y-122097535D01*
X113791345Y-122220021D01*
X113931485Y-122321839D01*
X114085828Y-122400480D01*
X114250572Y-122454009D01*
X114421662Y-122481107D01*
X114421663Y-122481107D01*
X114594883Y-122481107D01*
X114594884Y-122481107D01*
X114765974Y-122454009D01*
X114930718Y-122400480D01*
X115085061Y-122321839D01*
X115225201Y-122220021D01*
X115347687Y-122097535D01*
X115449505Y-121957395D01*
X115528146Y-121803052D01*
X115581675Y-121638308D01*
X115608773Y-121467218D01*
X115608773Y-121293996D01*
X115581675Y-121122906D01*
X115528146Y-120958162D01*
X115449505Y-120803819D01*
X115347687Y-120663679D01*
X115225201Y-120541193D01*
X115085061Y-120439375D01*
X114930718Y-120360734D01*
X114765974Y-120307205D01*
X114765972Y-120307204D01*
X114765971Y-120307204D01*
X114614191Y-120283165D01*
X114594884Y-120280107D01*
X114421662Y-120280107D01*
X114402355Y-120283165D01*
X114250575Y-120307204D01*
X114085825Y-120360735D01*
X113931484Y-120439375D01*
X113851529Y-120497466D01*
X113791345Y-120541193D01*
X113791343Y-120541195D01*
X113791342Y-120541195D01*
X113668861Y-120663676D01*
X113668861Y-120663677D01*
X113668859Y-120663679D01*
X113646400Y-120694591D01*
X113567041Y-120803818D01*
X113488401Y-120958159D01*
X113434870Y-121122909D01*
X113434386Y-121125967D01*
X113407773Y-121293996D01*
X113068773Y-121293996D01*
X113041675Y-121122906D01*
X112988146Y-120958162D01*
X112909505Y-120803819D01*
X112807687Y-120663679D01*
X112685201Y-120541193D01*
X112545061Y-120439375D01*
X112390718Y-120360734D01*
X112225974Y-120307205D01*
X112225972Y-120307204D01*
X112225971Y-120307204D01*
X112074191Y-120283165D01*
X112054884Y-120280107D01*
X111881662Y-120280107D01*
X111862355Y-120283165D01*
X111710575Y-120307204D01*
X111545825Y-120360735D01*
X111391484Y-120439375D01*
X111311529Y-120497466D01*
X111251345Y-120541193D01*
X111251343Y-120541195D01*
X111251342Y-120541195D01*
X111152181Y-120640357D01*
X111090858Y-120673842D01*
X111021166Y-120668858D01*
X110965233Y-120626986D01*
X110940816Y-120561522D01*
X110940500Y-120552676D01*
X110940500Y-119668538D01*
X110960185Y-119601499D01*
X111012989Y-119555744D01*
X111082147Y-119545800D01*
X111145703Y-119574825D01*
X111152181Y-119580857D01*
X111251345Y-119680021D01*
X111391485Y-119781839D01*
X111545828Y-119860480D01*
X111710572Y-119914009D01*
X111881662Y-119941107D01*
X111881663Y-119941107D01*
X112054883Y-119941107D01*
X112054884Y-119941107D01*
X112225974Y-119914009D01*
X112390718Y-119860480D01*
X112545061Y-119781839D01*
X112685201Y-119680021D01*
X112807687Y-119557535D01*
X112909505Y-119417395D01*
X112988146Y-119263052D01*
X113041675Y-119098308D01*
X113068773Y-118927218D01*
X113068773Y-118753996D01*
X113407773Y-118753996D01*
X113407773Y-118927218D01*
X113434871Y-119098308D01*
X113488400Y-119263052D01*
X113567041Y-119417395D01*
X113668859Y-119557535D01*
X113791345Y-119680021D01*
X113931485Y-119781839D01*
X114085828Y-119860480D01*
X114250572Y-119914009D01*
X114421662Y-119941107D01*
X114421663Y-119941107D01*
X114594883Y-119941107D01*
X114594884Y-119941107D01*
X114765974Y-119914009D01*
X114930718Y-119860480D01*
X115085061Y-119781839D01*
X115225201Y-119680021D01*
X115347687Y-119557535D01*
X115449505Y-119417395D01*
X115528146Y-119263052D01*
X115581675Y-119098308D01*
X115608773Y-118927218D01*
X115608773Y-118753996D01*
X115581675Y-118582906D01*
X115528146Y-118418162D01*
X115449505Y-118263819D01*
X115347687Y-118123679D01*
X115225201Y-118001193D01*
X115085061Y-117899375D01*
X114930718Y-117820734D01*
X114765974Y-117767205D01*
X114765972Y-117767204D01*
X114765971Y-117767204D01*
X114614191Y-117743165D01*
X114594884Y-117740107D01*
X114421662Y-117740107D01*
X114402355Y-117743165D01*
X114250575Y-117767204D01*
X114085825Y-117820735D01*
X113931484Y-117899375D01*
X113851529Y-117957466D01*
X113791345Y-118001193D01*
X113791343Y-118001195D01*
X113791342Y-118001195D01*
X113668861Y-118123676D01*
X113668861Y-118123677D01*
X113668859Y-118123679D01*
X113625132Y-118183863D01*
X113567041Y-118263818D01*
X113488401Y-118418159D01*
X113434870Y-118582909D01*
X113434386Y-118585967D01*
X113407773Y-118753996D01*
X113068773Y-118753996D01*
X113041675Y-118582906D01*
X112988146Y-118418162D01*
X112909505Y-118263819D01*
X112807687Y-118123679D01*
X112685201Y-118001193D01*
X112545061Y-117899375D01*
X112390718Y-117820734D01*
X112225974Y-117767205D01*
X112225972Y-117767204D01*
X112225971Y-117767204D01*
X112074191Y-117743165D01*
X112054884Y-117740107D01*
X111881662Y-117740107D01*
X111862355Y-117743165D01*
X111710575Y-117767204D01*
X111545825Y-117820735D01*
X111391484Y-117899375D01*
X111311529Y-117957466D01*
X111251345Y-118001193D01*
X111251343Y-118001195D01*
X111251342Y-118001195D01*
X111152181Y-118100357D01*
X111090858Y-118133842D01*
X111021166Y-118128858D01*
X110965233Y-118086986D01*
X110940816Y-118021522D01*
X110940500Y-118012676D01*
X110940500Y-117128538D01*
X110960185Y-117061499D01*
X111012989Y-117015744D01*
X111082147Y-117005800D01*
X111145703Y-117034825D01*
X111152181Y-117040857D01*
X111251345Y-117140021D01*
X111391485Y-117241839D01*
X111545828Y-117320480D01*
X111710572Y-117374009D01*
X111881662Y-117401107D01*
X111881663Y-117401107D01*
X112054883Y-117401107D01*
X112054884Y-117401107D01*
X112225974Y-117374009D01*
X112390718Y-117320480D01*
X112545061Y-117241839D01*
X112685201Y-117140021D01*
X112807687Y-117017535D01*
X112909505Y-116877395D01*
X112988146Y-116723052D01*
X113041675Y-116558308D01*
X113068773Y-116387218D01*
X113068773Y-116213996D01*
X113407773Y-116213996D01*
X113407773Y-116387218D01*
X113434871Y-116558308D01*
X113488400Y-116723052D01*
X113567041Y-116877395D01*
X113668859Y-117017535D01*
X113791345Y-117140021D01*
X113931485Y-117241839D01*
X114085828Y-117320480D01*
X114250572Y-117374009D01*
X114421662Y-117401107D01*
X114421663Y-117401107D01*
X114594883Y-117401107D01*
X114594884Y-117401107D01*
X114765974Y-117374009D01*
X114930718Y-117320480D01*
X115085061Y-117241839D01*
X115225201Y-117140021D01*
X115347687Y-117017535D01*
X115449505Y-116877395D01*
X115528146Y-116723052D01*
X115581675Y-116558308D01*
X115608773Y-116387218D01*
X115608773Y-116213996D01*
X115581675Y-116042906D01*
X115528146Y-115878162D01*
X115449505Y-115723819D01*
X115347687Y-115583679D01*
X115225201Y-115461193D01*
X115085061Y-115359375D01*
X114930718Y-115280734D01*
X114765974Y-115227205D01*
X114765972Y-115227204D01*
X114765971Y-115227204D01*
X114614191Y-115203165D01*
X114594884Y-115200107D01*
X114421662Y-115200107D01*
X114402355Y-115203165D01*
X114250575Y-115227204D01*
X114085825Y-115280735D01*
X113931484Y-115359375D01*
X113851529Y-115417466D01*
X113791345Y-115461193D01*
X113791343Y-115461195D01*
X113791342Y-115461195D01*
X113668861Y-115583676D01*
X113668861Y-115583677D01*
X113668859Y-115583679D01*
X113625132Y-115643863D01*
X113567041Y-115723818D01*
X113488401Y-115878159D01*
X113434870Y-116042909D01*
X113434386Y-116045967D01*
X113407773Y-116213996D01*
X113068773Y-116213996D01*
X113041675Y-116042906D01*
X112988146Y-115878162D01*
X112909505Y-115723819D01*
X112807687Y-115583679D01*
X112685201Y-115461193D01*
X112545061Y-115359375D01*
X112390718Y-115280734D01*
X112225974Y-115227205D01*
X112225972Y-115227204D01*
X112225971Y-115227204D01*
X112074191Y-115203165D01*
X112054884Y-115200107D01*
X111881662Y-115200107D01*
X111862355Y-115203165D01*
X111710575Y-115227204D01*
X111545825Y-115280735D01*
X111391484Y-115359375D01*
X111311529Y-115417466D01*
X111251345Y-115461193D01*
X111251343Y-115461195D01*
X111251342Y-115461195D01*
X111152181Y-115560357D01*
X111090858Y-115593842D01*
X111021166Y-115588858D01*
X110965233Y-115546986D01*
X110940816Y-115481522D01*
X110940500Y-115472676D01*
X110940500Y-114588538D01*
X110960185Y-114521499D01*
X111012989Y-114475744D01*
X111082147Y-114465800D01*
X111145703Y-114494825D01*
X111152181Y-114500857D01*
X111251345Y-114600021D01*
X111391485Y-114701839D01*
X111545828Y-114780480D01*
X111710572Y-114834009D01*
X111881662Y-114861107D01*
X111881663Y-114861107D01*
X112054883Y-114861107D01*
X112054884Y-114861107D01*
X112225974Y-114834009D01*
X112390718Y-114780480D01*
X112545061Y-114701839D01*
X112685201Y-114600021D01*
X112807687Y-114477535D01*
X112909505Y-114337395D01*
X112988146Y-114183052D01*
X113041675Y-114018308D01*
X113068773Y-113847218D01*
X113068773Y-113673996D01*
X113407773Y-113673996D01*
X113407773Y-113847218D01*
X113434871Y-114018308D01*
X113488400Y-114183052D01*
X113567041Y-114337395D01*
X113668859Y-114477535D01*
X113791345Y-114600021D01*
X113931485Y-114701839D01*
X114085828Y-114780480D01*
X114250572Y-114834009D01*
X114421662Y-114861107D01*
X114421663Y-114861107D01*
X114594883Y-114861107D01*
X114594884Y-114861107D01*
X114765974Y-114834009D01*
X114930718Y-114780480D01*
X115085061Y-114701839D01*
X115225201Y-114600021D01*
X115347687Y-114477535D01*
X115449505Y-114337395D01*
X115528146Y-114183052D01*
X115581675Y-114018308D01*
X115608773Y-113847218D01*
X115608773Y-113673996D01*
X115581675Y-113502906D01*
X115528146Y-113338162D01*
X115449505Y-113183819D01*
X115347687Y-113043679D01*
X115225201Y-112921193D01*
X115085061Y-112819375D01*
X114930718Y-112740734D01*
X114765974Y-112687205D01*
X114765972Y-112687204D01*
X114765971Y-112687204D01*
X114614191Y-112663165D01*
X114594884Y-112660107D01*
X114421662Y-112660107D01*
X114402355Y-112663165D01*
X114250575Y-112687204D01*
X114085825Y-112740735D01*
X113931484Y-112819375D01*
X113851529Y-112877466D01*
X113791345Y-112921193D01*
X113791343Y-112921195D01*
X113791342Y-112921195D01*
X113668861Y-113043676D01*
X113668861Y-113043677D01*
X113668859Y-113043679D01*
X113625132Y-113103863D01*
X113567041Y-113183818D01*
X113488401Y-113338159D01*
X113434870Y-113502909D01*
X113434386Y-113505967D01*
X113407773Y-113673996D01*
X113068773Y-113673996D01*
X113041675Y-113502906D01*
X112988146Y-113338162D01*
X112909505Y-113183819D01*
X112807687Y-113043679D01*
X112685201Y-112921193D01*
X112545061Y-112819375D01*
X112390718Y-112740734D01*
X112225974Y-112687205D01*
X112225972Y-112687204D01*
X112225971Y-112687204D01*
X112074191Y-112663165D01*
X112054884Y-112660107D01*
X111881662Y-112660107D01*
X111862355Y-112663165D01*
X111710575Y-112687204D01*
X111545825Y-112740735D01*
X111391484Y-112819375D01*
X111311529Y-112877466D01*
X111251345Y-112921193D01*
X111251343Y-112921195D01*
X111251342Y-112921195D01*
X111152181Y-113020357D01*
X111090858Y-113053842D01*
X111021166Y-113048858D01*
X110965233Y-113006986D01*
X110940816Y-112941522D01*
X110940500Y-112932676D01*
X110940500Y-112048538D01*
X110960185Y-111981499D01*
X111012989Y-111935744D01*
X111082147Y-111925800D01*
X111145703Y-111954825D01*
X111152181Y-111960857D01*
X111251345Y-112060021D01*
X111391485Y-112161839D01*
X111545828Y-112240480D01*
X111710572Y-112294009D01*
X111881662Y-112321107D01*
X111881663Y-112321107D01*
X112054883Y-112321107D01*
X112054884Y-112321107D01*
X112225974Y-112294009D01*
X112390718Y-112240480D01*
X112545061Y-112161839D01*
X112685201Y-112060021D01*
X112807687Y-111937535D01*
X112909505Y-111797395D01*
X112988146Y-111643052D01*
X113041675Y-111478308D01*
X113068773Y-111307218D01*
X113068773Y-111133996D01*
X113407773Y-111133996D01*
X113407773Y-111307218D01*
X113434871Y-111478308D01*
X113488400Y-111643052D01*
X113567041Y-111797395D01*
X113668859Y-111937535D01*
X113791345Y-112060021D01*
X113931485Y-112161839D01*
X114085828Y-112240480D01*
X114250572Y-112294009D01*
X114421662Y-112321107D01*
X114421663Y-112321107D01*
X114594883Y-112321107D01*
X114594884Y-112321107D01*
X114765974Y-112294009D01*
X114930718Y-112240480D01*
X115085061Y-112161839D01*
X115225201Y-112060021D01*
X115347687Y-111937535D01*
X115449505Y-111797395D01*
X115528146Y-111643052D01*
X115581675Y-111478308D01*
X115608773Y-111307218D01*
X115608773Y-111133996D01*
X115581675Y-110962906D01*
X115528146Y-110798162D01*
X115449505Y-110643819D01*
X115347687Y-110503679D01*
X115225201Y-110381193D01*
X115085061Y-110279375D01*
X114930718Y-110200734D01*
X114765974Y-110147205D01*
X114765972Y-110147204D01*
X114765971Y-110147204D01*
X114614191Y-110123165D01*
X114594884Y-110120107D01*
X114421662Y-110120107D01*
X114402355Y-110123165D01*
X114250575Y-110147204D01*
X114085825Y-110200735D01*
X113931484Y-110279375D01*
X113877269Y-110318765D01*
X113791345Y-110381193D01*
X113791343Y-110381195D01*
X113791342Y-110381195D01*
X113668861Y-110503676D01*
X113668861Y-110503677D01*
X113668859Y-110503679D01*
X113625132Y-110563863D01*
X113567041Y-110643818D01*
X113488401Y-110798159D01*
X113434870Y-110962909D01*
X113434386Y-110965967D01*
X113407773Y-111133996D01*
X113068773Y-111133996D01*
X113041675Y-110962906D01*
X112988146Y-110798162D01*
X112909505Y-110643819D01*
X112807687Y-110503679D01*
X112685201Y-110381193D01*
X112545061Y-110279375D01*
X112390718Y-110200734D01*
X112225974Y-110147205D01*
X112225972Y-110147204D01*
X112225971Y-110147204D01*
X112074191Y-110123165D01*
X112054884Y-110120107D01*
X111881662Y-110120107D01*
X111862355Y-110123165D01*
X111710575Y-110147204D01*
X111545825Y-110200735D01*
X111391484Y-110279375D01*
X111337269Y-110318765D01*
X111251345Y-110381193D01*
X111251343Y-110381195D01*
X111251342Y-110381195D01*
X111152181Y-110480357D01*
X111090858Y-110513842D01*
X111021166Y-110508858D01*
X110965233Y-110466986D01*
X110940816Y-110401522D01*
X110940500Y-110392676D01*
X110940500Y-104428538D01*
X110960185Y-104361499D01*
X111012989Y-104315744D01*
X111082147Y-104305800D01*
X111145703Y-104334825D01*
X111152181Y-104340857D01*
X111251345Y-104440021D01*
X111391485Y-104541839D01*
X111545828Y-104620480D01*
X111710572Y-104674009D01*
X111881662Y-104701107D01*
X111881663Y-104701107D01*
X112054883Y-104701107D01*
X112054884Y-104701107D01*
X112225974Y-104674009D01*
X112390718Y-104620480D01*
X112545061Y-104541839D01*
X112642614Y-104470961D01*
X112708420Y-104447481D01*
X112776474Y-104463306D01*
X112825169Y-104513411D01*
X112839500Y-104571279D01*
X112839500Y-107303165D01*
X112839500Y-107391503D01*
X112861940Y-107475249D01*
X112862364Y-107476832D01*
X112906532Y-107553334D01*
X112906534Y-107553337D01*
X113466199Y-108113002D01*
X113499684Y-108174325D01*
X113494700Y-108244017D01*
X113489008Y-108256968D01*
X113488403Y-108258153D01*
X113488399Y-108258164D01*
X113434870Y-108422909D01*
X113428503Y-108463109D01*
X113407773Y-108593996D01*
X113407773Y-108767218D01*
X113434871Y-108938308D01*
X113488400Y-109103052D01*
X113567041Y-109257395D01*
X113668859Y-109397535D01*
X113791345Y-109520021D01*
X113931485Y-109621839D01*
X114085828Y-109700480D01*
X114250572Y-109754009D01*
X114421662Y-109781107D01*
X114421663Y-109781107D01*
X114594883Y-109781107D01*
X114594884Y-109781107D01*
X114765974Y-109754009D01*
X114930718Y-109700480D01*
X115085061Y-109621839D01*
X115225201Y-109520021D01*
X115347687Y-109397535D01*
X115449505Y-109257395D01*
X115528146Y-109103052D01*
X115581675Y-108938308D01*
X115608773Y-108767218D01*
X115608773Y-108593996D01*
X115581675Y-108422906D01*
X115528146Y-108258162D01*
X115449505Y-108103819D01*
X115347687Y-107963679D01*
X115225201Y-107841193D01*
X115085061Y-107739375D01*
X114930718Y-107660734D01*
X114765974Y-107607205D01*
X114765972Y-107607204D01*
X114765971Y-107607204D01*
X114614191Y-107583165D01*
X114594884Y-107580107D01*
X114421662Y-107580107D01*
X114402355Y-107583165D01*
X114250575Y-107607204D01*
X114085830Y-107660733D01*
X114085819Y-107660737D01*
X114084634Y-107661342D01*
X114084135Y-107661435D01*
X114081324Y-107662600D01*
X114081079Y-107662009D01*
X114015963Y-107674232D01*
X113951225Y-107647950D01*
X113940668Y-107638533D01*
X113546819Y-107244684D01*
X113532115Y-107217756D01*
X113515523Y-107191938D01*
X113514631Y-107185737D01*
X113513334Y-107183361D01*
X113510500Y-107157003D01*
X113510500Y-106998538D01*
X113530185Y-106931499D01*
X113582989Y-106885744D01*
X113652147Y-106875800D01*
X113715703Y-106904825D01*
X113722181Y-106910857D01*
X113791345Y-106980021D01*
X113931485Y-107081839D01*
X114085828Y-107160480D01*
X114250572Y-107214009D01*
X114421662Y-107241107D01*
X114421663Y-107241107D01*
X114594883Y-107241107D01*
X114594884Y-107241107D01*
X114765974Y-107214009D01*
X114930718Y-107160480D01*
X115085061Y-107081839D01*
X115225201Y-106980021D01*
X115347687Y-106857535D01*
X115347687Y-106857534D01*
X115351132Y-106854090D01*
X115352589Y-106855547D01*
X115403848Y-106822078D01*
X115439643Y-106816799D01*
X135428708Y-106816799D01*
X135430658Y-106816814D01*
X135445988Y-106817055D01*
X135455184Y-106819519D01*
X135602682Y-106819519D01*
X135603636Y-106819534D01*
X135615483Y-106823216D01*
X135663685Y-106836131D01*
X135737236Y-106878596D01*
X135806443Y-106897140D01*
X135866103Y-106933504D01*
X135896632Y-106996351D01*
X135888337Y-107065726D01*
X135862030Y-107104595D01*
X115026091Y-127940533D01*
X114964768Y-127974018D01*
X114900092Y-127970783D01*
X114765974Y-127927205D01*
X114765972Y-127927204D01*
X114765971Y-127927204D01*
X114614191Y-127903165D01*
X114594884Y-127900107D01*
X114421662Y-127900107D01*
X114402355Y-127903165D01*
X114250575Y-127927204D01*
X114085825Y-127980735D01*
X113931484Y-128059375D01*
X113851529Y-128117466D01*
X113791345Y-128161193D01*
X113791343Y-128161195D01*
X113791342Y-128161195D01*
X113668861Y-128283676D01*
X113668861Y-128283677D01*
X113668859Y-128283679D01*
X113625132Y-128343863D01*
X113567041Y-128423818D01*
X113488401Y-128578159D01*
X113434870Y-128742909D01*
X113407773Y-128913996D01*
X113407773Y-129087218D01*
X113434871Y-129258308D01*
X113488400Y-129423052D01*
X113567041Y-129577395D01*
X113668859Y-129717535D01*
X113791345Y-129840021D01*
X113931485Y-129941839D01*
X114085828Y-130020480D01*
X114250572Y-130074009D01*
X114421662Y-130101107D01*
X114421663Y-130101107D01*
X114594883Y-130101107D01*
X114594884Y-130101107D01*
X114765974Y-130074009D01*
X114930718Y-130020480D01*
X115085061Y-129941839D01*
X115225201Y-129840021D01*
X115347687Y-129717535D01*
X115449505Y-129577395D01*
X115528146Y-129423052D01*
X115581675Y-129258308D01*
X115608773Y-129087218D01*
X115608773Y-128913996D01*
X115599443Y-128855093D01*
X115608397Y-128785804D01*
X115634232Y-128748020D01*
X123766498Y-120615754D01*
X123827819Y-120582271D01*
X123897511Y-120587255D01*
X123953444Y-120629127D01*
X123977861Y-120694591D01*
X123973952Y-120735530D01*
X123955654Y-120803819D01*
X123939500Y-120864108D01*
X123939500Y-134995892D01*
X123947272Y-135024896D01*
X123973608Y-135123187D01*
X123993169Y-135157067D01*
X124039500Y-135237314D01*
X124132686Y-135330500D01*
X124246814Y-135396392D01*
X124374108Y-135430500D01*
X124374110Y-135430500D01*
X136505890Y-135430500D01*
X136505892Y-135430500D01*
X136633186Y-135396392D01*
X136747314Y-135330500D01*
X136840500Y-135237314D01*
X136906392Y-135123186D01*
X136940500Y-134995892D01*
X136940500Y-120864108D01*
X136906392Y-120736814D01*
X136840500Y-120622686D01*
X136747314Y-120529500D01*
X136690250Y-120496554D01*
X136633187Y-120463608D01*
X136542746Y-120439375D01*
X136505892Y-120429500D01*
X124505892Y-120429500D01*
X124374108Y-120429500D01*
X124245530Y-120463952D01*
X124175680Y-120462289D01*
X124117818Y-120423126D01*
X124090314Y-120358898D01*
X124101901Y-120289995D01*
X124125753Y-120256499D01*
X135885660Y-108496592D01*
X135946981Y-108463109D01*
X136016673Y-108468093D01*
X136072606Y-108509965D01*
X136080726Y-108522275D01*
X136118833Y-108588279D01*
X136118835Y-108588282D01*
X136118836Y-108588283D01*
X136230640Y-108700087D01*
X136230642Y-108700088D01*
X136230646Y-108700091D01*
X136346915Y-108767218D01*
X136367572Y-108779144D01*
X136520299Y-108820067D01*
X136582101Y-108820067D01*
X136649140Y-108839752D01*
X136669782Y-108856386D01*
X156563181Y-128749785D01*
X156596666Y-128811108D01*
X156599500Y-128837466D01*
X156599500Y-154074902D01*
X156579815Y-154141941D01*
X156563181Y-154162583D01*
X156519481Y-154206282D01*
X156519475Y-154206290D01*
X156440426Y-154343209D01*
X156440423Y-154343216D01*
X156399500Y-154495943D01*
X156399500Y-154654056D01*
X156440423Y-154806783D01*
X156440426Y-154806790D01*
X156519475Y-154943709D01*
X156519479Y-154943714D01*
X156519480Y-154943716D01*
X156631284Y-155055520D01*
X156631286Y-155055521D01*
X156631290Y-155055524D01*
X156768209Y-155134573D01*
X156768216Y-155134577D01*
X156920943Y-155175500D01*
X156920945Y-155175500D01*
X157079055Y-155175500D01*
X157079057Y-155175500D01*
X157231784Y-155134577D01*
X157368716Y-155055520D01*
X157480520Y-154943716D01*
X157559577Y-154806784D01*
X157600500Y-154654057D01*
X157600500Y-154495943D01*
X157559577Y-154343216D01*
X157559573Y-154343209D01*
X157480524Y-154206290D01*
X157480518Y-154206282D01*
X157436819Y-154162583D01*
X157403334Y-154101260D01*
X157400500Y-154074902D01*
X157400500Y-141617054D01*
X173861691Y-141617054D01*
X173861691Y-141790275D01*
X173888304Y-141958308D01*
X173888789Y-141961366D01*
X173942318Y-142126110D01*
X174020959Y-142280453D01*
X174122777Y-142420593D01*
X174245263Y-142543079D01*
X174385403Y-142644897D01*
X174539746Y-142723538D01*
X174704490Y-142777067D01*
X174875580Y-142804165D01*
X174875581Y-142804165D01*
X175048801Y-142804165D01*
X175048802Y-142804165D01*
X175219892Y-142777067D01*
X175384636Y-142723538D01*
X175538979Y-142644897D01*
X175679119Y-142543079D01*
X175801605Y-142420593D01*
X175903423Y-142280453D01*
X175982064Y-142126110D01*
X176035593Y-141961366D01*
X176062691Y-141790276D01*
X176062691Y-141617054D01*
X176035593Y-141445964D01*
X175982064Y-141281220D01*
X175903423Y-141126877D01*
X175801605Y-140986737D01*
X175679119Y-140864251D01*
X175538979Y-140762433D01*
X175384636Y-140683792D01*
X175219892Y-140630263D01*
X175219890Y-140630262D01*
X175219889Y-140630262D01*
X175088462Y-140609446D01*
X175048802Y-140603165D01*
X174875580Y-140603165D01*
X174835919Y-140609446D01*
X174704493Y-140630262D01*
X174704490Y-140630263D01*
X174549158Y-140680734D01*
X174539743Y-140683793D01*
X174385402Y-140762433D01*
X174305447Y-140820524D01*
X174245263Y-140864251D01*
X174245261Y-140864253D01*
X174245260Y-140864253D01*
X174122779Y-140986734D01*
X174122779Y-140986735D01*
X174122777Y-140986737D01*
X174079050Y-141046921D01*
X174020959Y-141126876D01*
X173942319Y-141281217D01*
X173888788Y-141445967D01*
X173861691Y-141617054D01*
X157400500Y-141617054D01*
X157400500Y-139077054D01*
X173861691Y-139077054D01*
X173861691Y-139250275D01*
X173888304Y-139418308D01*
X173888789Y-139421366D01*
X173942318Y-139586110D01*
X174020959Y-139740453D01*
X174122777Y-139880593D01*
X174245263Y-140003079D01*
X174385403Y-140104897D01*
X174539746Y-140183538D01*
X174704490Y-140237067D01*
X174875580Y-140264165D01*
X174875581Y-140264165D01*
X175048801Y-140264165D01*
X175048802Y-140264165D01*
X175219892Y-140237067D01*
X175384636Y-140183538D01*
X175538979Y-140104897D01*
X175679119Y-140003079D01*
X175801605Y-139880593D01*
X175903423Y-139740453D01*
X175982064Y-139586110D01*
X176035593Y-139421366D01*
X176062691Y-139250276D01*
X176062691Y-139077054D01*
X176035593Y-138905964D01*
X175982064Y-138741220D01*
X175903423Y-138586877D01*
X175801605Y-138446737D01*
X175679119Y-138324251D01*
X175538979Y-138222433D01*
X175384636Y-138143792D01*
X175219892Y-138090263D01*
X175219890Y-138090262D01*
X175219889Y-138090262D01*
X175088462Y-138069446D01*
X175048802Y-138063165D01*
X174875580Y-138063165D01*
X174835919Y-138069446D01*
X174704493Y-138090262D01*
X174704490Y-138090263D01*
X174549158Y-138140734D01*
X174539743Y-138143793D01*
X174385402Y-138222433D01*
X174305447Y-138280524D01*
X174245263Y-138324251D01*
X174245261Y-138324253D01*
X174245260Y-138324253D01*
X174122779Y-138446734D01*
X174122779Y-138446735D01*
X174122777Y-138446737D01*
X174079050Y-138506921D01*
X174020959Y-138586876D01*
X173942319Y-138741217D01*
X173888788Y-138905967D01*
X173861691Y-139077054D01*
X157400500Y-139077054D01*
X157400500Y-136537054D01*
X173861691Y-136537054D01*
X173861691Y-136710275D01*
X173888304Y-136878308D01*
X173888789Y-136881366D01*
X173942318Y-137046110D01*
X174020959Y-137200453D01*
X174122777Y-137340593D01*
X174245263Y-137463079D01*
X174385403Y-137564897D01*
X174539746Y-137643538D01*
X174704490Y-137697067D01*
X174875580Y-137724165D01*
X174875581Y-137724165D01*
X175048801Y-137724165D01*
X175048802Y-137724165D01*
X175219892Y-137697067D01*
X175384636Y-137643538D01*
X175538979Y-137564897D01*
X175679119Y-137463079D01*
X175801605Y-137340593D01*
X175903423Y-137200453D01*
X175982064Y-137046110D01*
X176035593Y-136881366D01*
X176062691Y-136710276D01*
X176062691Y-136537054D01*
X176035593Y-136365964D01*
X175982064Y-136201220D01*
X175903423Y-136046877D01*
X175801605Y-135906737D01*
X175679119Y-135784251D01*
X175538979Y-135682433D01*
X175384636Y-135603792D01*
X175219892Y-135550263D01*
X175219890Y-135550262D01*
X175219889Y-135550262D01*
X175088462Y-135529446D01*
X175048802Y-135523165D01*
X174875580Y-135523165D01*
X174835919Y-135529446D01*
X174704493Y-135550262D01*
X174704490Y-135550263D01*
X174549158Y-135600734D01*
X174539743Y-135603793D01*
X174385402Y-135682433D01*
X174305447Y-135740524D01*
X174245263Y-135784251D01*
X174245261Y-135784253D01*
X174245260Y-135784253D01*
X174122779Y-135906734D01*
X174122779Y-135906735D01*
X174122777Y-135906737D01*
X174079050Y-135966921D01*
X174020959Y-136046876D01*
X173942319Y-136201217D01*
X173888788Y-136365967D01*
X173861691Y-136537054D01*
X157400500Y-136537054D01*
X157400500Y-133997054D01*
X173861691Y-133997054D01*
X173861691Y-134170275D01*
X173888304Y-134338308D01*
X173888789Y-134341366D01*
X173942318Y-134506110D01*
X174020959Y-134660453D01*
X174122777Y-134800593D01*
X174245263Y-134923079D01*
X174385403Y-135024897D01*
X174539746Y-135103538D01*
X174704490Y-135157067D01*
X174875580Y-135184165D01*
X174875581Y-135184165D01*
X175048801Y-135184165D01*
X175048802Y-135184165D01*
X175219892Y-135157067D01*
X175384636Y-135103538D01*
X175538979Y-135024897D01*
X175679119Y-134923079D01*
X175801605Y-134800593D01*
X175903423Y-134660453D01*
X175982064Y-134506110D01*
X176035593Y-134341366D01*
X176062691Y-134170276D01*
X176062691Y-133997054D01*
X176035593Y-133825964D01*
X175982064Y-133661220D01*
X175903423Y-133506877D01*
X175801605Y-133366737D01*
X175679119Y-133244251D01*
X175538979Y-133142433D01*
X175384636Y-133063792D01*
X175219892Y-133010263D01*
X175219890Y-133010262D01*
X175219889Y-133010262D01*
X175088462Y-132989446D01*
X175048802Y-132983165D01*
X174875580Y-132983165D01*
X174835919Y-132989446D01*
X174704493Y-133010262D01*
X174704490Y-133010263D01*
X174549158Y-133060734D01*
X174539743Y-133063793D01*
X174385402Y-133142433D01*
X174305447Y-133200524D01*
X174245263Y-133244251D01*
X174245261Y-133244253D01*
X174245260Y-133244253D01*
X174122779Y-133366734D01*
X174122779Y-133366735D01*
X174122777Y-133366737D01*
X174079050Y-133426921D01*
X174020959Y-133506876D01*
X173942319Y-133661217D01*
X173888788Y-133825967D01*
X173861691Y-133997054D01*
X157400500Y-133997054D01*
X157400500Y-132045943D01*
X170849500Y-132045943D01*
X170849500Y-132204057D01*
X170875610Y-132301499D01*
X170890423Y-132356783D01*
X170890426Y-132356790D01*
X170969475Y-132493709D01*
X170969479Y-132493714D01*
X170969480Y-132493716D01*
X171081284Y-132605520D01*
X171081286Y-132605521D01*
X171081290Y-132605524D01*
X171218209Y-132684573D01*
X171218216Y-132684577D01*
X171370943Y-132725500D01*
X171370945Y-132725500D01*
X171529055Y-132725500D01*
X171529057Y-132725500D01*
X171681784Y-132684577D01*
X171818716Y-132605520D01*
X171930520Y-132493716D01*
X172009577Y-132356784D01*
X172050500Y-132204057D01*
X172050500Y-132045943D01*
X172009577Y-131893216D01*
X171956546Y-131801362D01*
X171930524Y-131756290D01*
X171930518Y-131756282D01*
X171818717Y-131644481D01*
X171818709Y-131644475D01*
X171681790Y-131565425D01*
X171681784Y-131565423D01*
X171529057Y-131524500D01*
X171370943Y-131524500D01*
X171218216Y-131565423D01*
X171218209Y-131565426D01*
X171081290Y-131644475D01*
X171081282Y-131644481D01*
X170969481Y-131756282D01*
X170969475Y-131756290D01*
X170890426Y-131893209D01*
X170890423Y-131893216D01*
X170849500Y-132045943D01*
X157400500Y-132045943D01*
X157400500Y-131457054D01*
X173861691Y-131457054D01*
X173861691Y-131630275D01*
X173888304Y-131798308D01*
X173888789Y-131801366D01*
X173942318Y-131966110D01*
X174020959Y-132120453D01*
X174122777Y-132260593D01*
X174245263Y-132383079D01*
X174385403Y-132484897D01*
X174539746Y-132563538D01*
X174704490Y-132617067D01*
X174875580Y-132644165D01*
X174875581Y-132644165D01*
X175048801Y-132644165D01*
X175048802Y-132644165D01*
X175219892Y-132617067D01*
X175384636Y-132563538D01*
X175538979Y-132484897D01*
X175679119Y-132383079D01*
X175801605Y-132260593D01*
X175903423Y-132120453D01*
X175982064Y-131966110D01*
X176035593Y-131801366D01*
X176062691Y-131630276D01*
X176062691Y-131457054D01*
X176035593Y-131285964D01*
X175982064Y-131121220D01*
X175903423Y-130966877D01*
X175801605Y-130826737D01*
X175679119Y-130704251D01*
X175538979Y-130602433D01*
X175384636Y-130523792D01*
X175219892Y-130470263D01*
X175219890Y-130470262D01*
X175219889Y-130470262D01*
X175088462Y-130449446D01*
X175048802Y-130443165D01*
X174875580Y-130443165D01*
X174835919Y-130449446D01*
X174704493Y-130470262D01*
X174704490Y-130470263D01*
X174549158Y-130520734D01*
X174539743Y-130523793D01*
X174385402Y-130602433D01*
X174305447Y-130660524D01*
X174245263Y-130704251D01*
X174245261Y-130704253D01*
X174245260Y-130704253D01*
X174122779Y-130826734D01*
X174122779Y-130826735D01*
X174122777Y-130826737D01*
X174079050Y-130886921D01*
X174020959Y-130966876D01*
X173942319Y-131121217D01*
X173888788Y-131285967D01*
X173861691Y-131457054D01*
X157400500Y-131457054D01*
X157400500Y-128757676D01*
X157420185Y-128690637D01*
X157472989Y-128644882D01*
X157542147Y-128634938D01*
X157605703Y-128663963D01*
X157612181Y-128669995D01*
X158346351Y-129404165D01*
X158460479Y-129470057D01*
X158587773Y-129504165D01*
X158719557Y-129504165D01*
X173906101Y-129504165D01*
X173973140Y-129523850D01*
X174016584Y-129571867D01*
X174020956Y-129580448D01*
X174020961Y-129580457D01*
X174063291Y-129638718D01*
X174122777Y-129720593D01*
X174245263Y-129843079D01*
X174385403Y-129944897D01*
X174539746Y-130023538D01*
X174704490Y-130077067D01*
X174875580Y-130104165D01*
X174875581Y-130104165D01*
X175048801Y-130104165D01*
X175048802Y-130104165D01*
X175219892Y-130077067D01*
X175384636Y-130023538D01*
X175538979Y-129944897D01*
X175679119Y-129843079D01*
X175801605Y-129720593D01*
X175903423Y-129580453D01*
X175982064Y-129426110D01*
X176035593Y-129261366D01*
X176062691Y-129090276D01*
X176062691Y-128917054D01*
X176035593Y-128745964D01*
X175982064Y-128581220D01*
X175903423Y-128426877D01*
X175801605Y-128286737D01*
X175679119Y-128164251D01*
X175538979Y-128062433D01*
X175384636Y-127983792D01*
X175219892Y-127930263D01*
X175219890Y-127930262D01*
X175219889Y-127930262D01*
X175088462Y-127909446D01*
X175048802Y-127903165D01*
X174875580Y-127903165D01*
X174835919Y-127909446D01*
X174704493Y-127930262D01*
X174704490Y-127930263D01*
X174549158Y-127980734D01*
X174539743Y-127983793D01*
X174385402Y-128062433D01*
X174305447Y-128120524D01*
X174245263Y-128164251D01*
X174245261Y-128164253D01*
X174245260Y-128164253D01*
X174122779Y-128286734D01*
X174122779Y-128286735D01*
X174122777Y-128286737D01*
X174097231Y-128321897D01*
X174020961Y-128426872D01*
X174020956Y-128426881D01*
X174016584Y-128435463D01*
X173968609Y-128486257D01*
X173906101Y-128503165D01*
X158912341Y-128503165D01*
X158845302Y-128483480D01*
X158824660Y-128466846D01*
X137888651Y-107530837D01*
X137856557Y-107475250D01*
X137834577Y-107393216D01*
X137782587Y-107303165D01*
X137755524Y-107256290D01*
X137755518Y-107256282D01*
X137643717Y-107144481D01*
X137643712Y-107144477D01*
X137526307Y-107076694D01*
X137509056Y-107058602D01*
X137489039Y-107043617D01*
X137485358Y-107033747D01*
X137478092Y-107026127D01*
X137473360Y-107001578D01*
X137464623Y-106978152D01*
X137466861Y-106967862D01*
X137464868Y-106957520D01*
X137474160Y-106934308D01*
X137479475Y-106909879D01*
X137489074Y-106897055D01*
X137490836Y-106892656D01*
X137500607Y-106881646D01*
X137673436Y-106708816D01*
X137734759Y-106675334D01*
X137761116Y-106672500D01*
X158243890Y-106672500D01*
X158243892Y-106672500D01*
X158371186Y-106638392D01*
X158485314Y-106572500D01*
X161325181Y-103732631D01*
X161386502Y-103699148D01*
X161456194Y-103704132D01*
G37*
%TD.AperFunction*%
%TA.AperFunction,Conductor*%
G36*
X176292899Y-102872850D02*
G01*
X176313541Y-102889484D01*
X176460117Y-103036060D01*
X176493602Y-103097383D01*
X176488618Y-103167075D01*
X176482926Y-103180026D01*
X176482321Y-103181211D01*
X176482317Y-103181222D01*
X176428788Y-103345967D01*
X176401691Y-103517054D01*
X176401691Y-103690275D01*
X176428304Y-103858308D01*
X176428789Y-103861366D01*
X176482318Y-104026110D01*
X176560959Y-104180453D01*
X176662777Y-104320593D01*
X176785263Y-104443079D01*
X176925403Y-104544897D01*
X177079746Y-104623538D01*
X177244490Y-104677067D01*
X177415580Y-104704165D01*
X177415581Y-104704165D01*
X177588801Y-104704165D01*
X177588802Y-104704165D01*
X177759892Y-104677067D01*
X177924636Y-104623538D01*
X178078979Y-104544897D01*
X178219119Y-104443079D01*
X178317819Y-104344379D01*
X178379142Y-104310894D01*
X178448834Y-104315878D01*
X178504767Y-104357750D01*
X178529184Y-104423214D01*
X178529500Y-104432060D01*
X178529500Y-107855270D01*
X178509815Y-107922309D01*
X178457011Y-107968064D01*
X178387853Y-107978008D01*
X178324297Y-107948983D01*
X178317819Y-107942951D01*
X178219121Y-107844253D01*
X178219119Y-107844251D01*
X178078979Y-107742433D01*
X177924636Y-107663792D01*
X177759892Y-107610263D01*
X177759890Y-107610262D01*
X177759889Y-107610262D01*
X177628462Y-107589446D01*
X177588802Y-107583165D01*
X177415580Y-107583165D01*
X177375919Y-107589446D01*
X177244493Y-107610262D01*
X177244490Y-107610263D01*
X177085234Y-107662009D01*
X177079743Y-107663793D01*
X176925402Y-107742433D01*
X176897385Y-107762789D01*
X176785263Y-107844251D01*
X176785261Y-107844253D01*
X176785260Y-107844253D01*
X176662779Y-107966734D01*
X176662779Y-107966735D01*
X176662777Y-107966737D01*
X176619050Y-108026921D01*
X176560959Y-108106876D01*
X176482319Y-108261217D01*
X176428788Y-108425967D01*
X176413535Y-108522275D01*
X176401691Y-108597054D01*
X176401691Y-108770276D01*
X176403096Y-108779144D01*
X176428304Y-108938308D01*
X176428789Y-108941366D01*
X176482318Y-109106110D01*
X176560959Y-109260453D01*
X176662777Y-109400593D01*
X176785263Y-109523079D01*
X176925403Y-109624897D01*
X177079746Y-109703538D01*
X177244490Y-109757067D01*
X177415580Y-109784165D01*
X177415581Y-109784165D01*
X177588801Y-109784165D01*
X177588802Y-109784165D01*
X177759892Y-109757067D01*
X177924636Y-109703538D01*
X178078979Y-109624897D01*
X178219119Y-109523079D01*
X178317819Y-109424379D01*
X178379142Y-109390894D01*
X178448834Y-109395878D01*
X178504767Y-109437750D01*
X178529184Y-109503214D01*
X178529500Y-109512060D01*
X178529500Y-110395270D01*
X178509815Y-110462309D01*
X178457011Y-110508064D01*
X178387853Y-110518008D01*
X178324297Y-110488983D01*
X178317819Y-110482951D01*
X178219121Y-110384253D01*
X178219119Y-110384251D01*
X178078979Y-110282433D01*
X177924636Y-110203792D01*
X177759892Y-110150263D01*
X177759890Y-110150262D01*
X177759889Y-110150262D01*
X177628462Y-110129446D01*
X177588802Y-110123165D01*
X177415580Y-110123165D01*
X177375919Y-110129446D01*
X177244493Y-110150262D01*
X177079748Y-110203791D01*
X177079737Y-110203795D01*
X177078552Y-110204400D01*
X177078053Y-110204493D01*
X177075242Y-110205658D01*
X177074997Y-110205067D01*
X177009881Y-110217290D01*
X176945143Y-110191008D01*
X176934586Y-110181591D01*
X176434529Y-109681534D01*
X176434528Y-109681533D01*
X176358024Y-109637364D01*
X176358025Y-109637364D01*
X176336691Y-109631648D01*
X176272695Y-109614500D01*
X176272692Y-109614500D01*
X175887060Y-109614500D01*
X175820021Y-109594815D01*
X175774266Y-109542011D01*
X175764322Y-109472853D01*
X175793347Y-109409297D01*
X175799379Y-109402819D01*
X175801605Y-109400593D01*
X175903423Y-109260453D01*
X175982064Y-109106110D01*
X176035593Y-108941366D01*
X176062691Y-108770276D01*
X176062691Y-108597054D01*
X176035593Y-108425964D01*
X175982064Y-108261220D01*
X175903423Y-108106877D01*
X175801605Y-107966737D01*
X175679119Y-107844251D01*
X175538979Y-107742433D01*
X175384636Y-107663792D01*
X175219892Y-107610263D01*
X175219890Y-107610262D01*
X175219889Y-107610262D01*
X175088462Y-107589446D01*
X175048802Y-107583165D01*
X174875580Y-107583165D01*
X174835919Y-107589446D01*
X174704493Y-107610262D01*
X174704490Y-107610263D01*
X174545234Y-107662009D01*
X174539743Y-107663793D01*
X174385399Y-107742434D01*
X174357384Y-107762789D01*
X174291578Y-107786268D01*
X174223524Y-107770442D01*
X174174830Y-107720335D01*
X174160500Y-107662470D01*
X174160500Y-107164859D01*
X174180185Y-107097820D01*
X174232989Y-107052065D01*
X174302147Y-107042121D01*
X174357386Y-107064542D01*
X174385398Y-107084894D01*
X174385400Y-107084895D01*
X174385403Y-107084897D01*
X174539746Y-107163538D01*
X174704490Y-107217067D01*
X174875580Y-107244165D01*
X174875581Y-107244165D01*
X175048801Y-107244165D01*
X175048802Y-107244165D01*
X175219892Y-107217067D01*
X175384636Y-107163538D01*
X175538979Y-107084897D01*
X175679119Y-106983079D01*
X175801605Y-106860593D01*
X175903423Y-106720453D01*
X175982064Y-106566110D01*
X176035593Y-106401366D01*
X176062691Y-106230276D01*
X176062691Y-106057054D01*
X176035593Y-105885964D01*
X175982064Y-105721220D01*
X175903423Y-105566877D01*
X175801605Y-105426737D01*
X175679119Y-105304251D01*
X175538979Y-105202433D01*
X175384636Y-105123792D01*
X175219892Y-105070263D01*
X175219890Y-105070262D01*
X175219889Y-105070262D01*
X175088462Y-105049446D01*
X175048802Y-105043165D01*
X174875580Y-105043165D01*
X174835919Y-105049446D01*
X174704493Y-105070262D01*
X174539743Y-105123793D01*
X174385399Y-105202434D01*
X174357384Y-105222789D01*
X174291578Y-105246268D01*
X174223524Y-105230442D01*
X174174830Y-105180335D01*
X174160500Y-105122470D01*
X174160500Y-104624859D01*
X174180185Y-104557820D01*
X174232989Y-104512065D01*
X174302147Y-104502121D01*
X174357386Y-104524542D01*
X174385398Y-104544894D01*
X174385400Y-104544895D01*
X174385403Y-104544897D01*
X174539746Y-104623538D01*
X174704490Y-104677067D01*
X174875580Y-104704165D01*
X174875581Y-104704165D01*
X175048801Y-104704165D01*
X175048802Y-104704165D01*
X175219892Y-104677067D01*
X175384636Y-104623538D01*
X175538979Y-104544897D01*
X175679119Y-104443079D01*
X175801605Y-104320593D01*
X175903423Y-104180453D01*
X175982064Y-104026110D01*
X176035593Y-103861366D01*
X176062691Y-103690276D01*
X176062691Y-103517054D01*
X176035593Y-103345964D01*
X175982064Y-103181220D01*
X175906776Y-103033459D01*
X175906268Y-103030754D01*
X175904468Y-103028676D01*
X175899859Y-102996624D01*
X175893881Y-102964790D01*
X175894915Y-102962241D01*
X175894524Y-102959518D01*
X175907980Y-102930052D01*
X175920158Y-102900050D01*
X175922405Y-102898465D01*
X175923549Y-102895962D01*
X175950797Y-102878450D01*
X175977264Y-102859793D01*
X175980720Y-102859220D01*
X175982327Y-102858188D01*
X176017262Y-102853165D01*
X176225860Y-102853165D01*
X176292899Y-102872850D01*
G37*
%TD.AperFunction*%
%TA.AperFunction,Conductor*%
G36*
X178472539Y-58530185D02*
G01*
X178518294Y-58582989D01*
X178529500Y-58634500D01*
X178529500Y-65125500D01*
X178509815Y-65192539D01*
X178457011Y-65238294D01*
X178405500Y-65249500D01*
X172284108Y-65249500D01*
X172156812Y-65283608D01*
X172042686Y-65349500D01*
X172042683Y-65349502D01*
X171949502Y-65442683D01*
X171949500Y-65442686D01*
X171883608Y-65556812D01*
X171849500Y-65684108D01*
X171849500Y-88315891D01*
X171883608Y-88443187D01*
X171916554Y-88500250D01*
X171949500Y-88557314D01*
X172042686Y-88650500D01*
X172156814Y-88716392D01*
X172284108Y-88750500D01*
X172415892Y-88750500D01*
X178405500Y-88750500D01*
X178472539Y-88770185D01*
X178518294Y-88822989D01*
X178529500Y-88874500D01*
X178529500Y-92615270D01*
X178509815Y-92682309D01*
X178457011Y-92728064D01*
X178387853Y-92738008D01*
X178324297Y-92708983D01*
X178317819Y-92702951D01*
X178219121Y-92604253D01*
X178219119Y-92604251D01*
X178078979Y-92502433D01*
X177924636Y-92423792D01*
X177924635Y-92423791D01*
X177924634Y-92423791D01*
X177924629Y-92423788D01*
X177923356Y-92423375D01*
X177922935Y-92423087D01*
X177920143Y-92421931D01*
X177920386Y-92421343D01*
X177865686Y-92383930D01*
X177838497Y-92319567D01*
X177837691Y-92305450D01*
X177837691Y-91883024D01*
X177837691Y-91883022D01*
X177814827Y-91797693D01*
X177770658Y-91721189D01*
X177708193Y-91658724D01*
X175748617Y-89699148D01*
X175672113Y-89654979D01*
X175672114Y-89654979D01*
X175650780Y-89649263D01*
X175586784Y-89632115D01*
X143726555Y-89632115D01*
X143638216Y-89632115D01*
X143574219Y-89649263D01*
X143552886Y-89654979D01*
X143476384Y-89699147D01*
X143476381Y-89699149D01*
X142687350Y-90488181D01*
X142626027Y-90521666D01*
X142599669Y-90524500D01*
X142587399Y-90524500D01*
X142506775Y-90546103D01*
X142466463Y-90556905D01*
X142358037Y-90619504D01*
X142358034Y-90619506D01*
X142269506Y-90708034D01*
X142269504Y-90708037D01*
X142206905Y-90816463D01*
X142206905Y-90816464D01*
X142174500Y-90937399D01*
X142174500Y-91062601D01*
X142206905Y-91183536D01*
X142269505Y-91291964D01*
X142358036Y-91380495D01*
X142466464Y-91443095D01*
X142587399Y-91475500D01*
X142587401Y-91475500D01*
X142712599Y-91475500D01*
X142712601Y-91475500D01*
X142833536Y-91443095D01*
X142941964Y-91380495D01*
X143030495Y-91291964D01*
X143093095Y-91183536D01*
X143125500Y-91062601D01*
X143125500Y-91062399D01*
X157099500Y-91062399D01*
X157099500Y-91187601D01*
X157131905Y-91308536D01*
X157194505Y-91416964D01*
X157283036Y-91505495D01*
X157391464Y-91568095D01*
X157512399Y-91600500D01*
X157512401Y-91600500D01*
X157637599Y-91600500D01*
X157637601Y-91600500D01*
X157758536Y-91568095D01*
X157866964Y-91505495D01*
X157875640Y-91496819D01*
X157936963Y-91463334D01*
X157963321Y-91460500D01*
X170486679Y-91460500D01*
X170553718Y-91480185D01*
X170574360Y-91496819D01*
X170583036Y-91505495D01*
X170691464Y-91568095D01*
X170812399Y-91600500D01*
X170812401Y-91600500D01*
X170937599Y-91600500D01*
X170937601Y-91600500D01*
X171058536Y-91568095D01*
X171166964Y-91505495D01*
X171255495Y-91416964D01*
X171318095Y-91308536D01*
X171350500Y-91187601D01*
X171350500Y-91062399D01*
X171318095Y-90941464D01*
X171255495Y-90833036D01*
X171166964Y-90744505D01*
X171058536Y-90681905D01*
X171058537Y-90681905D01*
X171018224Y-90671103D01*
X170937601Y-90649500D01*
X170812399Y-90649500D01*
X170731775Y-90671103D01*
X170691463Y-90681905D01*
X170583037Y-90744504D01*
X170583034Y-90744506D01*
X170574360Y-90753181D01*
X170513037Y-90786666D01*
X170486679Y-90789500D01*
X157963321Y-90789500D01*
X157896282Y-90769815D01*
X157875640Y-90753181D01*
X157866965Y-90744506D01*
X157866964Y-90744505D01*
X157758536Y-90681905D01*
X157758537Y-90681905D01*
X157718224Y-90671103D01*
X157637601Y-90649500D01*
X157512399Y-90649500D01*
X157431775Y-90671103D01*
X157391463Y-90681905D01*
X157283037Y-90744504D01*
X157283034Y-90744506D01*
X157194506Y-90833034D01*
X157194504Y-90833037D01*
X157131905Y-90941463D01*
X157131905Y-90941464D01*
X157099500Y-91062399D01*
X143125500Y-91062399D01*
X143125500Y-91050331D01*
X143145185Y-90983292D01*
X143161819Y-90962650D01*
X143785035Y-90339434D01*
X143846358Y-90305949D01*
X143872716Y-90303115D01*
X175352284Y-90303115D01*
X175419323Y-90322800D01*
X175439965Y-90339434D01*
X177130372Y-92029841D01*
X177145075Y-92056768D01*
X177161668Y-92082587D01*
X177162559Y-92088787D01*
X177163857Y-92091164D01*
X177166691Y-92117522D01*
X177166691Y-92305450D01*
X177147006Y-92372489D01*
X177094202Y-92418244D01*
X177081026Y-92423375D01*
X177079752Y-92423788D01*
X177079747Y-92423791D01*
X176925403Y-92502432D01*
X176894649Y-92524777D01*
X176865204Y-92535282D01*
X176836483Y-92547581D01*
X176832575Y-92546923D01*
X176828842Y-92548256D01*
X176798400Y-92541176D01*
X176767581Y-92535994D01*
X176764648Y-92533327D01*
X176760788Y-92532430D01*
X176739004Y-92510015D01*
X176715882Y-92488994D01*
X176713759Y-92484038D01*
X176712094Y-92482324D01*
X176701989Y-92456550D01*
X176701691Y-92455437D01*
X176701691Y-92455435D01*
X176683765Y-92388534D01*
X176678828Y-92370108D01*
X176634659Y-92293604D01*
X176634658Y-92293602D01*
X176572193Y-92231137D01*
X176572192Y-92231136D01*
X176505298Y-92164241D01*
X176505297Y-92164240D01*
X176498233Y-92157176D01*
X176498220Y-92157165D01*
X176460160Y-92119105D01*
X176460158Y-92119102D01*
X176380255Y-92039199D01*
X176380254Y-92039198D01*
X176303750Y-91995029D01*
X176303751Y-91995029D01*
X176282417Y-91989313D01*
X176218421Y-91972165D01*
X173824321Y-91972165D01*
X173735982Y-91972165D01*
X173735981Y-91972165D01*
X173695411Y-91983036D01*
X173695410Y-91983035D01*
X173650658Y-91995027D01*
X173650649Y-91995031D01*
X173642558Y-91999703D01*
X173580557Y-92016317D01*
X143143208Y-92016317D01*
X143076169Y-91996632D01*
X143055527Y-91979998D01*
X142970035Y-91894506D01*
X142970034Y-91894505D01*
X142861606Y-91831905D01*
X142861607Y-91831905D01*
X142821294Y-91821103D01*
X142740671Y-91799500D01*
X142615469Y-91799500D01*
X142534845Y-91821103D01*
X142494533Y-91831905D01*
X142386107Y-91894504D01*
X142386104Y-91894506D01*
X142297576Y-91983034D01*
X142297576Y-91983035D01*
X142297575Y-91983036D01*
X142271117Y-92028863D01*
X142234975Y-92091463D01*
X142234975Y-92091464D01*
X142202570Y-92212399D01*
X142202570Y-92337601D01*
X142234975Y-92458536D01*
X142286384Y-92547581D01*
X142297574Y-92566962D01*
X142297576Y-92566965D01*
X142386106Y-92655495D01*
X142407095Y-92667613D01*
X142455310Y-92718180D01*
X142468532Y-92786788D01*
X142442564Y-92851652D01*
X142407095Y-92882387D01*
X142386106Y-92894504D01*
X142297576Y-92983034D01*
X142297574Y-92983037D01*
X142234975Y-93091463D01*
X142234975Y-93091464D01*
X142202570Y-93212399D01*
X142202570Y-93337601D01*
X142234975Y-93458536D01*
X142297575Y-93566964D01*
X142386106Y-93655495D01*
X142386107Y-93655496D01*
X142386109Y-93655497D01*
X142394594Y-93660396D01*
X142442810Y-93710963D01*
X142456032Y-93779570D01*
X142430064Y-93844435D01*
X142394595Y-93875170D01*
X142361106Y-93894504D01*
X142272576Y-93983034D01*
X142272574Y-93983037D01*
X142209975Y-94091463D01*
X142193772Y-94151931D01*
X142177570Y-94212399D01*
X142177570Y-94337601D01*
X142209975Y-94458536D01*
X142272575Y-94566964D01*
X142361106Y-94655495D01*
X142394593Y-94674828D01*
X142442809Y-94725394D01*
X142456033Y-94794001D01*
X142430066Y-94858866D01*
X142394599Y-94889600D01*
X142386112Y-94894500D01*
X142386104Y-94894506D01*
X142297576Y-94983034D01*
X142297574Y-94983037D01*
X142234975Y-95091463D01*
X142220830Y-95144253D01*
X142202570Y-95212399D01*
X142202570Y-95337601D01*
X142234975Y-95458536D01*
X142293857Y-95560525D01*
X142297574Y-95566962D01*
X142297576Y-95566965D01*
X142386106Y-95655495D01*
X142407095Y-95667613D01*
X142455310Y-95718180D01*
X142468532Y-95786788D01*
X142442564Y-95851652D01*
X142407095Y-95882387D01*
X142386106Y-95894504D01*
X142297576Y-95983034D01*
X142297574Y-95983037D01*
X142234975Y-96091463D01*
X142234975Y-96091464D01*
X142202570Y-96212399D01*
X142202570Y-96337601D01*
X142234975Y-96458536D01*
X142292050Y-96557395D01*
X142297574Y-96566962D01*
X142297576Y-96566965D01*
X142386106Y-96655495D01*
X142407095Y-96667613D01*
X142455310Y-96718180D01*
X142468532Y-96786788D01*
X142442564Y-96851652D01*
X142407095Y-96882387D01*
X142386106Y-96894504D01*
X142297576Y-96983034D01*
X142297574Y-96983037D01*
X142234975Y-97091463D01*
X142227461Y-97119505D01*
X142202570Y-97212399D01*
X142202570Y-97337601D01*
X142234975Y-97458536D01*
X142262180Y-97505658D01*
X142297574Y-97566962D01*
X142297576Y-97566965D01*
X142386106Y-97655495D01*
X142407095Y-97667613D01*
X142455310Y-97718180D01*
X142468532Y-97786788D01*
X142442564Y-97851652D01*
X142407095Y-97882387D01*
X142386106Y-97894504D01*
X142297576Y-97983034D01*
X142297574Y-97983037D01*
X142234975Y-98091463D01*
X142226665Y-98122475D01*
X142202570Y-98212399D01*
X142202570Y-98337601D01*
X142234975Y-98458536D01*
X142297575Y-98566964D01*
X142386106Y-98655495D01*
X142386107Y-98655496D01*
X142386109Y-98655497D01*
X142428745Y-98680113D01*
X142476961Y-98730680D01*
X142490184Y-98799287D01*
X142464216Y-98864152D01*
X142428745Y-98894887D01*
X142386109Y-98919502D01*
X142386104Y-98919506D01*
X142297576Y-99008034D01*
X142297574Y-99008037D01*
X142234975Y-99116463D01*
X142231686Y-99128738D01*
X142202570Y-99237399D01*
X142202570Y-99362601D01*
X142234975Y-99483536D01*
X142297575Y-99591964D01*
X142386106Y-99680495D01*
X142386107Y-99680496D01*
X142386109Y-99680497D01*
X142393061Y-99684511D01*
X142441275Y-99735079D01*
X142454497Y-99803686D01*
X142428528Y-99868550D01*
X142393059Y-99899284D01*
X142358039Y-99919502D01*
X142358034Y-99919506D01*
X142269506Y-100008034D01*
X142269504Y-100008037D01*
X142206905Y-100116463D01*
X142204249Y-100126377D01*
X142174500Y-100237399D01*
X142174500Y-100362601D01*
X142206905Y-100483536D01*
X142269505Y-100591964D01*
X142358036Y-100680495D01*
X142436361Y-100725715D01*
X142484576Y-100776281D01*
X142497800Y-100844887D01*
X142471832Y-100909753D01*
X142436362Y-100940488D01*
X142386112Y-100969500D01*
X142386104Y-100969506D01*
X142297576Y-101058034D01*
X142297574Y-101058037D01*
X142234975Y-101166463D01*
X142234975Y-101166464D01*
X142202570Y-101287399D01*
X142202570Y-101412601D01*
X142234975Y-101533536D01*
X142297575Y-101641964D01*
X142386106Y-101730495D01*
X142494534Y-101793095D01*
X142615469Y-101825500D01*
X142615471Y-101825500D01*
X142740669Y-101825500D01*
X142740671Y-101825500D01*
X142861606Y-101793095D01*
X142970034Y-101730495D01*
X143058565Y-101641964D01*
X143089343Y-101588653D01*
X143139910Y-101540438D01*
X143196731Y-101526653D01*
X171476474Y-101526653D01*
X171543513Y-101546338D01*
X171564155Y-101562972D01*
X173082181Y-103080997D01*
X173096884Y-103107924D01*
X173113477Y-103133743D01*
X173114368Y-103139943D01*
X173115666Y-103142320D01*
X173118500Y-103168678D01*
X173118500Y-103322188D01*
X173098815Y-103389227D01*
X173046011Y-103434982D01*
X172976853Y-103444926D01*
X172962409Y-103441963D01*
X172915896Y-103429500D01*
X172915892Y-103429500D01*
X171385635Y-103429500D01*
X171318596Y-103409815D01*
X171272841Y-103357011D01*
X171262897Y-103287853D01*
X171265860Y-103273407D01*
X171268284Y-103264362D01*
X171296500Y-103159057D01*
X171296500Y-103000943D01*
X171255577Y-102848216D01*
X171213462Y-102775270D01*
X171176524Y-102711290D01*
X171176518Y-102711282D01*
X171064717Y-102599481D01*
X171064709Y-102599475D01*
X170927790Y-102520426D01*
X170927786Y-102520424D01*
X170927784Y-102520423D01*
X170775057Y-102479500D01*
X170616943Y-102479500D01*
X170464216Y-102520423D01*
X170464215Y-102520423D01*
X170370644Y-102574446D01*
X170355651Y-102581803D01*
X170348351Y-102584793D01*
X170240814Y-102613608D01*
X170149944Y-102666071D01*
X170142198Y-102669245D01*
X170121877Y-102671349D01*
X170095192Y-102678500D01*
X169751032Y-102678500D01*
X169683993Y-102658815D01*
X169638238Y-102606011D01*
X169628294Y-102536853D01*
X169631254Y-102522418D01*
X169648500Y-102458057D01*
X169648500Y-102299943D01*
X169607577Y-102147216D01*
X169599952Y-102134009D01*
X169528524Y-102010290D01*
X169528518Y-102010282D01*
X169416717Y-101898481D01*
X169416709Y-101898475D01*
X169279790Y-101819426D01*
X169279786Y-101819424D01*
X169279784Y-101819423D01*
X169127057Y-101778500D01*
X168968943Y-101778500D01*
X168816216Y-101819423D01*
X168816209Y-101819426D01*
X168679290Y-101898475D01*
X168679282Y-101898481D01*
X168636583Y-101941181D01*
X168575260Y-101974666D01*
X168548902Y-101977500D01*
X164274086Y-101977500D01*
X164263698Y-101976819D01*
X164260787Y-101976819D01*
X160712573Y-101976819D01*
X160580788Y-101976819D01*
X160487411Y-102001839D01*
X160487410Y-102001838D01*
X160453496Y-102010926D01*
X160453495Y-102010926D01*
X160339367Y-102076819D01*
X160339364Y-102076821D01*
X157543005Y-104873181D01*
X157481682Y-104906666D01*
X157455324Y-104909500D01*
X135135098Y-104909500D01*
X135068059Y-104889815D01*
X135047417Y-104873181D01*
X135043717Y-104869481D01*
X135043709Y-104869475D01*
X134906790Y-104790426D01*
X134906786Y-104790424D01*
X134906784Y-104790423D01*
X134754057Y-104749500D01*
X134595943Y-104749500D01*
X134443216Y-104790423D01*
X134443213Y-104790424D01*
X134369666Y-104832887D01*
X134307666Y-104849500D01*
X124733676Y-104849500D01*
X124666637Y-104829815D01*
X124645995Y-104813181D01*
X120386819Y-100554005D01*
X120353334Y-100492682D01*
X120350500Y-100466324D01*
X120350500Y-99712399D01*
X126099500Y-99712399D01*
X126099500Y-99837601D01*
X126122196Y-99922301D01*
X126131905Y-99958536D01*
X126164702Y-100015343D01*
X126181173Y-100083244D01*
X126177089Y-100109435D01*
X126155434Y-100190252D01*
X126149500Y-100212399D01*
X126149500Y-100337601D01*
X126181905Y-100458536D01*
X126244505Y-100566964D01*
X126333036Y-100655495D01*
X126441464Y-100718095D01*
X126562399Y-100750500D01*
X126562401Y-100750500D01*
X126687599Y-100750500D01*
X126687601Y-100750500D01*
X126808536Y-100718095D01*
X126916964Y-100655495D01*
X127005495Y-100566964D01*
X127068095Y-100458536D01*
X127100500Y-100337601D01*
X127100500Y-100212399D01*
X127068095Y-100091464D01*
X127035296Y-100034654D01*
X127018825Y-99966756D01*
X127022908Y-99940572D01*
X127050500Y-99837601D01*
X127050500Y-99712399D01*
X127018095Y-99591464D01*
X126955495Y-99483036D01*
X126866964Y-99394505D01*
X126758536Y-99331905D01*
X126758537Y-99331905D01*
X126718224Y-99321103D01*
X126637601Y-99299500D01*
X126512399Y-99299500D01*
X126431775Y-99321103D01*
X126391463Y-99331905D01*
X126283037Y-99394504D01*
X126283034Y-99394506D01*
X126194506Y-99483034D01*
X126194504Y-99483037D01*
X126131905Y-99591463D01*
X126127131Y-99609279D01*
X126099500Y-99712399D01*
X120350500Y-99712399D01*
X120350500Y-97909098D01*
X120350500Y-97909096D01*
X120332412Y-97841590D01*
X120334075Y-97771744D01*
X120373237Y-97713881D01*
X120437465Y-97686377D01*
X120452187Y-97685500D01*
X123236447Y-97685500D01*
X123303486Y-97705185D01*
X123343834Y-97747500D01*
X123345566Y-97750500D01*
X123369503Y-97791962D01*
X123369505Y-97791964D01*
X123458036Y-97880495D01*
X123566464Y-97943095D01*
X123687399Y-97975500D01*
X123687401Y-97975500D01*
X123812599Y-97975500D01*
X123812601Y-97975500D01*
X123933536Y-97943095D01*
X124041964Y-97880495D01*
X124130495Y-97791964D01*
X124193095Y-97683536D01*
X124225500Y-97562601D01*
X124225500Y-97437399D01*
X124193095Y-97316464D01*
X124130495Y-97208036D01*
X124041964Y-97119505D01*
X123933536Y-97056905D01*
X123933537Y-97056905D01*
X123893224Y-97046103D01*
X123812601Y-97024500D01*
X123697816Y-97024500D01*
X123665723Y-97020275D01*
X123644171Y-97014500D01*
X123644169Y-97014500D01*
X121609331Y-97014500D01*
X121542292Y-96994815D01*
X121496537Y-96942011D01*
X121486593Y-96872853D01*
X121515618Y-96809297D01*
X121521650Y-96802819D01*
X122139144Y-96185325D01*
X122893467Y-95431002D01*
X122937636Y-95354498D01*
X122949121Y-95311632D01*
X122985486Y-95251973D01*
X123048333Y-95221444D01*
X123117709Y-95229739D01*
X123156577Y-95256046D01*
X123578291Y-95677760D01*
X123610384Y-95733346D01*
X123630028Y-95806656D01*
X123630030Y-95806661D01*
X123692630Y-95915089D01*
X123781161Y-96003620D01*
X123889589Y-96066220D01*
X124010524Y-96098625D01*
X124010526Y-96098625D01*
X124135724Y-96098625D01*
X124135726Y-96098625D01*
X124256661Y-96066220D01*
X124365089Y-96003620D01*
X124453620Y-95915089D01*
X124516220Y-95806661D01*
X124548625Y-95685726D01*
X124548625Y-95560524D01*
X124516220Y-95439589D01*
X124453620Y-95331161D01*
X124365089Y-95242630D01*
X124256661Y-95180030D01*
X124256662Y-95180030D01*
X124187589Y-95161522D01*
X124135726Y-95147625D01*
X124048456Y-95147625D01*
X123981417Y-95127940D01*
X123960775Y-95111306D01*
X123367819Y-94518350D01*
X123334334Y-94457027D01*
X123331500Y-94430669D01*
X123331500Y-83544329D01*
X123351185Y-83477290D01*
X123367814Y-83456653D01*
X125530999Y-81293468D01*
X125531002Y-81293467D01*
X125566653Y-81257816D01*
X125599455Y-81239906D01*
X125627973Y-81224334D01*
X125627975Y-81224333D01*
X125627980Y-81224333D01*
X125654331Y-81221500D01*
X125662599Y-81221500D01*
X125662601Y-81221500D01*
X125783536Y-81189095D01*
X125891964Y-81126495D01*
X125980495Y-81037964D01*
X126043095Y-80929536D01*
X126075500Y-80808601D01*
X126075500Y-80683399D01*
X126043095Y-80562464D01*
X125980495Y-80454036D01*
X125891964Y-80365505D01*
X125783536Y-80302905D01*
X125783537Y-80302905D01*
X125743224Y-80292103D01*
X125662601Y-80270500D01*
X125537399Y-80270500D01*
X125456775Y-80292103D01*
X125416463Y-80302905D01*
X125308037Y-80365504D01*
X125308034Y-80365506D01*
X125219506Y-80454034D01*
X125219504Y-80454037D01*
X125156905Y-80562463D01*
X125156905Y-80562464D01*
X125127689Y-80671500D01*
X125124500Y-80683400D01*
X125124500Y-80695668D01*
X125116518Y-80722850D01*
X125111592Y-80750755D01*
X125106065Y-80758449D01*
X125104815Y-80762707D01*
X125091572Y-80779822D01*
X125089905Y-80781625D01*
X125056533Y-80814998D01*
X125052309Y-80822312D01*
X125042917Y-80832477D01*
X125041652Y-80833233D01*
X125039526Y-80836004D01*
X124998458Y-80877072D01*
X124937135Y-80910557D01*
X124867443Y-80905573D01*
X124811510Y-80863701D01*
X124807636Y-80857826D01*
X124805496Y-80855038D01*
X124805495Y-80855036D01*
X124716964Y-80766505D01*
X124608536Y-80703905D01*
X124608537Y-80703905D01*
X124568224Y-80693103D01*
X124487601Y-80671500D01*
X124362399Y-80671500D01*
X124281775Y-80693103D01*
X124241463Y-80703905D01*
X124133037Y-80766504D01*
X124133034Y-80766506D01*
X124044506Y-80855034D01*
X124044504Y-80855037D01*
X123981905Y-80963463D01*
X123981903Y-80963468D01*
X123952010Y-81075027D01*
X123919917Y-81130613D01*
X123688176Y-81362355D01*
X123626853Y-81395840D01*
X123557162Y-81390856D01*
X123512814Y-81362355D01*
X123432840Y-81282381D01*
X123432839Y-81282380D01*
X123324411Y-81219780D01*
X123324412Y-81219780D01*
X123284099Y-81208978D01*
X123203476Y-81187375D01*
X123078274Y-81187375D01*
X122997650Y-81208978D01*
X122957338Y-81219780D01*
X122848912Y-81282379D01*
X122848909Y-81282381D01*
X122760381Y-81370909D01*
X122760379Y-81370912D01*
X122697780Y-81479338D01*
X122665375Y-81600275D01*
X122665375Y-81612543D01*
X122645690Y-81679582D01*
X122629056Y-81700224D01*
X121985534Y-82343745D01*
X121985532Y-82343748D01*
X121941364Y-82420250D01*
X121941364Y-82420251D01*
X121918500Y-82505580D01*
X121918500Y-82505582D01*
X121918500Y-93855669D01*
X121898815Y-93922708D01*
X121882181Y-93943350D01*
X120837350Y-94988181D01*
X120776027Y-95021666D01*
X120749669Y-95024500D01*
X120737399Y-95024500D01*
X120656775Y-95046103D01*
X120616463Y-95056905D01*
X120508037Y-95119504D01*
X120508034Y-95119506D01*
X120419506Y-95208034D01*
X120419504Y-95208037D01*
X120356905Y-95316463D01*
X120351242Y-95337599D01*
X120324500Y-95437399D01*
X120324500Y-95562601D01*
X120356905Y-95683536D01*
X120419505Y-95791964D01*
X120508036Y-95880495D01*
X120616464Y-95943095D01*
X120737399Y-95975500D01*
X120737401Y-95975500D01*
X120862599Y-95975500D01*
X120862601Y-95975500D01*
X120983536Y-95943095D01*
X121091964Y-95880495D01*
X121180495Y-95791964D01*
X121243095Y-95683536D01*
X121275500Y-95562601D01*
X121275500Y-95550331D01*
X121295185Y-95483292D01*
X121311819Y-95462650D01*
X122077819Y-94696650D01*
X122139142Y-94663165D01*
X122208834Y-94668149D01*
X122264767Y-94710021D01*
X122289184Y-94775485D01*
X122289500Y-94784331D01*
X122289500Y-95034668D01*
X122269815Y-95101707D01*
X122253181Y-95122349D01*
X121117116Y-96258413D01*
X121055793Y-96291898D01*
X120997343Y-96290507D01*
X120937603Y-96274500D01*
X120937601Y-96274500D01*
X120812399Y-96274500D01*
X120747470Y-96291898D01*
X120691463Y-96306905D01*
X120583037Y-96369504D01*
X120583034Y-96369506D01*
X120494506Y-96458034D01*
X120494504Y-96458037D01*
X120431905Y-96566463D01*
X120428146Y-96580491D01*
X120399500Y-96687399D01*
X120399500Y-96812601D01*
X120407381Y-96842011D01*
X120411774Y-96858406D01*
X120410111Y-96928256D01*
X120370949Y-96986119D01*
X120306721Y-97013623D01*
X120291999Y-97014500D01*
X115330084Y-97014500D01*
X115263045Y-96994815D01*
X115217290Y-96942011D01*
X115207346Y-96872853D01*
X115236371Y-96809297D01*
X115242403Y-96802819D01*
X115294722Y-96750500D01*
X115347687Y-96697535D01*
X115449505Y-96557395D01*
X115528146Y-96403052D01*
X115581675Y-96238308D01*
X115608773Y-96067218D01*
X115608773Y-95893996D01*
X115581675Y-95722906D01*
X115528146Y-95558162D01*
X115449505Y-95403819D01*
X115347687Y-95263679D01*
X115225201Y-95141193D01*
X115085061Y-95039375D01*
X114982983Y-94987364D01*
X114930720Y-94960735D01*
X114930719Y-94960734D01*
X114930718Y-94960734D01*
X114765974Y-94907205D01*
X114765972Y-94907204D01*
X114765971Y-94907204D01*
X114614191Y-94883165D01*
X114594884Y-94880107D01*
X114421662Y-94880107D01*
X114402355Y-94883165D01*
X114250575Y-94907204D01*
X114085825Y-94960735D01*
X113931484Y-95039375D01*
X113867269Y-95086031D01*
X113791345Y-95141193D01*
X113791343Y-95141195D01*
X113791342Y-95141195D01*
X113668861Y-95263676D01*
X113668861Y-95263677D01*
X113668859Y-95263679D01*
X113634018Y-95311634D01*
X113567041Y-95403818D01*
X113488401Y-95558159D01*
X113434870Y-95722909D01*
X113407773Y-95893996D01*
X113407773Y-96067217D01*
X113433821Y-96231683D01*
X113434871Y-96238308D01*
X113481957Y-96383224D01*
X113488401Y-96403054D01*
X113516416Y-96458037D01*
X113567041Y-96557395D01*
X113668859Y-96697535D01*
X113668861Y-96697537D01*
X113790635Y-96819311D01*
X113824120Y-96880634D01*
X113819136Y-96950326D01*
X113777264Y-97006259D01*
X113735051Y-97026766D01*
X113695503Y-97037363D01*
X113695501Y-97037364D01*
X113618999Y-97081532D01*
X113618996Y-97081534D01*
X112968999Y-97731531D01*
X112968998Y-97731533D01*
X112953030Y-97747501D01*
X112939949Y-97760582D01*
X112878625Y-97794066D01*
X112808933Y-97789080D01*
X112764588Y-97760580D01*
X112685203Y-97681195D01*
X112685201Y-97681193D01*
X112545061Y-97579375D01*
X112390718Y-97500734D01*
X112225974Y-97447205D01*
X112225972Y-97447204D01*
X112225971Y-97447204D01*
X112074191Y-97423165D01*
X112054884Y-97420107D01*
X111881662Y-97420107D01*
X111862355Y-97423165D01*
X111710575Y-97447204D01*
X111675699Y-97458536D01*
X111590393Y-97486254D01*
X111545825Y-97500735D01*
X111391484Y-97579375D01*
X111334174Y-97621014D01*
X111251345Y-97681193D01*
X111251343Y-97681195D01*
X111251342Y-97681195D01*
X111152181Y-97780357D01*
X111090858Y-97813842D01*
X111021166Y-97808858D01*
X110965233Y-97766986D01*
X110940816Y-97701522D01*
X110940500Y-97692676D01*
X110940500Y-96808538D01*
X110960185Y-96741499D01*
X111012989Y-96695744D01*
X111082147Y-96685800D01*
X111145703Y-96714825D01*
X111152181Y-96720857D01*
X111251345Y-96820021D01*
X111391485Y-96921839D01*
X111545828Y-97000480D01*
X111710572Y-97054009D01*
X111881662Y-97081107D01*
X111881663Y-97081107D01*
X112054883Y-97081107D01*
X112054884Y-97081107D01*
X112225974Y-97054009D01*
X112390718Y-97000480D01*
X112545061Y-96921839D01*
X112685201Y-96820021D01*
X112807687Y-96697535D01*
X112909505Y-96557395D01*
X112988146Y-96403052D01*
X113041675Y-96238308D01*
X113068773Y-96067218D01*
X113068773Y-95893996D01*
X113041675Y-95722906D01*
X112988146Y-95558162D01*
X112909505Y-95403819D01*
X112807687Y-95263679D01*
X112685201Y-95141193D01*
X112545061Y-95039375D01*
X112442983Y-94987364D01*
X112390720Y-94960735D01*
X112390719Y-94960734D01*
X112390718Y-94960734D01*
X112225974Y-94907205D01*
X112225972Y-94907204D01*
X112225971Y-94907204D01*
X112074191Y-94883165D01*
X112054884Y-94880107D01*
X111881662Y-94880107D01*
X111862355Y-94883165D01*
X111710575Y-94907204D01*
X111545825Y-94960735D01*
X111391484Y-95039375D01*
X111327269Y-95086031D01*
X111251345Y-95141193D01*
X111251343Y-95141195D01*
X111251342Y-95141195D01*
X111152181Y-95240357D01*
X111090858Y-95273842D01*
X111021166Y-95268858D01*
X110965233Y-95226986D01*
X110940816Y-95161522D01*
X110940500Y-95152676D01*
X110940500Y-94268538D01*
X110960185Y-94201499D01*
X111012989Y-94155744D01*
X111082147Y-94145800D01*
X111145703Y-94174825D01*
X111152181Y-94180857D01*
X111251345Y-94280021D01*
X111391485Y-94381839D01*
X111545828Y-94460480D01*
X111710572Y-94514009D01*
X111881662Y-94541107D01*
X111881663Y-94541107D01*
X112054883Y-94541107D01*
X112054884Y-94541107D01*
X112225974Y-94514009D01*
X112390718Y-94460480D01*
X112545061Y-94381839D01*
X112685201Y-94280021D01*
X112807687Y-94157535D01*
X112909505Y-94017395D01*
X112988146Y-93863052D01*
X113041675Y-93698308D01*
X113068773Y-93527218D01*
X113068773Y-93353996D01*
X113407773Y-93353996D01*
X113407773Y-93527217D01*
X113430675Y-93671819D01*
X113434871Y-93698308D01*
X113488400Y-93863052D01*
X113567041Y-94017395D01*
X113668859Y-94157535D01*
X113791345Y-94280021D01*
X113931485Y-94381839D01*
X114085828Y-94460480D01*
X114250572Y-94514009D01*
X114421662Y-94541107D01*
X114421663Y-94541107D01*
X114594883Y-94541107D01*
X114594884Y-94541107D01*
X114765974Y-94514009D01*
X114930718Y-94460480D01*
X115085061Y-94381839D01*
X115225201Y-94280021D01*
X115347687Y-94157535D01*
X115449505Y-94017395D01*
X115528146Y-93863052D01*
X115581675Y-93698308D01*
X115608773Y-93527218D01*
X115608773Y-93353996D01*
X115581675Y-93182906D01*
X115528146Y-93018162D01*
X115449505Y-92863819D01*
X115347687Y-92723679D01*
X115225201Y-92601193D01*
X115085061Y-92499375D01*
X114930718Y-92420734D01*
X114765974Y-92367205D01*
X114765972Y-92367204D01*
X114765971Y-92367204D01*
X114634544Y-92346388D01*
X114594884Y-92340107D01*
X114421662Y-92340107D01*
X114382001Y-92346388D01*
X114250575Y-92367204D01*
X114085825Y-92420735D01*
X113931484Y-92499375D01*
X113884754Y-92533327D01*
X113791345Y-92601193D01*
X113791343Y-92601195D01*
X113791342Y-92601195D01*
X113668861Y-92723676D01*
X113668861Y-92723677D01*
X113668859Y-92723679D01*
X113642611Y-92759806D01*
X113567041Y-92863818D01*
X113488401Y-93018159D01*
X113434870Y-93182909D01*
X113407773Y-93353996D01*
X113068773Y-93353996D01*
X113041675Y-93182906D01*
X112988146Y-93018162D01*
X112909505Y-92863819D01*
X112807687Y-92723679D01*
X112685201Y-92601193D01*
X112545061Y-92499375D01*
X112390718Y-92420734D01*
X112225974Y-92367205D01*
X112225972Y-92367204D01*
X112225971Y-92367204D01*
X112094544Y-92346388D01*
X112054884Y-92340107D01*
X111881662Y-92340107D01*
X111842001Y-92346388D01*
X111710575Y-92367204D01*
X111545825Y-92420735D01*
X111391484Y-92499375D01*
X111344754Y-92533327D01*
X111251345Y-92601193D01*
X111251343Y-92601195D01*
X111251342Y-92601195D01*
X111152181Y-92700357D01*
X111090858Y-92733842D01*
X111021166Y-92728858D01*
X110965233Y-92686986D01*
X110940816Y-92621522D01*
X110940500Y-92612676D01*
X110940500Y-88874500D01*
X110960185Y-88807461D01*
X111012989Y-88761706D01*
X111064500Y-88750500D01*
X116185890Y-88750500D01*
X116185892Y-88750500D01*
X116313186Y-88716392D01*
X116427314Y-88650500D01*
X116520500Y-88557314D01*
X116586392Y-88443186D01*
X116620500Y-88315892D01*
X116620500Y-70170943D01*
X159024500Y-70170943D01*
X159024500Y-70329056D01*
X159065423Y-70481783D01*
X159065426Y-70481790D01*
X159144475Y-70618709D01*
X159144479Y-70618714D01*
X159144480Y-70618716D01*
X159256284Y-70730520D01*
X159256286Y-70730521D01*
X159256290Y-70730524D01*
X159393209Y-70809573D01*
X159393216Y-70809577D01*
X159545943Y-70850500D01*
X159545945Y-70850500D01*
X159704055Y-70850500D01*
X159704057Y-70850500D01*
X159856784Y-70809577D01*
X159993716Y-70730520D01*
X160105520Y-70618716D01*
X160184577Y-70481784D01*
X160225500Y-70329057D01*
X160225500Y-70170943D01*
X160184577Y-70018216D01*
X160184573Y-70018209D01*
X160105524Y-69881290D01*
X160105518Y-69881282D01*
X159993717Y-69769481D01*
X159993709Y-69769475D01*
X159856790Y-69690426D01*
X159856786Y-69690424D01*
X159856784Y-69690423D01*
X159704057Y-69649500D01*
X159545943Y-69649500D01*
X159393216Y-69690423D01*
X159393209Y-69690426D01*
X159256290Y-69769475D01*
X159256282Y-69769481D01*
X159144481Y-69881282D01*
X159144475Y-69881290D01*
X159065426Y-70018209D01*
X159065423Y-70018216D01*
X159024500Y-70170943D01*
X116620500Y-70170943D01*
X116620500Y-65684108D01*
X116586392Y-65556814D01*
X116520500Y-65442686D01*
X116427314Y-65349500D01*
X116370250Y-65316554D01*
X116313187Y-65283608D01*
X116249539Y-65266554D01*
X116185892Y-65249500D01*
X116185891Y-65249500D01*
X111064500Y-65249500D01*
X110997461Y-65229815D01*
X110951706Y-65177011D01*
X110940500Y-65125500D01*
X110940500Y-61172332D01*
X111519500Y-61172332D01*
X111519500Y-61447667D01*
X111519501Y-61447684D01*
X111555438Y-61720655D01*
X111555439Y-61720660D01*
X111555440Y-61720666D01*
X111555441Y-61720668D01*
X111626704Y-61986630D01*
X111732075Y-62241017D01*
X111732080Y-62241028D01*
X111792654Y-62345943D01*
X111869751Y-62479479D01*
X111869753Y-62479482D01*
X111869754Y-62479483D01*
X112037370Y-62697926D01*
X112037376Y-62697933D01*
X112232066Y-62892623D01*
X112232073Y-62892629D01*
X112248873Y-62905520D01*
X112450521Y-63060249D01*
X112603778Y-63148732D01*
X112688971Y-63197919D01*
X112688976Y-63197921D01*
X112688979Y-63197923D01*
X112943368Y-63303295D01*
X113209334Y-63374560D01*
X113482326Y-63410500D01*
X113482333Y-63410500D01*
X113757667Y-63410500D01*
X113757674Y-63410500D01*
X114030666Y-63374560D01*
X114296632Y-63303295D01*
X114551021Y-63197923D01*
X114789479Y-63060249D01*
X115007928Y-62892628D01*
X115202628Y-62697928D01*
X115370249Y-62479479D01*
X115447346Y-62345943D01*
X163874500Y-62345943D01*
X163874500Y-62504056D01*
X163915423Y-62656783D01*
X163915426Y-62656790D01*
X163994475Y-62793709D01*
X163994479Y-62793714D01*
X163994480Y-62793716D01*
X164106284Y-62905520D01*
X164106286Y-62905521D01*
X164106290Y-62905524D01*
X164243209Y-62984573D01*
X164243216Y-62984577D01*
X164395943Y-63025500D01*
X164395945Y-63025500D01*
X164554055Y-63025500D01*
X164554057Y-63025500D01*
X164706784Y-62984577D01*
X164843716Y-62905520D01*
X164955520Y-62793716D01*
X165034577Y-62656784D01*
X165075500Y-62504057D01*
X165075500Y-62345943D01*
X165034577Y-62193216D01*
X165007355Y-62146066D01*
X164955524Y-62056290D01*
X164955518Y-62056282D01*
X164843717Y-61944481D01*
X164843709Y-61944475D01*
X164706790Y-61865426D01*
X164706786Y-61865424D01*
X164706784Y-61865423D01*
X164554057Y-61824500D01*
X164395943Y-61824500D01*
X164243216Y-61865423D01*
X164243209Y-61865426D01*
X164106290Y-61944475D01*
X164106282Y-61944481D01*
X163994481Y-62056282D01*
X163994475Y-62056290D01*
X163915426Y-62193209D01*
X163915423Y-62193216D01*
X163874500Y-62345943D01*
X115447346Y-62345943D01*
X115507923Y-62241021D01*
X115613295Y-61986632D01*
X115684560Y-61720666D01*
X115720500Y-61447674D01*
X115720500Y-61172332D01*
X173749500Y-61172332D01*
X173749500Y-61447667D01*
X173749501Y-61447684D01*
X173785438Y-61720655D01*
X173785439Y-61720660D01*
X173785440Y-61720666D01*
X173785441Y-61720668D01*
X173856704Y-61986630D01*
X173962075Y-62241017D01*
X173962080Y-62241028D01*
X174022654Y-62345943D01*
X174099751Y-62479479D01*
X174099753Y-62479482D01*
X174099754Y-62479483D01*
X174267370Y-62697926D01*
X174267376Y-62697933D01*
X174462066Y-62892623D01*
X174462073Y-62892629D01*
X174478873Y-62905520D01*
X174680521Y-63060249D01*
X174833778Y-63148732D01*
X174918971Y-63197919D01*
X174918976Y-63197921D01*
X174918979Y-63197923D01*
X175173368Y-63303295D01*
X175439334Y-63374560D01*
X175712326Y-63410500D01*
X175712333Y-63410500D01*
X175987667Y-63410500D01*
X175987674Y-63410500D01*
X176260666Y-63374560D01*
X176526632Y-63303295D01*
X176781021Y-63197923D01*
X177019479Y-63060249D01*
X177237928Y-62892628D01*
X177432628Y-62697928D01*
X177600249Y-62479479D01*
X177737923Y-62241021D01*
X177843295Y-61986632D01*
X177914560Y-61720666D01*
X177950500Y-61447674D01*
X177950500Y-61172326D01*
X177914560Y-60899334D01*
X177843295Y-60633368D01*
X177737923Y-60378979D01*
X177737921Y-60378976D01*
X177737919Y-60378971D01*
X177688732Y-60293778D01*
X177600249Y-60140521D01*
X177432628Y-59922072D01*
X177432623Y-59922066D01*
X177237933Y-59727376D01*
X177237926Y-59727370D01*
X177019483Y-59559754D01*
X177019482Y-59559753D01*
X177019479Y-59559751D01*
X176924407Y-59504861D01*
X176781028Y-59422080D01*
X176781017Y-59422075D01*
X176526630Y-59316704D01*
X176393649Y-59281072D01*
X176260666Y-59245440D01*
X176260660Y-59245439D01*
X176260655Y-59245438D01*
X175987684Y-59209501D01*
X175987679Y-59209500D01*
X175987674Y-59209500D01*
X175712326Y-59209500D01*
X175712320Y-59209500D01*
X175712315Y-59209501D01*
X175439344Y-59245438D01*
X175439337Y-59245439D01*
X175439334Y-59245440D01*
X175383125Y-59260500D01*
X175173369Y-59316704D01*
X174918982Y-59422075D01*
X174918971Y-59422080D01*
X174680516Y-59559754D01*
X174462073Y-59727370D01*
X174462066Y-59727376D01*
X174267376Y-59922066D01*
X174267370Y-59922073D01*
X174099754Y-60140516D01*
X173962080Y-60378971D01*
X173962075Y-60378982D01*
X173856704Y-60633369D01*
X173785441Y-60899331D01*
X173785438Y-60899344D01*
X173749501Y-61172315D01*
X173749500Y-61172332D01*
X115720500Y-61172332D01*
X115720500Y-61172326D01*
X115684560Y-60899334D01*
X115613295Y-60633368D01*
X115507923Y-60378979D01*
X115507921Y-60378976D01*
X115507919Y-60378971D01*
X115458732Y-60293778D01*
X115370249Y-60140521D01*
X115202628Y-59922072D01*
X115202623Y-59922066D01*
X115007933Y-59727376D01*
X115007926Y-59727370D01*
X114789483Y-59559754D01*
X114789482Y-59559753D01*
X114789479Y-59559751D01*
X114694407Y-59504861D01*
X114551028Y-59422080D01*
X114551017Y-59422075D01*
X114296630Y-59316704D01*
X114163649Y-59281072D01*
X114030666Y-59245440D01*
X114030660Y-59245439D01*
X114030655Y-59245438D01*
X113757684Y-59209501D01*
X113757679Y-59209500D01*
X113757674Y-59209500D01*
X113482326Y-59209500D01*
X113482320Y-59209500D01*
X113482315Y-59209501D01*
X113209344Y-59245438D01*
X113209337Y-59245439D01*
X113209334Y-59245440D01*
X113153125Y-59260500D01*
X112943369Y-59316704D01*
X112688982Y-59422075D01*
X112688971Y-59422080D01*
X112450516Y-59559754D01*
X112232073Y-59727370D01*
X112232066Y-59727376D01*
X112037376Y-59922066D01*
X112037370Y-59922073D01*
X111869754Y-60140516D01*
X111732080Y-60378971D01*
X111732075Y-60378982D01*
X111626704Y-60633369D01*
X111555441Y-60899331D01*
X111555438Y-60899344D01*
X111519501Y-61172315D01*
X111519500Y-61172332D01*
X110940500Y-61172332D01*
X110940500Y-58634500D01*
X110960185Y-58567461D01*
X111012989Y-58521706D01*
X111064500Y-58510500D01*
X178405500Y-58510500D01*
X178472539Y-58530185D01*
G37*
%TD.AperFunction*%
%TA.AperFunction,Conductor*%
G36*
X175924899Y-99964850D02*
G01*
X175970654Y-100017654D01*
X175980598Y-100086812D01*
X175962529Y-100126377D01*
X176446166Y-100484042D01*
X176488363Y-100539731D01*
X176493754Y-100609392D01*
X176484107Y-100636684D01*
X176484184Y-100636716D01*
X176483583Y-100638166D01*
X176482926Y-100640026D01*
X176482321Y-100641211D01*
X176482317Y-100641222D01*
X176428788Y-100805967D01*
X176401691Y-100977054D01*
X176401691Y-101150275D01*
X176428304Y-101318308D01*
X176428789Y-101321366D01*
X176481324Y-101483052D01*
X176482319Y-101486112D01*
X176506483Y-101533536D01*
X176560959Y-101640453D01*
X176662777Y-101780593D01*
X176785263Y-101903079D01*
X176925403Y-102004897D01*
X177079746Y-102083538D01*
X177244490Y-102137067D01*
X177415580Y-102164165D01*
X177415581Y-102164165D01*
X177588801Y-102164165D01*
X177588802Y-102164165D01*
X177759892Y-102137067D01*
X177924636Y-102083538D01*
X178078979Y-102004897D01*
X178219119Y-101903079D01*
X178317819Y-101804379D01*
X178379142Y-101770894D01*
X178448834Y-101775878D01*
X178504767Y-101817750D01*
X178529184Y-101883214D01*
X178529500Y-101892060D01*
X178529500Y-102775270D01*
X178509815Y-102842309D01*
X178457011Y-102888064D01*
X178387853Y-102898008D01*
X178324297Y-102868983D01*
X178317819Y-102862951D01*
X178219121Y-102764253D01*
X178219119Y-102764251D01*
X178078979Y-102662433D01*
X177924636Y-102583792D01*
X177759892Y-102530263D01*
X177759890Y-102530262D01*
X177759889Y-102530262D01*
X177616513Y-102507554D01*
X177588802Y-102503165D01*
X177415580Y-102503165D01*
X177387869Y-102507554D01*
X177244493Y-102530262D01*
X177079748Y-102583791D01*
X177079737Y-102583795D01*
X177078552Y-102584400D01*
X177078053Y-102584493D01*
X177075242Y-102585658D01*
X177074997Y-102585067D01*
X177009881Y-102597290D01*
X176945143Y-102571008D01*
X176934586Y-102561591D01*
X176622194Y-102249199D01*
X176622193Y-102249198D01*
X176545689Y-102205029D01*
X176545690Y-102205029D01*
X176524356Y-102199313D01*
X176460360Y-102182165D01*
X176460357Y-102182165D01*
X175676623Y-102182165D01*
X175609584Y-102162480D01*
X175563829Y-102109676D01*
X175553885Y-102040518D01*
X175582910Y-101976962D01*
X175603734Y-101957848D01*
X175679119Y-101903079D01*
X175801605Y-101780593D01*
X175903423Y-101640453D01*
X175982064Y-101486110D01*
X176035593Y-101321366D01*
X176062691Y-101150276D01*
X176062691Y-100977054D01*
X176035593Y-100805964D01*
X175982064Y-100641220D01*
X175903423Y-100486877D01*
X175801605Y-100346737D01*
X175679119Y-100224251D01*
X175603736Y-100169482D01*
X175561072Y-100114153D01*
X175555093Y-100044539D01*
X175587699Y-99982744D01*
X175648538Y-99948387D01*
X175676623Y-99945165D01*
X175857860Y-99945165D01*
X175924899Y-99964850D01*
G37*
%TD.AperFunction*%
%TA.AperFunction,Conductor*%
G36*
X171045977Y-100524129D02*
G01*
X171066619Y-100540763D01*
X171169828Y-100643972D01*
X171203313Y-100705295D01*
X171198329Y-100774987D01*
X171156457Y-100830920D01*
X171090993Y-100855337D01*
X171082147Y-100855653D01*
X143066168Y-100855653D01*
X143050037Y-100850916D01*
X143033230Y-100851198D01*
X143017208Y-100841276D01*
X142999129Y-100835968D01*
X142988122Y-100823265D01*
X142973828Y-100814414D01*
X142965712Y-100797403D01*
X142953374Y-100783164D01*
X142950981Y-100766525D01*
X142943743Y-100751353D01*
X142946112Y-100732658D01*
X142943430Y-100714006D01*
X142950474Y-100698231D01*
X142952527Y-100682038D01*
X142967535Y-100660030D01*
X142971108Y-100652031D01*
X142974615Y-100647843D01*
X143030495Y-100591964D01*
X143050625Y-100557095D01*
X143057556Y-100548822D01*
X143078006Y-100535190D01*
X143095795Y-100518229D01*
X143107833Y-100515308D01*
X143115694Y-100510069D01*
X143130448Y-100509821D01*
X143152616Y-100504444D01*
X170978938Y-100504444D01*
X171045977Y-100524129D01*
G37*
%TD.AperFunction*%
%TA.AperFunction,Conductor*%
G36*
X172984098Y-99649234D02*
G01*
X173010442Y-99651113D01*
X173022180Y-99657519D01*
X173026561Y-99658472D01*
X173040207Y-99667357D01*
X173041422Y-99668020D01*
X173045966Y-99671420D01*
X173046290Y-99671744D01*
X173046767Y-99672019D01*
X173052671Y-99676437D01*
X173066064Y-99688040D01*
X173193691Y-99815667D01*
X173256156Y-99878132D01*
X173332660Y-99922301D01*
X173417989Y-99945165D01*
X174247759Y-99945165D01*
X174314798Y-99964850D01*
X174360553Y-100017654D01*
X174370497Y-100086812D01*
X174341472Y-100150368D01*
X174320647Y-100169481D01*
X174245263Y-100224251D01*
X174245261Y-100224253D01*
X174245260Y-100224253D01*
X174122779Y-100346734D01*
X174122779Y-100346735D01*
X174122777Y-100346737D01*
X174111253Y-100362599D01*
X174020959Y-100486876D01*
X173942318Y-100641219D01*
X173942314Y-100641229D01*
X173941905Y-100642488D01*
X173941620Y-100642904D01*
X173940454Y-100645720D01*
X173939862Y-100645474D01*
X173902466Y-100700162D01*
X173838106Y-100727357D01*
X173823976Y-100728165D01*
X173803995Y-100728165D01*
X173736956Y-100708480D01*
X173716314Y-100691846D01*
X172879453Y-99854985D01*
X172866795Y-99831804D01*
X172850962Y-99810663D01*
X172850313Y-99801619D01*
X172845968Y-99793662D01*
X172847852Y-99767316D01*
X172845962Y-99740973D01*
X172850305Y-99733014D01*
X172850952Y-99723970D01*
X172866780Y-99702826D01*
X172879433Y-99679642D01*
X172887391Y-99675294D01*
X172892824Y-99668037D01*
X172917569Y-99658807D01*
X172940749Y-99646144D01*
X172949792Y-99646788D01*
X172958288Y-99643620D01*
X172984098Y-99649234D01*
G37*
%TD.AperFunction*%
%TA.AperFunction,Conductor*%
G36*
X176105234Y-97605185D02*
G01*
X176125876Y-97621819D01*
X176460117Y-97956060D01*
X176493602Y-98017383D01*
X176488618Y-98087075D01*
X176482926Y-98100026D01*
X176482321Y-98101211D01*
X176482317Y-98101222D01*
X176428788Y-98265967D01*
X176401691Y-98437054D01*
X176401691Y-98610275D01*
X176428304Y-98778308D01*
X176428789Y-98781366D01*
X176482318Y-98946110D01*
X176560959Y-99100453D01*
X176662777Y-99240593D01*
X176785263Y-99363079D01*
X176925403Y-99464897D01*
X177079746Y-99543538D01*
X177244490Y-99597067D01*
X177415580Y-99624165D01*
X177415581Y-99624165D01*
X177588801Y-99624165D01*
X177588802Y-99624165D01*
X177759892Y-99597067D01*
X177924636Y-99543538D01*
X178078979Y-99464897D01*
X178219119Y-99363079D01*
X178317819Y-99264379D01*
X178379142Y-99230894D01*
X178448834Y-99235878D01*
X178504767Y-99277750D01*
X178529184Y-99343214D01*
X178529500Y-99352060D01*
X178529500Y-100235270D01*
X178509815Y-100302309D01*
X178457011Y-100348064D01*
X178387853Y-100358008D01*
X178324297Y-100328983D01*
X178317819Y-100322951D01*
X178219121Y-100224253D01*
X178219119Y-100224251D01*
X178078979Y-100122433D01*
X177924636Y-100043792D01*
X177759892Y-99990263D01*
X177759890Y-99990262D01*
X177759889Y-99990262D01*
X177628462Y-99969446D01*
X177588802Y-99963165D01*
X177415580Y-99963165D01*
X177375919Y-99969446D01*
X177244493Y-99990262D01*
X177079748Y-100043791D01*
X177079737Y-100043795D01*
X177078552Y-100044400D01*
X177078053Y-100044493D01*
X177075242Y-100045658D01*
X177074997Y-100045067D01*
X177009881Y-100057290D01*
X176945143Y-100031008D01*
X176934586Y-100021591D01*
X176254194Y-99341199D01*
X176254193Y-99341198D01*
X176177689Y-99297029D01*
X176177690Y-99297029D01*
X176154655Y-99290857D01*
X176092360Y-99274165D01*
X176092357Y-99274165D01*
X176017262Y-99274165D01*
X175950223Y-99254480D01*
X175904468Y-99201676D01*
X175894524Y-99132518D01*
X175906777Y-99093870D01*
X175924492Y-99059102D01*
X175982064Y-98946110D01*
X176035593Y-98781366D01*
X176062691Y-98610276D01*
X176062691Y-98437054D01*
X176035593Y-98265964D01*
X175982064Y-98101220D01*
X175903423Y-97946877D01*
X175801605Y-97806737D01*
X175792049Y-97797181D01*
X175781436Y-97777744D01*
X175766936Y-97761011D01*
X175765019Y-97747679D01*
X175758564Y-97735858D01*
X175760143Y-97713771D01*
X175756992Y-97691853D01*
X175762587Y-97679601D01*
X175763548Y-97666166D01*
X175776818Y-97648439D01*
X175786017Y-97628297D01*
X175797348Y-97621014D01*
X175805420Y-97610233D01*
X175826165Y-97602495D01*
X175844795Y-97590523D01*
X175866713Y-97587371D01*
X175870884Y-97585816D01*
X175879730Y-97585500D01*
X176038195Y-97585500D01*
X176105234Y-97605185D01*
G37*
%TD.AperFunction*%
%TA.AperFunction,Conductor*%
G36*
X170545319Y-99498796D02*
G01*
X170565961Y-99515430D01*
X170672294Y-99621763D01*
X170705779Y-99683086D01*
X170700795Y-99752778D01*
X170658923Y-99808711D01*
X170593459Y-99833128D01*
X170584613Y-99833444D01*
X143116447Y-99833444D01*
X143049408Y-99813759D01*
X143003653Y-99760955D01*
X142993709Y-99691797D01*
X143016851Y-99635575D01*
X143022297Y-99628231D01*
X143058565Y-99591964D01*
X143091478Y-99534955D01*
X143095716Y-99529242D01*
X143118147Y-99512294D01*
X143138491Y-99492896D01*
X143146343Y-99490990D01*
X143151463Y-99487123D01*
X143167223Y-99485925D01*
X143195312Y-99479111D01*
X170478280Y-99479111D01*
X170545319Y-99498796D01*
G37*
%TD.AperFunction*%
%TA.AperFunction,Conductor*%
G36*
X170392248Y-95655185D02*
G01*
X170412890Y-95671819D01*
X173470738Y-98729667D01*
X173533203Y-98792132D01*
X173609707Y-98836301D01*
X173695036Y-98859165D01*
X173823976Y-98859165D01*
X173891015Y-98878850D01*
X173934979Y-98927900D01*
X173939073Y-98936123D01*
X173942318Y-98946110D01*
X174017839Y-99094331D01*
X174018123Y-99094900D01*
X174024153Y-99128738D01*
X174030501Y-99162540D01*
X174030275Y-99163095D01*
X174030381Y-99163686D01*
X174017152Y-99195428D01*
X174004224Y-99227280D01*
X174003733Y-99227625D01*
X174003503Y-99228179D01*
X173975226Y-99247721D01*
X173947118Y-99267537D01*
X173946378Y-99267659D01*
X173946025Y-99267904D01*
X173944618Y-99267951D01*
X173907120Y-99274165D01*
X173652489Y-99274165D01*
X173585450Y-99254480D01*
X173564808Y-99237846D01*
X173461773Y-99134811D01*
X173455321Y-99129860D01*
X173455863Y-99129153D01*
X173441998Y-99118514D01*
X173365506Y-99042022D01*
X173354867Y-99028156D01*
X173354160Y-99028699D01*
X173349209Y-99022247D01*
X173016699Y-98689737D01*
X173010247Y-98684786D01*
X173010789Y-98684079D01*
X172996924Y-98673440D01*
X172944966Y-98621482D01*
X172934327Y-98607616D01*
X172933620Y-98608159D01*
X172928669Y-98601707D01*
X172866203Y-98539241D01*
X172596162Y-98269199D01*
X172589714Y-98264252D01*
X172590256Y-98263545D01*
X172576386Y-98252902D01*
X172542821Y-98219337D01*
X172532186Y-98205476D01*
X172531480Y-98206019D01*
X172526528Y-98199566D01*
X172194019Y-97867057D01*
X172187567Y-97862106D01*
X172188109Y-97861399D01*
X172174244Y-97850760D01*
X172166968Y-97843484D01*
X172156329Y-97829618D01*
X172155622Y-97830161D01*
X172150671Y-97823709D01*
X172088205Y-97761243D01*
X171818164Y-97491201D01*
X171811716Y-97486254D01*
X171812257Y-97485548D01*
X171798386Y-97474903D01*
X171712030Y-97388546D01*
X171701394Y-97374683D01*
X171700687Y-97375226D01*
X171695735Y-97368773D01*
X171363226Y-97036264D01*
X171356774Y-97031313D01*
X171357316Y-97030606D01*
X171343451Y-97019967D01*
X171331033Y-97007549D01*
X171320394Y-96993683D01*
X171319687Y-96994226D01*
X171314736Y-96987774D01*
X170982226Y-96655264D01*
X170975774Y-96650313D01*
X170976316Y-96649606D01*
X170962451Y-96638967D01*
X170923749Y-96600265D01*
X170913110Y-96586399D01*
X170912403Y-96586942D01*
X170907452Y-96580490D01*
X170574942Y-96247980D01*
X170568490Y-96243029D01*
X170569032Y-96242322D01*
X170555167Y-96231683D01*
X170355018Y-96031534D01*
X170355017Y-96031533D01*
X170278513Y-95987364D01*
X170278514Y-95987364D01*
X170257180Y-95981648D01*
X170193184Y-95964500D01*
X170193181Y-95964500D01*
X143091391Y-95964500D01*
X143083453Y-95962169D01*
X143075281Y-95963449D01*
X143050423Y-95952470D01*
X143024352Y-95944815D01*
X143017282Y-95937833D01*
X143011367Y-95935221D01*
X143003710Y-95928181D01*
X142970033Y-95894504D01*
X142949046Y-95882388D01*
X142900830Y-95831821D01*
X142887606Y-95763214D01*
X142913574Y-95698349D01*
X142949045Y-95667613D01*
X142975892Y-95652113D01*
X142981235Y-95650681D01*
X142984974Y-95647359D01*
X143005808Y-95644096D01*
X143037892Y-95635500D01*
X170325209Y-95635500D01*
X170392248Y-95655185D01*
G37*
%TD.AperFunction*%
%TA.AperFunction,Conductor*%
G36*
X170193798Y-98576237D02*
G01*
X170214440Y-98592871D01*
X170217999Y-98596430D01*
X170251484Y-98657753D01*
X170246500Y-98727445D01*
X170204628Y-98783378D01*
X170139164Y-98807795D01*
X170130318Y-98808111D01*
X143116781Y-98808111D01*
X143095535Y-98801872D01*
X143073447Y-98800293D01*
X143062663Y-98792220D01*
X143049742Y-98788426D01*
X143035242Y-98771692D01*
X143017514Y-98758421D01*
X143012806Y-98745800D01*
X143003987Y-98735622D01*
X143000835Y-98713704D01*
X142993097Y-98692957D01*
X142995959Y-98679796D01*
X142994043Y-98666464D01*
X143003242Y-98646320D01*
X143007949Y-98624684D01*
X143021217Y-98606958D01*
X143023068Y-98602908D01*
X143029100Y-98596430D01*
X143032659Y-98592871D01*
X143093982Y-98559386D01*
X143120340Y-98556552D01*
X170126759Y-98556552D01*
X170193798Y-98576237D01*
G37*
%TD.AperFunction*%
%TA.AperFunction,Conductor*%
G36*
X170701901Y-94655185D02*
G01*
X170722543Y-94671819D01*
X173569191Y-97518467D01*
X173645695Y-97562636D01*
X173731024Y-97585500D01*
X173819362Y-97585500D01*
X174044652Y-97585500D01*
X174111691Y-97605185D01*
X174157446Y-97657989D01*
X174167390Y-97727147D01*
X174138365Y-97790703D01*
X174132333Y-97797181D01*
X174122779Y-97806734D01*
X174122779Y-97806735D01*
X174122777Y-97806737D01*
X174100564Y-97837311D01*
X174020959Y-97946876D01*
X173968802Y-98049241D01*
X173920827Y-98100037D01*
X173853006Y-98116832D01*
X173786871Y-98094295D01*
X173770636Y-98080627D01*
X170721543Y-95031534D01*
X170721542Y-95031533D01*
X170645038Y-94987364D01*
X170645039Y-94987364D01*
X170623705Y-94981648D01*
X170559709Y-94964500D01*
X170559706Y-94964500D01*
X143091391Y-94964500D01*
X143061059Y-94955593D01*
X143030265Y-94948387D01*
X143026336Y-94945397D01*
X143024352Y-94944815D01*
X143008339Y-94931704D01*
X143003710Y-94928181D01*
X142970035Y-94894506D01*
X142970027Y-94894500D01*
X142936546Y-94875170D01*
X142888330Y-94824604D01*
X142875106Y-94755997D01*
X142901074Y-94691132D01*
X142936544Y-94660396D01*
X142945034Y-94655495D01*
X142945034Y-94655494D01*
X142950893Y-94652112D01*
X142986987Y-94642440D01*
X143005986Y-94635692D01*
X143009289Y-94636465D01*
X143012892Y-94635500D01*
X170634862Y-94635500D01*
X170701901Y-94655185D01*
G37*
%TD.AperFunction*%
%TA.AperFunction,Conductor*%
G36*
X169726708Y-97655185D02*
G01*
X169747350Y-97671819D01*
X169749402Y-97673871D01*
X169782887Y-97735194D01*
X169777903Y-97804886D01*
X169736031Y-97860819D01*
X169670567Y-97885236D01*
X169661721Y-97885552D01*
X143034338Y-97885552D01*
X143031408Y-97884691D01*
X143028440Y-97885412D01*
X142998090Y-97874908D01*
X142967299Y-97865867D01*
X142965300Y-97863560D01*
X142962413Y-97862561D01*
X142942555Y-97837311D01*
X142921544Y-97813063D01*
X142921109Y-97810042D01*
X142919221Y-97807641D01*
X142916167Y-97775672D01*
X142911600Y-97743905D01*
X142912868Y-97741127D01*
X142912578Y-97738087D01*
X142927290Y-97709547D01*
X142940625Y-97680349D01*
X142943615Y-97677879D01*
X142944593Y-97675984D01*
X142972336Y-97654166D01*
X142975890Y-97652114D01*
X143037892Y-97635500D01*
X169659669Y-97635500D01*
X169726708Y-97655185D01*
G37*
%TD.AperFunction*%
%TA.AperFunction,Conductor*%
G36*
X173804730Y-92707002D02*
G01*
X173850485Y-92759806D01*
X173861691Y-92811317D01*
X173861691Y-94318343D01*
X173876223Y-94391400D01*
X173876224Y-94391404D01*
X173876225Y-94391405D01*
X173931590Y-94474266D01*
X173997568Y-94518350D01*
X174014451Y-94529631D01*
X174014455Y-94529632D01*
X174087512Y-94544164D01*
X174087515Y-94544165D01*
X174087517Y-94544165D01*
X175836867Y-94544165D01*
X175882499Y-94535088D01*
X175952091Y-94541315D01*
X176007268Y-94584178D01*
X176030513Y-94650067D01*
X176030691Y-94656705D01*
X176030691Y-94803496D01*
X176030691Y-94891834D01*
X176053555Y-94977163D01*
X176079248Y-95021666D01*
X176097723Y-95053665D01*
X176097725Y-95053668D01*
X176460117Y-95416060D01*
X176493602Y-95477383D01*
X176488618Y-95547075D01*
X176482926Y-95560026D01*
X176482321Y-95561211D01*
X176482317Y-95561222D01*
X176428788Y-95725967D01*
X176401691Y-95897054D01*
X176401691Y-96070275D01*
X176428304Y-96238308D01*
X176428789Y-96241366D01*
X176482318Y-96406110D01*
X176560959Y-96560453D01*
X176662777Y-96700593D01*
X176785263Y-96823079D01*
X176925403Y-96924897D01*
X177079746Y-97003538D01*
X177244490Y-97057067D01*
X177415580Y-97084165D01*
X177415581Y-97084165D01*
X177588801Y-97084165D01*
X177588802Y-97084165D01*
X177759892Y-97057067D01*
X177924636Y-97003538D01*
X178078979Y-96924897D01*
X178219119Y-96823079D01*
X178317819Y-96724379D01*
X178379142Y-96690894D01*
X178448834Y-96695878D01*
X178504767Y-96737750D01*
X178529184Y-96803214D01*
X178529500Y-96812060D01*
X178529500Y-97695270D01*
X178509815Y-97762309D01*
X178457011Y-97808064D01*
X178387853Y-97818008D01*
X178324297Y-97788983D01*
X178317819Y-97782951D01*
X178219121Y-97684253D01*
X178219119Y-97684251D01*
X178078979Y-97582433D01*
X177924636Y-97503792D01*
X177759892Y-97450263D01*
X177759890Y-97450262D01*
X177759889Y-97450262D01*
X177628462Y-97429446D01*
X177588802Y-97423165D01*
X177415580Y-97423165D01*
X177375919Y-97429446D01*
X177244493Y-97450262D01*
X177079748Y-97503791D01*
X177079737Y-97503795D01*
X177078552Y-97504400D01*
X177078053Y-97504493D01*
X177075242Y-97505658D01*
X177074997Y-97505067D01*
X177009881Y-97517290D01*
X176945143Y-97491008D01*
X176934586Y-97481591D01*
X176434529Y-96981534D01*
X176434528Y-96981533D01*
X176358024Y-96937364D01*
X176358025Y-96937364D01*
X176336691Y-96931648D01*
X176272695Y-96914500D01*
X176272692Y-96914500D01*
X175887060Y-96914500D01*
X175820021Y-96894815D01*
X175774266Y-96842011D01*
X175764322Y-96772853D01*
X175793347Y-96709297D01*
X175799379Y-96702819D01*
X175801605Y-96700593D01*
X175903423Y-96560453D01*
X175982064Y-96406110D01*
X176035593Y-96241366D01*
X176062691Y-96070276D01*
X176062691Y-95897054D01*
X176035593Y-95725964D01*
X175982064Y-95561220D01*
X175903423Y-95406877D01*
X175801605Y-95266737D01*
X175679119Y-95144251D01*
X175538979Y-95042433D01*
X175384636Y-94963792D01*
X175219892Y-94910263D01*
X175219890Y-94910262D01*
X175219889Y-94910262D01*
X175088462Y-94889446D01*
X175048802Y-94883165D01*
X174875580Y-94883165D01*
X174835919Y-94889446D01*
X174704493Y-94910262D01*
X174638502Y-94931704D01*
X174549158Y-94960734D01*
X174539743Y-94963793D01*
X174385402Y-95042433D01*
X174317919Y-95091463D01*
X174245263Y-95144251D01*
X174245261Y-95144253D01*
X174245260Y-95144253D01*
X174122779Y-95266734D01*
X174122779Y-95266735D01*
X174122777Y-95266737D01*
X174086649Y-95316463D01*
X174020957Y-95406879D01*
X173993886Y-95460009D01*
X173945912Y-95510804D01*
X173878091Y-95527599D01*
X173811956Y-95505061D01*
X173795721Y-95491394D01*
X172622670Y-94318343D01*
X171335861Y-93031533D01*
X171259357Y-92987364D01*
X171259358Y-92987364D01*
X171238024Y-92981648D01*
X171174028Y-92964500D01*
X171174025Y-92964500D01*
X143091391Y-92964500D01*
X143061950Y-92955855D01*
X143031964Y-92949332D01*
X143026948Y-92945577D01*
X143024352Y-92944815D01*
X143003710Y-92928181D01*
X142974527Y-92898998D01*
X142941042Y-92837675D01*
X142946026Y-92767983D01*
X142987898Y-92712050D01*
X143053362Y-92687633D01*
X143062208Y-92687317D01*
X173737691Y-92687317D01*
X173804730Y-92707002D01*
G37*
%TD.AperFunction*%
%TA.AperFunction,Conductor*%
G36*
X170025723Y-96655185D02*
G01*
X170046365Y-96671819D01*
X170096994Y-96722448D01*
X170159459Y-96784913D01*
X170159461Y-96784914D01*
X170165910Y-96789863D01*
X170165364Y-96790573D01*
X170179228Y-96801204D01*
X170267792Y-96889767D01*
X170354223Y-96976198D01*
X170364868Y-96990071D01*
X170365575Y-96989530D01*
X170373334Y-96999643D01*
X170398525Y-97064813D01*
X170384482Y-97133257D01*
X170335665Y-97183244D01*
X170267573Y-97198903D01*
X170201824Y-97175263D01*
X170187273Y-97162804D01*
X170056003Y-97031534D01*
X170056002Y-97031533D01*
X169979498Y-96987364D01*
X169979499Y-96987364D01*
X169957733Y-96981532D01*
X169894169Y-96964500D01*
X169894166Y-96964500D01*
X143091391Y-96964500D01*
X143083453Y-96962169D01*
X143075281Y-96963449D01*
X143050423Y-96952470D01*
X143024352Y-96944815D01*
X143017282Y-96937833D01*
X143011367Y-96935221D01*
X143003710Y-96928181D01*
X142970033Y-96894504D01*
X142949046Y-96882388D01*
X142900830Y-96831821D01*
X142887606Y-96763214D01*
X142913574Y-96698349D01*
X142949045Y-96667613D01*
X142975892Y-96652113D01*
X142981235Y-96650681D01*
X142984974Y-96647359D01*
X143005808Y-96644096D01*
X143037892Y-96635500D01*
X169958684Y-96635500D01*
X170025723Y-96655185D01*
G37*
%TD.AperFunction*%
%TA.AperFunction,Conductor*%
G36*
X171006567Y-93655185D02*
G01*
X171027209Y-93671819D01*
X173540716Y-96185325D01*
X173540726Y-96185336D01*
X173607523Y-96252133D01*
X173618401Y-96258413D01*
X173684026Y-96296301D01*
X173769354Y-96319165D01*
X173769355Y-96319165D01*
X173823976Y-96319165D01*
X173891015Y-96338850D01*
X173936770Y-96391654D01*
X173941905Y-96404842D01*
X173942314Y-96406100D01*
X173942318Y-96406110D01*
X174020959Y-96560453D01*
X174122777Y-96700593D01*
X174122779Y-96700595D01*
X174125003Y-96702819D01*
X174125577Y-96703871D01*
X174125941Y-96704297D01*
X174125851Y-96704373D01*
X174158488Y-96764142D01*
X174153504Y-96833834D01*
X174111632Y-96889767D01*
X174046168Y-96914184D01*
X174037322Y-96914500D01*
X173965524Y-96914500D01*
X173898485Y-96894815D01*
X173877843Y-96878181D01*
X171031196Y-94031534D01*
X171031195Y-94031533D01*
X170954691Y-93987364D01*
X170954692Y-93987364D01*
X170933358Y-93981648D01*
X170869362Y-93964500D01*
X170869359Y-93964500D01*
X143066391Y-93964500D01*
X143044069Y-93957945D01*
X143020894Y-93955852D01*
X143007890Y-93947322D01*
X142999352Y-93944815D01*
X142993141Y-93937647D01*
X142978710Y-93928181D01*
X142945033Y-93894504D01*
X142936542Y-93889602D01*
X142888328Y-93839034D01*
X142875107Y-93770426D01*
X142901076Y-93705562D01*
X142936545Y-93674829D01*
X142970034Y-93655495D01*
X142970033Y-93655495D01*
X142975894Y-93652112D01*
X142997696Y-93646270D01*
X143013803Y-93637862D01*
X143025225Y-93638893D01*
X143037892Y-93635500D01*
X170939528Y-93635500D01*
X171006567Y-93655185D01*
G37*
%TD.AperFunction*%
%TD*%
M02*
