%TF.GenerationSoftware,KiCad,Pcbnew,9.0.0*%
%TF.CreationDate,2026-01-09T23:09:40+01:00*%
%TF.ProjectId,DE10-Nano-CAM,44453130-2d4e-4616-9e6f-2d43414d2e6b,v1*%
%TF.SameCoordinates,Original*%
%TF.FileFunction,Paste,Top*%
%TF.FilePolarity,Positive*%
%FSLAX46Y46*%
G04 Gerber Fmt 4.6, Leading zero omitted, Abs format (unit mm)*
G04 Created by KiCad (PCBNEW 9.0.0) date 2026-01-09 23:09:40*
%MOMM*%
%LPD*%
G01*
G04 APERTURE LIST*
G04 Aperture macros list*
%AMRoundRect*
0 Rectangle with rounded corners*
0 $1 Rounding radius*
0 $2 $3 $4 $5 $6 $7 $8 $9 X,Y pos of 4 corners*
0 Add a 4 corners polygon primitive as box body*
4,1,4,$2,$3,$4,$5,$6,$7,$8,$9,$2,$3,0*
0 Add four circle primitives for the rounded corners*
1,1,$1+$1,$2,$3*
1,1,$1+$1,$4,$5*
1,1,$1+$1,$6,$7*
1,1,$1+$1,$8,$9*
0 Add four rect primitives between the rounded corners*
20,1,$1+$1,$2,$3,$4,$5,0*
20,1,$1+$1,$4,$5,$6,$7,0*
20,1,$1+$1,$6,$7,$8,$9,0*
20,1,$1+$1,$8,$9,$2,$3,0*%
G04 Aperture macros list end*
%ADD10RoundRect,0.135000X-0.185000X0.135000X-0.185000X-0.135000X0.185000X-0.135000X0.185000X0.135000X0*%
%ADD11RoundRect,0.225000X-0.250000X0.225000X-0.250000X-0.225000X0.250000X-0.225000X0.250000X0.225000X0*%
%ADD12RoundRect,0.140000X-0.170000X0.140000X-0.170000X-0.140000X0.170000X-0.140000X0.170000X0.140000X0*%
%ADD13R,0.700000X0.200000*%
%ADD14RoundRect,0.243750X-0.456250X0.243750X-0.456250X-0.243750X0.456250X-0.243750X0.456250X0.243750X0*%
%ADD15R,1.100000X2.400000*%
%ADD16R,0.620000X1.400000*%
%ADD17RoundRect,0.243750X0.456250X-0.243750X0.456250X0.243750X-0.456250X0.243750X-0.456250X-0.243750X0*%
%ADD18R,0.300000X1.900000*%
%ADD19RoundRect,0.200000X0.275000X-0.200000X0.275000X0.200000X-0.275000X0.200000X-0.275000X-0.200000X0*%
%ADD20R,2.800000X2.100000*%
%ADD21R,1.900000X0.600000*%
G04 APERTURE END LIST*
D10*
%TO.C,R3*%
X124587520Y-144509000D03*
X124587520Y-143489000D03*
%TD*%
D11*
%TO.C,C3*%
X127893000Y-144774000D03*
X127893000Y-143224000D03*
%TD*%
D12*
%TO.C,C7*%
X161395854Y-151882754D03*
X161395854Y-150922754D03*
%TD*%
D13*
%TO.C,J2*%
X121748725Y-100684580D03*
X121748725Y-100284580D03*
X121748725Y-99884580D03*
X121748725Y-99484580D03*
X121748725Y-99084580D03*
X121748725Y-98684580D03*
X124828725Y-103084580D03*
X121748725Y-103084580D03*
X124828725Y-102684580D03*
X121748725Y-102684580D03*
X124828725Y-102284580D03*
X121748725Y-102284580D03*
X124828725Y-101884580D03*
X121748725Y-101884580D03*
X124828725Y-101484580D03*
X121748725Y-101484580D03*
X124828725Y-101084580D03*
X121748725Y-101084580D03*
X124828725Y-100684580D03*
X124828725Y-100284580D03*
X124828725Y-99884580D03*
X124828725Y-99484580D03*
X124828725Y-99084580D03*
X124828725Y-98684580D03*
X124828725Y-98284580D03*
X121748725Y-98284580D03*
X124828725Y-97884580D03*
X121748725Y-97884580D03*
X124828725Y-97484580D03*
X121748725Y-97484580D03*
X124828725Y-97084580D03*
X121748725Y-97084580D03*
X124828725Y-96684580D03*
X121748725Y-96684580D03*
X124828725Y-96284580D03*
X121748725Y-96284580D03*
X124828725Y-95884580D03*
X121748725Y-95884580D03*
X124828725Y-95484580D03*
X121748725Y-95484580D03*
X124828725Y-95084580D03*
X121748725Y-95084580D03*
X124828725Y-94684580D03*
X121748725Y-94684580D03*
X124828725Y-94284580D03*
X121748725Y-94284580D03*
X124828725Y-93884580D03*
X121748725Y-93884580D03*
X124828725Y-93484580D03*
X121748725Y-93484580D03*
X124828725Y-93084580D03*
X121748725Y-93084580D03*
X124828725Y-92684580D03*
X121748725Y-92684580D03*
X124828725Y-92284580D03*
X121748725Y-92284580D03*
X124828725Y-91884580D03*
X121748725Y-91884580D03*
X124828725Y-91484580D03*
X121748725Y-91484580D03*
X124828725Y-91084580D03*
X121748725Y-91084580D03*
X124828725Y-90684580D03*
X121748725Y-90684580D03*
X124828725Y-90284580D03*
X121748725Y-90284580D03*
X124828725Y-89884580D03*
X121748725Y-89884580D03*
X124828725Y-89484580D03*
X121748725Y-89484580D03*
X124828725Y-89084580D03*
X121748725Y-89084580D03*
X124828725Y-88684580D03*
X121748725Y-88684580D03*
X124828725Y-88284580D03*
X121748725Y-88284580D03*
X124828725Y-87884580D03*
X121748725Y-87884580D03*
X124828725Y-87484580D03*
X121748725Y-87484580D03*
X124828725Y-87084580D03*
X121748725Y-87084580D03*
X124828725Y-86684580D03*
X121748725Y-86684580D03*
X124828725Y-86284580D03*
X121748725Y-86284580D03*
X124828725Y-85884580D03*
X121748725Y-85884580D03*
X124828725Y-85484580D03*
X121748725Y-85484580D03*
X124828725Y-85084580D03*
X121748725Y-85084580D03*
X124828725Y-84684580D03*
X121748725Y-84684580D03*
X124828725Y-84284580D03*
X121748725Y-84284580D03*
X124828725Y-83884580D03*
X121748725Y-83884580D03*
X124828725Y-83484580D03*
X121748725Y-83484580D03*
%TD*%
D14*
%TO.C,D1*%
X171196000Y-100154500D03*
X171196000Y-102029500D03*
%TD*%
D15*
%TO.C,J3*%
X134821000Y-151343000D03*
X134821000Y-160343000D03*
X118671000Y-160343000D03*
X118671000Y-151343000D03*
D16*
X120051000Y-149343000D03*
X121151000Y-149343000D03*
X122251000Y-149343000D03*
X123351000Y-149343000D03*
X124451000Y-149343000D03*
X125551000Y-149343000D03*
X126651000Y-149343000D03*
X127751000Y-149343000D03*
X128851000Y-149343000D03*
%TD*%
D13*
%TO.C,J1*%
X155750369Y-99888024D03*
X155750369Y-99488024D03*
X155750369Y-101888024D03*
X155750369Y-100688024D03*
X155750369Y-101088024D03*
X155750369Y-98688024D03*
X158830369Y-103088024D03*
X155750369Y-103088024D03*
X158830369Y-102688024D03*
X155750369Y-102688024D03*
X158830369Y-102288024D03*
X155750369Y-102288024D03*
X158830369Y-101888024D03*
X158830369Y-101488024D03*
X155750369Y-101488024D03*
X158830369Y-101088024D03*
X158830369Y-100688024D03*
X158830369Y-100288024D03*
X155750369Y-100288024D03*
X158830369Y-99888024D03*
X158830369Y-99488024D03*
X158830369Y-99088024D03*
X155750369Y-99088024D03*
X158830369Y-98688024D03*
X158830369Y-98288024D03*
X155750369Y-98288024D03*
X158830369Y-97888024D03*
X155750369Y-97888024D03*
X158830369Y-97488024D03*
X155750369Y-97488024D03*
X158830369Y-97088024D03*
X155750369Y-97088024D03*
X158830369Y-96688024D03*
X155750369Y-96688024D03*
X158830369Y-96288024D03*
X155750369Y-96288024D03*
X158830369Y-95888024D03*
X155750369Y-95888024D03*
X158830369Y-95488024D03*
X155750369Y-95488024D03*
X158830369Y-95088024D03*
X155750369Y-95088024D03*
X158830369Y-94688024D03*
X155750369Y-94688024D03*
X158830369Y-94288024D03*
X155750369Y-94288024D03*
X158830369Y-93888024D03*
X155750369Y-93888024D03*
X158830369Y-93488024D03*
X155750369Y-93488024D03*
X158830369Y-93088024D03*
X155750369Y-93088024D03*
X158830369Y-92688024D03*
X155750369Y-92688024D03*
X158830369Y-92288024D03*
X155750369Y-92288024D03*
X158830369Y-91888024D03*
X155750369Y-91888024D03*
X158830369Y-91488024D03*
X155750369Y-91488024D03*
X158830369Y-91088024D03*
X155750369Y-91088024D03*
X158830369Y-90688024D03*
X155750369Y-90688024D03*
X158830369Y-90288024D03*
X155750369Y-90288024D03*
X158830369Y-89888024D03*
X155750369Y-89888024D03*
X158830369Y-89488024D03*
X155750369Y-89488024D03*
X158830369Y-89088024D03*
X155750369Y-89088024D03*
X158830369Y-88688024D03*
X155750369Y-88688024D03*
X158830369Y-88288024D03*
X155750369Y-88288024D03*
X158830369Y-87888024D03*
X155750369Y-87888024D03*
X158830369Y-87488024D03*
X155750369Y-87488024D03*
X158830369Y-87088024D03*
X155750369Y-87088024D03*
X158830369Y-86688024D03*
X155750369Y-86688024D03*
X158830369Y-86288024D03*
X155750369Y-86288024D03*
X158830369Y-85888024D03*
X155750369Y-85888024D03*
X158830369Y-85488024D03*
X155750369Y-85488024D03*
X158830369Y-85088024D03*
X155750369Y-85088024D03*
X158830369Y-84688024D03*
X155750369Y-84688024D03*
X158830369Y-84288024D03*
X155750369Y-84288024D03*
X158830369Y-83888024D03*
X155750369Y-83888024D03*
X158830369Y-83488024D03*
X155750369Y-83488024D03*
%TD*%
D17*
%TO.C,D2*%
X171450000Y-128602500D03*
X171450000Y-130477500D03*
%TD*%
D18*
%TO.C,J4*%
X157017819Y-156463124D03*
X156517819Y-156463124D03*
X157517819Y-156463124D03*
X158017819Y-156463124D03*
X158517819Y-156463124D03*
X159017819Y-156463124D03*
X159517819Y-156463124D03*
X160017819Y-156463124D03*
X160517819Y-156463124D03*
X161017819Y-156463124D03*
X161517819Y-156463124D03*
X162017819Y-156463124D03*
X162517819Y-156463124D03*
X163017819Y-156463124D03*
X163517819Y-156463124D03*
X164017819Y-156463124D03*
X164517819Y-156463124D03*
X165017819Y-156463124D03*
X165517819Y-156463124D03*
%TD*%
D12*
%TO.C,C1*%
X166275000Y-151878657D03*
X166275000Y-150918657D03*
%TD*%
D10*
%TO.C,R1*%
X122907876Y-144507945D03*
X122907876Y-143487945D03*
%TD*%
D12*
%TO.C,C8*%
X160412008Y-151889496D03*
X160412008Y-150929496D03*
%TD*%
%TO.C,C4*%
X164325000Y-151877246D03*
X164325000Y-150917246D03*
%TD*%
D10*
%TO.C,R2*%
X126238000Y-144509000D03*
X126238000Y-143489000D03*
%TD*%
D12*
%TO.C,C6*%
X162350000Y-151880000D03*
X162350000Y-150920000D03*
%TD*%
D19*
%TO.C,R8*%
X161581000Y-62421000D03*
X161581000Y-64071000D03*
%TD*%
%TO.C,R7*%
X163125000Y-62421000D03*
X163125000Y-64071000D03*
%TD*%
D12*
%TO.C,C9*%
X159439827Y-151897620D03*
X159439827Y-150937620D03*
%TD*%
%TO.C,C2*%
X165320445Y-151878657D03*
X165320445Y-150918657D03*
%TD*%
D10*
%TO.C,R4*%
X121256876Y-144507945D03*
X121256876Y-143487945D03*
%TD*%
D12*
%TO.C,C5*%
X163359081Y-151881233D03*
X163359081Y-150921233D03*
%TD*%
D20*
%TO.C,J5*%
X164978000Y-67066000D03*
X164978000Y-87366000D03*
D21*
X162628000Y-70216000D03*
X162628000Y-71216000D03*
X162628000Y-72216000D03*
X162628000Y-73216000D03*
X162628000Y-74216000D03*
X162628000Y-75216000D03*
X162628000Y-76216000D03*
X162628000Y-77216000D03*
X162628000Y-78216000D03*
X162628000Y-79216000D03*
X162628000Y-80216000D03*
X162628000Y-81216000D03*
X162628000Y-82216000D03*
X162628000Y-83216000D03*
X162628000Y-84216000D03*
%TD*%
M02*
