%TF.GenerationSoftware,KiCad,Pcbnew,9.0.0*%
%TF.CreationDate,2026-01-09T23:09:41+01:00*%
%TF.ProjectId,DE10-Nano-CAM,44453130-2d4e-4616-9e6f-2d43414d2e6b,v1*%
%TF.SameCoordinates,Original*%
%TF.FileFunction,Legend,Bot*%
%TF.FilePolarity,Positive*%
%FSLAX46Y46*%
G04 Gerber Fmt 4.6, Leading zero omitted, Abs format (unit mm)*
G04 Created by KiCad (PCBNEW 9.0.0) date 2026-01-09 23:09:41*
%MOMM*%
%LPD*%
G01*
G04 APERTURE LIST*
%ADD10C,0.150000*%
%ADD11C,0.120000*%
G04 APERTURE END LIST*
D10*
X118091033Y-106571333D02*
X117757700Y-106338000D01*
X118091033Y-106171333D02*
X117391033Y-106171333D01*
X117391033Y-106171333D02*
X117391033Y-106438000D01*
X117391033Y-106438000D02*
X117424366Y-106504667D01*
X117424366Y-106504667D02*
X117457700Y-106538000D01*
X117457700Y-106538000D02*
X117524366Y-106571333D01*
X117524366Y-106571333D02*
X117624366Y-106571333D01*
X117624366Y-106571333D02*
X117691033Y-106538000D01*
X117691033Y-106538000D02*
X117724366Y-106504667D01*
X117724366Y-106504667D02*
X117757700Y-106438000D01*
X117757700Y-106438000D02*
X117757700Y-106171333D01*
X117391033Y-107171333D02*
X117391033Y-107038000D01*
X117391033Y-107038000D02*
X117424366Y-106971333D01*
X117424366Y-106971333D02*
X117457700Y-106938000D01*
X117457700Y-106938000D02*
X117557700Y-106871333D01*
X117557700Y-106871333D02*
X117691033Y-106838000D01*
X117691033Y-106838000D02*
X117957700Y-106838000D01*
X117957700Y-106838000D02*
X118024366Y-106871333D01*
X118024366Y-106871333D02*
X118057700Y-106904667D01*
X118057700Y-106904667D02*
X118091033Y-106971333D01*
X118091033Y-106971333D02*
X118091033Y-107104667D01*
X118091033Y-107104667D02*
X118057700Y-107171333D01*
X118057700Y-107171333D02*
X118024366Y-107204667D01*
X118024366Y-107204667D02*
X117957700Y-107238000D01*
X117957700Y-107238000D02*
X117791033Y-107238000D01*
X117791033Y-107238000D02*
X117724366Y-107204667D01*
X117724366Y-107204667D02*
X117691033Y-107171333D01*
X117691033Y-107171333D02*
X117657700Y-107104667D01*
X117657700Y-107104667D02*
X117657700Y-106971333D01*
X117657700Y-106971333D02*
X117691033Y-106904667D01*
X117691033Y-106904667D02*
X117724366Y-106871333D01*
X117724366Y-106871333D02*
X117791033Y-106838000D01*
X118091033Y-98697333D02*
X117757700Y-98464000D01*
X118091033Y-98297333D02*
X117391033Y-98297333D01*
X117391033Y-98297333D02*
X117391033Y-98564000D01*
X117391033Y-98564000D02*
X117424366Y-98630667D01*
X117424366Y-98630667D02*
X117457700Y-98664000D01*
X117457700Y-98664000D02*
X117524366Y-98697333D01*
X117524366Y-98697333D02*
X117624366Y-98697333D01*
X117624366Y-98697333D02*
X117691033Y-98664000D01*
X117691033Y-98664000D02*
X117724366Y-98630667D01*
X117724366Y-98630667D02*
X117757700Y-98564000D01*
X117757700Y-98564000D02*
X117757700Y-98297333D01*
X117391033Y-99330667D02*
X117391033Y-98997333D01*
X117391033Y-98997333D02*
X117724366Y-98964000D01*
X117724366Y-98964000D02*
X117691033Y-98997333D01*
X117691033Y-98997333D02*
X117657700Y-99064000D01*
X117657700Y-99064000D02*
X117657700Y-99230667D01*
X117657700Y-99230667D02*
X117691033Y-99297333D01*
X117691033Y-99297333D02*
X117724366Y-99330667D01*
X117724366Y-99330667D02*
X117791033Y-99364000D01*
X117791033Y-99364000D02*
X117957700Y-99364000D01*
X117957700Y-99364000D02*
X118024366Y-99330667D01*
X118024366Y-99330667D02*
X118057700Y-99297333D01*
X118057700Y-99297333D02*
X118091033Y-99230667D01*
X118091033Y-99230667D02*
X118091033Y-99064000D01*
X118091033Y-99064000D02*
X118057700Y-98997333D01*
X118057700Y-98997333D02*
X118024366Y-98964000D01*
D11*
%TO.C,R6*%
X118297500Y-104164742D02*
X118297500Y-104639258D01*
X117252500Y-104164742D02*
X117252500Y-104639258D01*
%TO.C,R5*%
X118297500Y-101337258D02*
X118297500Y-100862742D01*
X117252500Y-101337258D02*
X117252500Y-100862742D01*
%TD*%
M02*
