%TF.GenerationSoftware,KiCad,Pcbnew,9.0.0*%
%TF.CreationDate,2026-01-09T23:09:41+01:00*%
%TF.ProjectId,DE10-Nano-CAM,44453130-2d4e-4616-9e6f-2d43414d2e6b,v1*%
%TF.SameCoordinates,Original*%
%TF.FileFunction,Soldermask,Bot*%
%TF.FilePolarity,Negative*%
%FSLAX46Y46*%
G04 Gerber Fmt 4.6, Leading zero omitted, Abs format (unit mm)*
G04 Created by KiCad (PCBNEW 9.0.0) date 2026-01-09 23:09:41*
%MOMM*%
%LPD*%
G01*
G04 APERTURE LIST*
G04 Aperture macros list*
%AMRoundRect*
0 Rectangle with rounded corners*
0 $1 Rounding radius*
0 $2 $3 $4 $5 $6 $7 $8 $9 X,Y pos of 4 corners*
0 Add a 4 corners polygon primitive as box body*
4,1,4,$2,$3,$4,$5,$6,$7,$8,$9,$2,$3,0*
0 Add four circle primitives for the rounded corners*
1,1,$1+$1,$2,$3*
1,1,$1+$1,$4,$5*
1,1,$1+$1,$6,$7*
1,1,$1+$1,$8,$9*
0 Add four rect primitives between the rounded corners*
20,1,$1+$1,$2,$3,$4,$5,0*
20,1,$1+$1,$4,$5,$6,$7,0*
20,1,$1+$1,$6,$7,$8,$9,0*
20,1,$1+$1,$8,$9,$2,$3,0*%
G04 Aperture macros list end*
%ADD10R,1.700000X1.700000*%
%ADD11C,1.700000*%
%ADD12C,4.700000*%
%ADD13C,0.950000*%
%ADD14C,1.800000*%
%ADD15RoundRect,0.200000X-0.275000X0.200000X-0.275000X-0.200000X0.275000X-0.200000X0.275000X0.200000X0*%
%ADD16RoundRect,0.200000X0.275000X-0.200000X0.275000X0.200000X-0.275000X0.200000X-0.275000X-0.200000X0*%
G04 APERTURE END LIST*
D10*
%TO.C,U1*%
X114508273Y-141700607D03*
D11*
X111968273Y-141700607D03*
X114508273Y-139160607D03*
X111968273Y-139160607D03*
X114508273Y-136620607D03*
X111968273Y-136620607D03*
X114508273Y-134080607D03*
X111968273Y-134080607D03*
X114508273Y-131540607D03*
X111968273Y-131540607D03*
X114508273Y-129000607D03*
X111968273Y-129000607D03*
X114508273Y-126460607D03*
X111968273Y-126460607D03*
X114508273Y-123920607D03*
X111968273Y-123920607D03*
X114508273Y-121380607D03*
X111968273Y-121380607D03*
X114508273Y-118840607D03*
X111968273Y-118840607D03*
X114508273Y-116300607D03*
X111968273Y-116300607D03*
X114508273Y-113760607D03*
X111968273Y-113760607D03*
X114508273Y-111220607D03*
X111968273Y-111220607D03*
X114508273Y-108680607D03*
X111968273Y-108680607D03*
X114508273Y-106140607D03*
X111968273Y-106140607D03*
X114508273Y-103600607D03*
X111968273Y-103600607D03*
X114508273Y-101060607D03*
X111968273Y-101060607D03*
X114508273Y-98520607D03*
X111968273Y-98520607D03*
X114508273Y-95980607D03*
X111968273Y-95980607D03*
X114508273Y-93440607D03*
X111968273Y-93440607D03*
D10*
X174962191Y-93443665D03*
D11*
X177502191Y-93443665D03*
X177502191Y-95983665D03*
X174962191Y-103603665D03*
X174962191Y-106143665D03*
X177502191Y-106143665D03*
X174962191Y-108683665D03*
X177502191Y-108683665D03*
X174962191Y-111223665D03*
X177502191Y-111223665D03*
X174962191Y-113763665D03*
X177502191Y-113763665D03*
X174962191Y-116303665D03*
X177502191Y-116303665D03*
X174962191Y-118843665D03*
X177502191Y-118843665D03*
X174962191Y-121383665D03*
X177502191Y-121383665D03*
X174962191Y-123923665D03*
X177502191Y-123923665D03*
X174962191Y-126463665D03*
X177502191Y-126463665D03*
X174962191Y-129003665D03*
X177502191Y-129003665D03*
X174962191Y-131543665D03*
X177502191Y-131543665D03*
X174962191Y-134083665D03*
X177502191Y-134083665D03*
X174962191Y-136623665D03*
X177502191Y-136623665D03*
X174962191Y-139163665D03*
X177502191Y-139163665D03*
X174962191Y-141703665D03*
X177502191Y-141703665D03*
X177502191Y-103603665D03*
X177502191Y-98523665D03*
X174962191Y-95983665D03*
X174962191Y-101063665D03*
X177502191Y-101063665D03*
X174962191Y-98523665D03*
%TD*%
D12*
%TO.C,H1*%
X123786731Y-114785477D03*
%TD*%
D13*
%TO.C,J3*%
X129671000Y-160763000D03*
X122871000Y-160763000D03*
%TD*%
D14*
%TO.C,J4*%
X168617819Y-162363124D03*
X168017819Y-157463124D03*
X153517819Y-157463124D03*
X152917819Y-162363124D03*
%TD*%
D12*
%TO.C,H3*%
X156786731Y-114785477D03*
%TD*%
%TO.C,H4*%
X156786731Y-66785477D03*
%TD*%
%TO.C,H2*%
X123786731Y-66785477D03*
%TD*%
D15*
%TO.C,R6*%
X117775000Y-105227000D03*
X117775000Y-103577000D03*
%TD*%
D16*
%TO.C,R5*%
X117775000Y-100275000D03*
X117775000Y-101925000D03*
%TD*%
M02*
